<?xml version="1.0" encoding="UTF-8"?>
<svg xmlns="http://www.w3.org/2000/svg" xmlns:xlink="http://www.w3.org/1999/xlink" width="1080" height="1080" viewBox="0 0 1080 1080">
<rect x="-108" y="-108" width="1296" height="1296" fill="rgb(0%, 0%, 0%)" fill-opacity="1"/>
<path fill-rule="nonzero" fill="rgb(100%, 100%, 100%)" fill-opacity="1" d="M 338.378906 422.785156 C 338.378906 402.242188 335.640625 373.132812 308.589844 373.132812 C 277.769531 373.132812 277.425781 411.484375 277.425781 422.785156 Z M 278.109375 451.550781 C 278.109375 460.796875 278.453125 479.628906 293.863281 494.699219 C 309.273438 510.109375 330.503906 510.109375 337.351562 510.109375 C 366.804688 510.109375 377.761719 499.152344 384.609375 492.644531 C 380.84375 511.824219 380.15625 516.957031 378.445312 535.449219 C 361.664062 539.902344 353.449219 541.957031 333.929688 541.957031 C 299.34375 541.957031 220.238281 539.902344 220.238281 441.277344 C 220.238281 423.46875 222.292969 392.308594 246.261719 369.023438 C 264.070312 351.902344 289.066406 345.394531 313.726562 345.394531 C 345.226562 345.394531 369.542969 355.667969 382.214844 384.089844 C 392.488281 406.691406 391.800781 432.375 391.460938 451.550781 Z M 278.109375 451.550781 "/>
<path fill-rule="nonzero" fill="rgb(100%, 100%, 100%)" fill-opacity="1" d="M 403.085938 392.308594 C 403.425781 380.324219 403.425781 373.472656 403.085938 362.171875 C 415.410156 362.515625 422.601562 362.859375 431.160156 362.859375 C 431.160156 346.078125 430.820312 340.257812 431.847656 333.0625 C 432.875 324.847656 436.300781 306.695312 460.269531 294.027344 C 485.609375 281.015625 514.375 281.703125 530.128906 282.042969 C 524.992188 300.191406 523.625 305.671875 520.199219 323.820312 C 516.089844 321.765625 511.292969 319.367188 503.757812 319.367188 C 500.679688 319.367188 495.199219 319.710938 490.402344 324.507812 C 484.242188 330.667969 484.242188 341.285156 484.242188 362.859375 C 497.9375 363.203125 501.363281 363.203125 516.429688 361.488281 C 516.089844 375.1875 516.089844 378.269531 516.429688 391.964844 C 502.050781 390.9375 499.308594 390.597656 483.554688 390.253906 C 483.554688 414.566406 483.214844 438.878906 483.214844 462.851562 L 483.214844 472.097656 C 483.214844 515.929688 485.269531 523.121094 490.75 540.246094 C 479.445312 539.21875 468.148438 537.84375 456.503906 537.84375 C 445.542969 537.84375 434.585938 539.21875 423.972656 540.246094 C 428.078125 529.289062 429.792969 522.78125 430.480469 496.066406 C 431.160156 461.136719 431.160156 423.128906 431.160156 390.597656 C 421.917969 390.9375 416.4375 390.9375 403.085938 392.308594 "/>
<path fill-rule="nonzero" fill="rgb(100%, 100%, 100%)" fill-opacity="1" d="M 596.210938 503.945312 C 605.800781 503.945312 612.304688 498.125 615.046875 495.726562 C 629.769531 481.003906 630.113281 460.457031 630.457031 444.019531 C 625.320312 443.671875 619.839844 442.992188 614.703125 442.992188 C 585.597656 442.992188 570.527344 461.824219 570.527344 477.574219 C 570.527344 494.355469 584.222656 503.945312 596.210938 503.945312 M 556.144531 428.949219 C 578.746094 421.414062 611.277344 422.445312 629.769531 422.445312 C 629.769531 399.160156 627.375 382.722656 597.582031 382.722656 C 574.292969 382.722656 553.0625 394.707031 541.417969 401.214844 C 537.3125 383.402344 535.941406 379.296875 528.75 363.542969 C 537.65625 360.464844 546.558594 357.035156 555.460938 354.980469 C 571.214844 350.875 593.132812 347.792969 611.621094 347.792969 C 624.292969 347.792969 642.097656 349.160156 656.136719 356.007812 C 683.535156 369.707031 683.535156 395.390625 683.535156 412.511719 C 683.535156 425.867188 682.847656 438.878906 682.847656 451.894531 C 682.164062 469.699219 682.164062 496.414062 682.164062 504.972656 C 682.164062 522.433594 684.5625 528.941406 688.671875 539.21875 C 678.394531 538.53125 669.492188 537.84375 659.90625 537.84375 C 650.316406 537.84375 640.730469 538.53125 630.796875 539.21875 C 628.058594 524.492188 629.769531 513.53125 629.769531 506.683594 C 623.949219 514.902344 619.839844 520.726562 610.25 527.574219 C 599.980469 535.105469 588.335938 540.585938 572.925781 540.585938 C 557.175781 540.585938 542.105469 534.421875 531.832031 523.808594 C 519.164062 511.136719 517.105469 496.066406 517.105469 482.371094 C 517.105469 472.097656 517.105469 442.304688 556.144531 428.949219 "/>
<path fill-rule="nonzero" fill="rgb(100%, 100%, 100%)" fill-opacity="1" d="M 807.140625 345.394531 C 825.289062 345.394531 840.015625 348.476562 856.109375 351.902344 C 847.890625 369.367188 846.179688 373.816406 841.386719 390.597656 C 838.304688 387.171875 835.90625 384.429688 828.714844 381.691406 C 822.550781 379.296875 816.046875 378.269531 809.195312 378.269531 C 800.292969 378.269531 791.386719 380.324219 783.511719 384.429688 C 762.625 396.074219 759.542969 422.441406 759.542969 438.539062 C 759.542969 467.644531 770.15625 486.136719 778.375 494.359375 C 784.199219 499.835938 796.179688 508.394531 817.414062 508.394531 C 839.671875 508.394531 849.261719 500.179688 853.714844 496.414062 C 848.921875 514.21875 847.890625 518.671875 845.835938 538.871094 C 832.824219 540.585938 821.867188 541.957031 809.195312 541.957031 C 781.117188 541.957031 752.347656 535.792969 732.144531 516.273438 C 712.625 497.4375 704.75 470.386719 704.75 443.332031 C 704.75 389.910156 738.3125 345.394531 807.140625 345.394531 "/>
<path fill-rule="nonzero" fill="rgb(3.898621%, 40.79895%, 47.099304%)" fill-opacity="1" d="M 318.027344 596.742188 L 222.804688 596.742188 L 222.804688 573.492188 L 318.027344 573.492188 Z M 318.027344 596.742188 "/>
<path fill-rule="nonzero" fill="rgb(100%, 100%, 100%)" fill-opacity="1" d="M 531.132812 596.742188 L 504.191406 596.742188 L 504.191406 573.492188 L 531.132812 573.492188 Z M 531.132812 596.742188 "/>
<path fill-rule="nonzero" fill="rgb(94.898987%, 54.499817%, 12.5%)" fill-opacity="1" d="M 504.191406 596.742188 L 318.027344 596.742188 L 318.027344 573.492188 L 504.191406 573.492188 Z M 504.191406 596.742188 "/>
<path fill-rule="nonzero" fill="rgb(80.799866%, 12.5%, 14.898682%)" fill-opacity="1" d="M 625.4375 596.742188 L 531.132812 596.742188 L 531.132812 573.492188 L 625.4375 573.492188 Z M 625.4375 596.742188 "/>
<path fill-rule="nonzero" fill="rgb(3.898621%, 40.79895%, 47.099304%)" fill-opacity="1" d="M 751.070312 596.742188 L 625.4375 596.742188 L 625.4375 573.492188 L 751.070312 573.492188 Z M 751.070312 596.742188 "/>
<path fill-rule="nonzero" fill="rgb(94.898987%, 54.499817%, 12.5%)" fill-opacity="1" d="M 809.375 596.742188 L 751.070312 596.742188 L 751.070312 573.492188 L 809.375 573.492188 Z M 809.375 596.742188 "/>
<path fill-rule="nonzero" fill="rgb(100%, 100%, 100%)" fill-opacity="1" d="M 859.761719 596.742188 L 809.375 596.742188 L 809.375 573.492188 L 859.761719 573.492188 Z M 859.761719 596.742188 "/>
<path fill-rule="nonzero" fill="rgb(100%, 100%, 100%)" fill-opacity="1" d="M 228.441406 767.566406 C 228.441406 763.574219 228.40625 760.40625 228.335938 758.054688 C 228.265625 755.703125 228.15625 753.851562 228.015625 752.496094 C 227.871094 751.144531 227.703125 750.121094 227.515625 749.433594 C 227.324219 748.746094 227.089844 748.089844 226.804688 747.472656 C 227.277344 747.472656 228.050781 747.5 229.117188 747.542969 C 230.1875 747.59375 231.398438 747.640625 232.75 747.6875 C 234.105469 747.734375 235.519531 747.78125 236.992188 747.832031 C 238.464844 747.878906 239.839844 747.902344 241.125 747.902344 C 243.402344 747.902344 245.8125 747.855469 248.355469 747.757812 C 250.894531 747.664062 253.519531 747.570312 256.226562 747.472656 C 256.085938 748.28125 255.980469 748.945312 255.90625 749.46875 C 255.835938 749.992188 255.800781 750.585938 255.800781 751.25 C 255.800781 752.675781 255.941406 754.125 256.226562 755.59375 C 255.753906 755.121094 255.253906 754.667969 254.730469 754.242188 C 254.207031 753.8125 253.402344 753.460938 252.308594 753.171875 C 251.453125 752.9375 250.386719 752.757812 249.101562 752.640625 C 247.820312 752.519531 246.441406 752.460938 244.972656 752.460938 C 244.304688 752.460938 243.640625 752.472656 242.976562 752.496094 C 242.308594 752.519531 241.644531 752.53125 240.980469 752.53125 C 240.125 752.582031 239.269531 752.628906 238.414062 752.675781 C 237.5625 752.722656 236.730469 752.769531 235.921875 752.816406 C 235.875 753.957031 235.839844 754.917969 235.816406 755.703125 C 235.789062 756.484375 235.769531 757.199219 235.746094 757.839844 C 235.71875 758.480469 235.707031 759.125 235.707031 759.761719 L 235.707031 768.777344 C 237.371094 768.871094 238.699219 768.917969 239.699219 768.917969 C 240.695312 768.917969 241.527344 768.941406 242.191406 768.988281 C 242.949219 769.039062 243.804688 769.0625 244.757812 769.0625 C 245.707031 769.0625 246.773438 769.015625 247.964844 768.917969 C 249.199219 768.871094 250.171875 768.777344 250.882812 768.632812 C 251.597656 768.492188 252.167969 768.328125 252.59375 768.136719 C 253.023438 767.945312 253.355469 767.753906 253.59375 767.566406 C 253.828125 767.375 254.113281 767.164062 254.445312 766.921875 C 254.351562 767.730469 254.257812 768.46875 254.160156 769.132812 C 254.066406 769.796875 254.019531 770.535156 254.019531 771.339844 C 254.019531 772.195312 254.066406 773.015625 254.160156 773.800781 C 254.257812 774.582031 254.351562 775.355469 254.445312 776.113281 C 254.066406 775.925781 253.722656 775.734375 253.414062 775.542969 C 253.105469 775.355469 252.726562 775.1875 252.273438 775.046875 C 251.820312 774.902344 251.285156 774.773438 250.671875 774.652344 C 250.054688 774.535156 249.269531 774.429688 248.320312 774.335938 C 247.273438 774.238281 246.132812 774.179688 244.898438 774.15625 C 243.664062 774.132812 242.761719 774.121094 242.191406 774.121094 L 239.699219 774.121094 C 238.699219 774.121094 237.371094 774.167969 235.707031 774.261719 L 235.707031 782.171875 C 235.707031 784.355469 235.734375 786.253906 235.78125 787.871094 C 235.828125 789.484375 235.898438 790.886719 235.992188 792.074219 C 236.089844 793.261719 236.253906 794.378906 236.492188 795.421875 C 236.636719 796.132812 236.789062 796.695312 236.957031 797.097656 C 237.121094 797.5 237.324219 797.964844 237.5625 798.484375 C 236.65625 798.390625 235.769531 798.308594 234.890625 798.234375 C 234.011719 798.167969 233.121094 798.128906 232.21875 798.128906 C 231.265625 798.128906 230.328125 798.167969 229.402344 798.234375 C 228.476562 798.308594 227.539062 798.390625 226.589844 798.484375 C 227.015625 797.441406 227.339844 796.324219 227.550781 795.136719 C 227.765625 793.953125 227.929688 792.644531 228.050781 791.21875 C 228.167969 789.792969 228.25 788.226562 228.300781 786.515625 C 228.347656 784.804688 228.394531 782.882812 228.441406 780.746094 Z M 228.441406 767.566406 "/>
<path fill-rule="nonzero" fill="rgb(100%, 100%, 100%)" fill-opacity="1" d="M 284.652344 752.035156 C 283.269531 752.035156 282.003906 752.1875 280.859375 752.496094 C 279.714844 752.804688 278.6875 753.199219 277.78125 753.671875 C 275.96875 754.667969 274.5 755.941406 273.378906 757.484375 C 272.257812 759.027344 271.398438 760.703125 270.804688 762.507812 C 270.207031 764.3125 269.8125 766.152344 269.621094 768.027344 C 269.429688 769.90625 269.335938 771.648438 269.335938 773.265625 C 269.335938 777.066406 269.679688 780.128906 270.375 782.457031 C 271.066406 784.78125 271.863281 786.613281 272.773438 787.941406 C 273.914062 789.605469 275.480469 791.066406 277.457031 792.324219 C 279.441406 793.582031 281.863281 794.210938 284.726562 794.210938 C 287.683594 794.210938 290.355469 793.429688 292.742188 791.859375 C 294.507812 790.578125 295.988281 788.914062 297.179688 786.871094 C 298.324219 784.878906 299.101562 782.667969 299.503906 780.246094 C 299.910156 777.824219 300.113281 775.425781 300.113281 773.050781 C 300.113281 772.148438 300.078125 771.140625 300.007812 770.023438 C 299.933594 768.90625 299.804688 767.742188 299.613281 766.53125 C 299.421875 765.320312 299.136719 764.097656 298.753906 762.863281 C 298.371094 761.628906 297.894531 760.464844 297.320312 759.371094 C 296.460938 757.804688 295.484375 756.546875 294.386719 755.597656 C 293.289062 754.644531 292.167969 753.910156 291.023438 753.386719 C 289.878906 752.863281 288.757812 752.507812 287.660156 752.316406 C 286.5625 752.128906 285.558594 752.035156 284.652344 752.035156 M 284.726562 747.1875 C 288.144531 747.1875 291.445312 747.746094 294.628906 748.863281 C 297.808594 749.980469 300.542969 751.820312 302.820312 754.386719 C 305.003906 756.902344 306.5 759.753906 307.308594 762.933594 C 308.117188 766.117188 308.523438 769.371094 308.523438 772.695312 C 308.523438 773.644531 308.472656 774.867188 308.378906 776.363281 C 308.28125 777.859375 308.035156 779.488281 307.628906 781.242188 C 307.226562 783 306.609375 784.804688 305.777344 786.660156 C 304.945312 788.511719 303.792969 790.246094 302.324219 791.859375 C 301.039062 793.332031 299.652344 794.53125 298.15625 795.457031 C 296.660156 796.386719 295.125 797.109375 293.558594 797.632812 C 291.992188 798.152344 290.4375 798.511719 288.894531 798.699219 C 287.347656 798.886719 285.890625 798.984375 284.511719 798.984375 C 283.132812 798.984375 281.757812 798.886719 280.378906 798.699219 C 279 798.511719 277.625 798.199219 276.246094 797.773438 C 272.921875 796.730469 270.070312 794.996094 267.695312 792.570312 C 266.035156 790.863281 264.742188 789.035156 263.816406 787.085938 C 262.886719 785.140625 262.210938 783.25 261.785156 781.421875 C 261.355469 779.59375 261.105469 777.945312 261.035156 776.472656 C 260.964844 775 260.929688 773.882812 260.929688 773.121094 C 260.929688 772.316406 260.976562 771.175781 261.070312 769.703125 C 261.164062 768.230469 261.414062 766.601562 261.820312 764.820312 C 262.222656 763.039062 262.851562 761.214844 263.707031 759.335938 C 264.5625 757.460938 265.773438 755.691406 267.34375 754.027344 C 269.382812 751.84375 271.863281 750.15625 274.785156 748.96875 C 277.707031 747.78125 281.019531 747.1875 284.726562 747.1875 "/>
<path fill-rule="nonzero" fill="rgb(100%, 100%, 100%)" fill-opacity="1" d="M 325.550781 771.980469 C 326.3125 772.078125 326.953125 772.136719 327.480469 772.160156 C 328.003906 772.183594 328.648438 772.195312 329.410156 772.195312 C 330.125 772.195312 330.902344 772.183594 331.738281 772.160156 C 332.570312 772.136719 333.441406 772.042969 334.347656 771.875 C 335.253906 771.710938 336.136719 771.4375 336.996094 771.054688 C 337.851562 770.675781 338.6875 770.152344 339.5 769.488281 C 340.261719 768.824219 340.859375 768.125 341.289062 767.386719 C 341.71875 766.652344 342.039062 765.9375 342.253906 765.25 C 342.46875 764.5625 342.597656 763.929688 342.648438 763.363281 C 342.695312 762.792969 342.71875 762.316406 342.71875 761.9375 C 342.71875 760.179688 342.433594 758.707031 341.859375 757.519531 C 341.289062 756.332031 340.488281 755.371094 339.464844 754.632812 C 338.4375 753.898438 337.246094 753.375 335.886719 753.066406 C 334.527344 752.757812 333.058594 752.601562 331.484375 752.601562 L 325.976562 752.886719 C 325.882812 754.125 325.796875 755.179688 325.726562 756.058594 C 325.65625 756.9375 325.609375 757.769531 325.585938 758.550781 C 325.558594 759.335938 325.550781 760.121094 325.550781 760.902344 Z M 318.28125 762.863281 C 318.28125 760.488281 318.234375 758.445312 318.140625 756.734375 C 318.042969 755.027344 317.902344 753.566406 317.710938 752.355469 C 317.523438 751.144531 317.320312 750.15625 317.105469 749.398438 C 316.890625 748.636719 316.691406 747.996094 316.5 747.472656 C 317.070312 747.570312 317.578125 747.652344 318.03125 747.722656 C 318.480469 747.796875 319.011719 747.84375 319.621094 747.867188 C 320.230469 747.890625 320.972656 747.914062 321.84375 747.9375 C 322.714844 747.960938 323.851562 747.972656 325.265625 747.972656 C 326.359375 747.972656 327.65625 747.949219 329.15625 747.902344 C 330.65625 747.855469 332.265625 747.832031 333.980469 747.832031 C 335.597656 747.832031 337.386719 747.925781 339.339844 748.113281 C 341.289062 748.304688 343.125 748.863281 344.839844 749.789062 C 346.554688 750.714844 347.996094 752.117188 349.160156 753.992188 C 350.328125 755.871094 350.910156 758.515625 350.910156 761.9375 C 350.910156 764.121094 350.507812 766.03125 349.699219 767.671875 C 348.894531 769.308594 347.929688 770.699219 346.816406 771.839844 C 345.699219 772.980469 344.523438 773.882812 343.289062 774.546875 C 342.054688 775.210938 341.007812 775.640625 340.152344 775.832031 L 347.421875 787.300781 C 348.371094 788.820312 349.203125 790.128906 349.914062 791.21875 C 350.628906 792.3125 351.292969 793.285156 351.910156 794.140625 C 352.527344 794.996094 353.144531 795.753906 353.761719 796.417969 C 354.378906 797.085938 355.089844 797.773438 355.898438 798.484375 C 355.042969 798.390625 354.226562 798.308594 353.441406 798.234375 C 352.65625 798.167969 351.839844 798.128906 350.984375 798.128906 C 349.886719 798.128906 348.910156 798.167969 348.054688 798.234375 C 347.195312 798.308594 346.078125 798.390625 344.695312 798.484375 C 343.933594 796.730469 343.101562 795.007812 342.195312 793.320312 C 341.289062 791.636719 340.363281 789.960938 339.410156 788.296875 C 338.3125 786.398438 337.382812 784.855469 336.621094 783.667969 C 335.859375 782.480469 335.207031 781.480469 334.65625 780.675781 C 334.109375 779.867188 333.621094 779.203125 333.195312 778.679688 C 332.765625 778.15625 332.3125 777.609375 331.835938 777.042969 L 325.621094 776.898438 L 325.621094 784.238281 C 325.667969 786.800781 325.742188 788.820312 325.839844 790.292969 C 325.9375 791.765625 326.085938 793.09375 326.28125 794.28125 C 326.480469 795.421875 326.699219 796.277344 326.945312 796.847656 C 327.191406 797.417969 327.464844 797.964844 327.757812 798.484375 C 326.808594 798.390625 325.84375 798.320312 324.871094 798.273438 C 323.898438 798.222656 322.9375 798.203125 321.984375 798.203125 C 321.035156 798.203125 320.085938 798.222656 319.136719 798.273438 C 318.1875 798.320312 317.234375 798.390625 316.285156 798.484375 C 316.570312 798.058594 316.832031 797.59375 317.070312 797.097656 C 317.308594 796.597656 317.523438 795.730469 317.710938 794.496094 C 317.949219 792.882812 318.089844 790.566406 318.140625 787.550781 C 318.1875 784.535156 318.234375 780.582031 318.28125 775.6875 Z M 318.28125 762.863281 "/>
<path fill-rule="nonzero" fill="rgb(100%, 100%, 100%)" fill-opacity="1" d="M 405.058594 765.140625 C 404.773438 764.097656 404.511719 763.171875 404.273438 762.363281 C 404.035156 761.558594 403.8125 760.773438 403.597656 760.011719 C 403.382812 759.253906 403.179688 758.457031 402.992188 757.625 C 402.800781 756.796875 402.566406 755.808594 402.28125 754.667969 C 402.183594 754.148438 402.078125 753.660156 401.957031 753.207031 C 401.839844 752.757812 401.734375 752.292969 401.636719 751.820312 L 393.230469 777.398438 C 394.511719 777.492188 395.808594 777.5625 397.113281 777.609375 C 398.417969 777.660156 399.738281 777.683594 401.066406 777.683594 C 402.351562 777.683594 403.644531 777.660156 404.953125 777.609375 C 406.257812 777.5625 407.550781 777.492188 408.832031 777.398438 Z M 392.804688 759.015625 C 393.375 757.304688 393.847656 755.871094 394.230469 754.703125 C 394.609375 753.542969 394.90625 752.542969 395.121094 751.710938 C 395.332031 750.882812 395.511719 750.160156 395.652344 749.539062 C 395.796875 748.921875 395.914062 748.28125 396.007812 747.617188 C 397.007812 747.710938 398.003906 747.804688 399 747.902344 C 400 747.996094 400.996094 748.042969 401.996094 748.042969 C 402.945312 748.042969 403.90625 747.996094 404.878906 747.902344 C 405.851562 747.804688 406.816406 747.710938 407.765625 747.617188 C 408.050781 749.039062 408.324219 750.300781 408.585938 751.390625 C 408.84375 752.484375 409.117188 753.578125 409.402344 754.667969 C 409.6875 755.761719 410.03125 756.925781 410.4375 758.160156 C 410.839844 759.394531 411.328125 760.867188 411.898438 762.578125 L 418.308594 781.886719 C 418.832031 783.261719 419.402344 784.890625 420.019531 786.765625 C 420.636719 788.640625 421.207031 790.269531 421.730469 791.644531 C 422.15625 792.882812 422.535156 793.867188 422.871094 794.601562 C 423.203125 795.339844 423.5 795.957031 423.757812 796.457031 C 424.019531 796.953125 424.28125 797.347656 424.542969 797.628906 C 424.804688 797.914062 425.078125 798.203125 425.363281 798.484375 C 424.410156 798.34375 423.441406 798.222656 422.441406 798.128906 C 421.445312 798.035156 420.46875 797.988281 419.519531 797.988281 C 418.570312 797.988281 417.632812 798.035156 416.707031 798.128906 C 415.78125 798.222656 414.839844 798.34375 413.894531 798.484375 C 413.9375 798.246094 413.988281 797.976562 414.035156 797.667969 C 414.082031 797.359375 414.105469 797.039062 414.105469 796.703125 C 414.105469 796.039062 413.964844 795.148438 413.679688 794.035156 C 413.394531 792.917969 413.0625 791.671875 412.679688 790.292969 L 410.542969 783.308594 C 407.457031 783.023438 404.390625 782.882812 401.351562 782.882812 C 399.691406 782.882812 398.039062 782.929688 396.402344 783.023438 C 394.761719 783.121094 393.113281 783.214844 391.449219 783.308594 L 389.667969 789.367188 C 389.242188 790.933594 388.910156 792.179688 388.671875 793.105469 C 388.433594 794.035156 388.242188 794.757812 388.101562 795.28125 C 387.957031 795.804688 387.875 796.195312 387.851562 796.457031 C 387.828125 796.714844 387.816406 796.964844 387.816406 797.203125 L 387.816406 797.773438 C 387.816406 797.914062 387.839844 798.175781 387.886719 798.558594 C 387.078125 798.460938 386.257812 798.367188 385.429688 798.273438 C 384.597656 798.175781 383.753906 798.128906 382.902344 798.128906 C 382.09375 798.128906 381.261719 798.175781 380.40625 798.273438 C 379.550781 798.367188 378.71875 798.460938 377.914062 798.558594 C 378.625 797.417969 379.21875 796.417969 379.695312 795.566406 C 380.167969 794.710938 380.644531 793.738281 381.121094 792.644531 C 381.59375 791.550781 382.117188 790.234375 382.6875 788.6875 C 383.257812 787.144531 383.96875 785.140625 384.824219 782.667969 Z M 392.804688 759.015625 "/>
<path fill-rule="nonzero" fill="rgb(100%, 100%, 100%)" fill-opacity="1" d="M 432.273438 765.785156 C 432.273438 763.644531 432.246094 761.6875 432.203125 759.90625 C 432.152344 758.125 432.082031 756.355469 431.988281 754.597656 C 431.890625 753.601562 431.808594 752.757812 431.738281 752.070312 C 431.667969 751.382812 431.570312 750.773438 431.453125 750.253906 C 431.335938 749.730469 431.203125 749.253906 431.0625 748.828125 C 430.917969 748.398438 430.753906 747.949219 430.5625 747.472656 C 430.707031 747.519531 430.988281 747.570312 431.417969 747.617188 C 431.84375 747.664062 432.324219 747.710938 432.851562 747.757812 C 433.378906 747.804688 433.929688 747.84375 434.503906 747.867188 C 435.078125 747.890625 435.609375 747.902344 436.089844 747.902344 C 437.09375 747.902344 438.0625 747.855469 438.996094 747.757812 C 439.929688 747.664062 440.847656 747.570312 441.75 747.472656 C 441.605469 747.757812 441.464844 748.078125 441.320312 748.433594 C 441.179688 748.792969 441.023438 749.316406 440.859375 750.003906 C 440.691406 750.691406 440.523438 751.617188 440.359375 752.78125 C 440.191406 753.945312 440.050781 755.429688 439.933594 757.234375 C 439.8125 759.039062 439.71875 761.25 439.648438 763.859375 C 439.574219 766.472656 439.539062 769.609375 439.539062 773.265625 C 439.539062 775.78125 439.550781 777.929688 439.574219 779.714844 C 439.597656 781.492188 439.632812 783.097656 439.683594 784.519531 C 439.730469 785.945312 439.789062 787.265625 439.859375 788.476562 C 439.933594 789.6875 440.015625 790.957031 440.109375 792.289062 C 441.34375 792.527344 442.613281 792.726562 443.921875 792.894531 C 445.226562 793.058594 446.949219 793.140625 449.085938 793.140625 C 451.222656 793.140625 452.96875 793.046875 454.324219 792.855469 C 455.675781 792.667969 456.804688 792.417969 457.707031 792.109375 C 458.609375 791.800781 459.347656 791.433594 459.914062 791.003906 C 460.484375 790.578125 461.03125 790.125 461.554688 789.652344 C 461.363281 790.648438 461.210938 791.492188 461.09375 792.179688 C 460.972656 792.871094 460.867188 793.523438 460.769531 794.140625 C 460.675781 794.757812 460.59375 795.398438 460.523438 796.0625 C 460.449219 796.730469 460.367188 797.511719 460.273438 798.414062 C 459.085938 798.367188 458.039062 798.320312 457.136719 798.273438 C 456.234375 798.222656 455.273438 798.179688 454.253906 798.128906 C 453.230469 798.082031 452.042969 798.058594 450.691406 798.058594 L 440.101562 798.058594 C 438.671875 798.058594 437.417969 798.082031 436.339844 798.128906 C 435.257812 798.179688 434.238281 798.222656 433.28125 798.273438 C 432.324219 798.320312 431.25 798.367188 430.0625 798.414062 C 430.445312 797.703125 430.753906 797.039062 430.988281 796.417969 C 431.226562 795.804688 431.417969 794.972656 431.558594 793.925781 C 431.703125 793.023438 431.820312 791.917969 431.917969 790.613281 C 432.011719 789.308594 432.082031 787.953125 432.128906 786.554688 C 432.175781 785.152344 432.210938 783.761719 432.238281 782.386719 C 432.261719 781.007812 432.273438 779.796875 432.273438 778.75 Z M 432.273438 765.785156 "/>
<path fill-rule="nonzero" fill="rgb(100%, 100%, 100%)" fill-opacity="1" d="M 468.894531 765.785156 C 468.894531 763.644531 468.867188 761.6875 468.824219 759.90625 C 468.773438 758.125 468.703125 756.355469 468.609375 754.597656 C 468.511719 753.601562 468.429688 752.757812 468.359375 752.070312 C 468.289062 751.382812 468.191406 750.773438 468.074219 750.253906 C 467.957031 749.730469 467.824219 749.253906 467.683594 748.828125 C 467.539062 748.398438 467.371094 747.949219 467.183594 747.472656 C 467.328125 747.519531 467.609375 747.570312 468.039062 747.617188 C 468.464844 747.664062 468.945312 747.710938 469.472656 747.757812 C 470 747.804688 470.550781 747.84375 471.125 747.867188 C 471.699219 747.890625 472.230469 747.902344 472.707031 747.902344 C 473.714844 747.902344 474.683594 747.855469 475.617188 747.757812 C 476.546875 747.664062 477.464844 747.570312 478.371094 747.472656 C 478.226562 747.757812 478.082031 748.078125 477.941406 748.433594 C 477.800781 748.792969 477.644531 749.316406 477.480469 750.003906 C 477.3125 750.691406 477.144531 751.617188 476.980469 752.78125 C 476.8125 753.945312 476.671875 755.429688 476.550781 757.234375 C 476.433594 759.039062 476.339844 761.25 476.269531 763.859375 C 476.195312 766.472656 476.160156 769.609375 476.160156 773.265625 C 476.160156 775.78125 476.171875 777.929688 476.195312 779.714844 C 476.21875 781.492188 476.253906 783.097656 476.300781 784.519531 C 476.347656 785.945312 476.410156 787.265625 476.480469 788.476562 C 476.550781 789.6875 476.632812 790.957031 476.730469 792.289062 C 477.964844 792.527344 479.234375 792.726562 480.542969 792.894531 C 481.847656 793.058594 483.570312 793.140625 485.707031 793.140625 C 487.84375 793.140625 489.589844 793.046875 490.945312 792.855469 C 492.296875 792.667969 493.425781 792.417969 494.328125 792.109375 C 495.230469 791.800781 495.964844 791.433594 496.535156 791.003906 C 497.105469 790.578125 497.652344 790.125 498.175781 789.652344 C 497.984375 790.648438 497.832031 791.492188 497.710938 792.179688 C 497.59375 792.871094 497.488281 793.523438 497.390625 794.140625 C 497.296875 794.757812 497.214844 795.398438 497.144531 796.0625 C 497.070312 796.730469 496.988281 797.511719 496.894531 798.414062 C 495.707031 798.367188 494.660156 798.320312 493.757812 798.273438 C 492.855469 798.222656 491.894531 798.179688 490.871094 798.128906 C 489.851562 798.082031 488.664062 798.058594 487.3125 798.058594 L 476.722656 798.058594 C 475.292969 798.058594 474.039062 798.082031 472.957031 798.128906 C 471.878906 798.179688 470.859375 798.222656 469.902344 798.273438 C 468.945312 798.320312 467.871094 798.367188 466.683594 798.414062 C 467.066406 797.703125 467.371094 797.039062 467.609375 796.417969 C 467.847656 795.804688 468.039062 794.972656 468.179688 793.925781 C 468.324219 793.023438 468.441406 791.917969 468.539062 790.613281 C 468.632812 789.308594 468.703125 787.953125 468.75 786.554688 C 468.796875 785.152344 468.832031 783.761719 468.859375 782.386719 C 468.882812 781.007812 468.894531 779.796875 468.894531 778.75 Z M 468.894531 765.785156 "/>
<path fill-rule="nonzero" fill="rgb(100%, 100%, 100%)" fill-opacity="1" d="M 524.25 773.40625 C 524.25 764.859375 526.425781 758.351562 530.769531 753.886719 C 535.117188 749.421875 541.609375 747.1875 550.257812 747.1875 C 552.15625 747.1875 554.160156 747.285156 556.277344 747.472656 C 558.390625 747.664062 560.847656 748.28125 563.648438 749.324219 C 563.269531 750.136719 562.949219 750.820312 562.6875 751.390625 C 562.425781 751.964844 562.214844 752.507812 562.046875 753.03125 C 561.878906 753.554688 561.738281 754.097656 561.621094 754.671875 C 561.5 755.238281 561.371094 755.929688 561.226562 756.734375 C 560.753906 756.117188 560.265625 755.523438 559.769531 754.953125 C 559.269531 754.386719 558.566406 753.839844 557.664062 753.316406 C 556.761719 752.792969 555.65625 752.390625 554.351562 752.105469 C 553.046875 751.820312 551.679688 751.679688 550.257812 751.679688 C 547.453125 751.679688 544.898438 752.222656 542.597656 753.316406 C 540.292969 754.410156 538.453125 755.785156 537.074219 757.449219 C 536.316406 758.351562 535.660156 759.386719 535.117188 760.546875 C 534.570312 761.710938 534.117188 762.945312 533.761719 764.253906 C 533.40625 765.558594 533.132812 766.898438 532.941406 768.277344 C 532.753906 769.65625 532.65625 771.03125 532.65625 772.410156 C 532.65625 775.640625 533.132812 778.703125 534.082031 781.601562 C 535.03125 784.5 536.410156 786.898438 538.214844 788.796875 C 539.972656 790.648438 542.027344 792.003906 544.378906 792.855469 C 546.730469 793.714844 549.1875 794.140625 551.753906 794.140625 C 553.507812 794.140625 555.039062 793.996094 556.347656 793.714844 C 557.652344 793.429688 558.769531 793.085938 559.695312 792.679688 C 560.621094 792.277344 561.40625 791.847656 562.046875 791.398438 C 562.6875 790.945312 563.222656 790.554688 563.648438 790.222656 C 563.410156 790.980469 563.210938 791.636719 563.046875 792.179688 C 562.878906 792.726562 562.734375 793.273438 562.617188 793.820312 C 562.496094 794.367188 562.390625 794.925781 562.296875 795.492188 C 562.199219 796.0625 562.082031 796.777344 561.941406 797.632812 C 560.941406 797.867188 559.507812 798.128906 557.628906 798.414062 C 555.753906 798.699219 553.367188 798.84375 550.46875 798.84375 C 549.757812 798.84375 548.664062 798.804688 547.191406 798.734375 C 545.71875 798.664062 544.070312 798.414062 542.242188 797.988281 C 540.410156 797.558594 538.5 796.871094 536.503906 795.921875 C 534.511719 794.972656 532.664062 793.640625 530.964844 791.929688 C 528.515625 789.367188 526.78125 786.457031 525.769531 783.203125 C 524.757812 779.949219 524.25 776.683594 524.25 773.40625 "/>
<path fill-rule="nonzero" fill="rgb(100%, 100%, 100%)" fill-opacity="1" d="M 571.128906 768.632812 C 571.082031 765.738281 571.03125 763.089844 570.984375 760.691406 C 570.9375 758.292969 570.84375 756.164062 570.703125 754.3125 C 570.605469 753.222656 570.5 752.308594 570.382812 751.570312 C 570.261719 750.835938 570.144531 750.214844 570.023438 749.71875 C 569.90625 749.21875 569.785156 748.804688 569.667969 748.472656 C 569.550781 748.140625 569.417969 747.828125 569.277344 747.542969 C 570.226562 747.640625 571.152344 747.734375 572.054688 747.828125 C 572.957031 747.925781 573.882812 747.972656 574.835938 747.972656 C 575.78125 747.972656 576.722656 747.925781 577.648438 747.828125 C 578.574219 747.734375 579.488281 747.640625 580.390625 747.542969 C 580.105469 748.164062 579.84375 748.78125 579.609375 749.398438 C 579.367188 750.015625 579.15625 750.941406 578.964844 752.175781 C 578.824219 753.078125 578.71875 754.113281 578.644531 755.277344 C 578.574219 756.441406 578.527344 757.601562 578.503906 758.765625 C 578.480469 759.929688 578.453125 761.058594 578.433594 762.152344 C 578.40625 763.242188 578.398438 764.195312 578.398438 765 L 578.398438 768.5625 C 580.4375 768.65625 582.457031 768.730469 584.453125 768.777344 C 586.445312 768.824219 588.464844 768.847656 590.507812 768.847656 C 592.503906 768.847656 594.425781 768.824219 596.277344 768.777344 C 598.132812 768.730469 600.171875 768.65625 602.40625 768.5625 L 602.40625 764.359375 C 602.359375 762.839844 602.335938 761.4375 602.335938 760.15625 C 602.335938 758.871094 602.285156 757.613281 602.191406 756.378906 C 602.097656 755.003906 602.003906 753.851562 601.90625 752.921875 C 601.8125 751.996094 601.691406 751.214844 601.550781 750.574219 C 601.410156 749.929688 601.265625 749.386719 601.125 748.933594 C 600.980469 748.484375 600.816406 748.019531 600.625 747.542969 C 601.574219 747.640625 602.5 747.734375 603.402344 747.828125 C 604.304688 747.925781 605.230469 747.972656 606.183594 747.972656 C 607.085938 747.972656 607.976562 747.925781 608.855469 747.828125 C 609.734375 747.734375 610.648438 747.640625 611.597656 747.542969 C 611.359375 748.257812 611.15625 748.945312 610.992188 749.613281 C 610.824219 750.277344 610.671875 751.179688 610.527344 752.320312 C 610.386719 753.363281 610.265625 754.539062 610.171875 755.84375 C 610.074219 757.152344 609.992188 758.53125 609.921875 759.976562 C 609.851562 761.425781 609.789062 762.886719 609.742188 764.359375 C 609.695312 765.832031 609.648438 767.257812 609.601562 768.632812 L 609.601562 774.40625 C 609.601562 777.824219 609.613281 781.007812 609.636719 783.953125 C 609.660156 786.898438 609.769531 789.53125 609.957031 791.859375 C 610.054688 792.90625 610.160156 793.773438 610.277344 794.460938 C 610.398438 795.148438 610.515625 795.742188 610.636719 796.242188 C 610.753906 796.738281 610.894531 797.15625 611.0625 797.488281 C 611.230469 797.820312 611.382812 798.15625 611.523438 798.488281 C 610.574219 798.390625 609.660156 798.296875 608.78125 798.199219 C 607.902344 798.105469 606.988281 798.058594 606.039062 798.058594 C 605.089844 798.058594 604.152344 798.105469 603.226562 798.199219 C 602.300781 798.296875 601.359375 798.390625 600.410156 798.488281 C 600.742188 797.535156 601.027344 796.527344 601.265625 795.457031 C 601.503906 794.390625 601.683594 793.167969 601.800781 791.789062 C 601.917969 790.410156 602.015625 788.855469 602.085938 787.121094 C 602.15625 785.386719 602.238281 783.40625 602.335938 781.171875 L 602.335938 774.40625 C 600.195312 774.308594 598.179688 774.226562 596.277344 774.15625 C 594.378906 774.082031 592.480469 774.046875 590.578125 774.046875 C 588.535156 774.046875 586.507812 774.082031 584.488281 774.15625 C 582.46875 774.226562 580.4375 774.308594 578.398438 774.40625 L 578.398438 781.101562 C 578.398438 784.476562 578.453125 787.183594 578.574219 789.222656 C 578.691406 791.265625 578.835938 792.882812 579.003906 794.070312 C 579.167969 795.257812 579.359375 796.148438 579.570312 796.738281 C 579.785156 797.335938 580.035156 797.914062 580.320312 798.488281 C 579.417969 798.390625 578.492188 798.296875 577.539062 798.199219 C 576.589844 798.105469 575.640625 798.058594 574.691406 798.058594 C 573.742188 798.058594 572.789062 798.105469 571.84375 798.199219 C 570.890625 798.296875 569.941406 798.390625 568.992188 798.488281 C 569.230469 798.011719 569.441406 797.558594 569.632812 797.132812 C 569.820312 796.703125 569.988281 796.21875 570.132812 795.671875 C 570.273438 795.125 570.382812 794.496094 570.453125 793.785156 C 570.523438 793.070312 570.605469 792.167969 570.703125 791.074219 C 570.9375 787.796875 571.070312 784.867188 571.09375 782.277344 C 571.117188 779.691406 571.128906 777.066406 571.128906 774.40625 Z M 571.128906 768.632812 "/>
<path fill-rule="nonzero" fill="rgb(100%, 100%, 100%)" fill-opacity="1" d="M 622.851562 766.636719 C 622.757812 763.929688 622.6875 761.785156 622.636719 760.191406 C 622.589844 758.601562 622.554688 757.320312 622.53125 756.34375 C 622.507812 755.371094 622.460938 754.621094 622.390625 754.097656 C 622.320312 753.578125 622.257812 753.054688 622.210938 752.53125 C 622.023438 751.058594 621.832031 750.015625 621.640625 749.398438 C 621.453125 748.78125 621.214844 748.140625 620.929688 747.472656 C 621.878906 747.570312 622.804688 747.664062 623.707031 747.757812 C 624.609375 747.855469 625.535156 747.902344 626.488281 747.902344 C 627.4375 747.902344 628.363281 747.855469 629.265625 747.757812 C 630.167969 747.664062 631.09375 747.570312 632.042969 747.472656 C 631.617188 748.472656 631.269531 749.398438 631.011719 750.253906 C 630.75 751.105469 630.546875 752.1875 630.40625 753.492188 C 630.261719 754.800781 630.167969 756.460938 630.121094 758.480469 C 630.074219 760.5 630.023438 763.195312 629.976562 766.570312 L 629.976562 776.578125 C 629.976562 778.027344 629.988281 779.453125 630.011719 780.851562 C 630.035156 782.253906 630.074219 783.667969 630.121094 785.089844 C 630.167969 786.515625 630.214844 788.035156 630.261719 789.652344 C 630.308594 790.980469 630.371094 792.0625 630.441406 792.894531 C 630.511719 793.722656 630.605469 794.449219 630.726562 795.066406 C 630.84375 795.683594 631.011719 796.253906 631.222656 796.777344 C 631.4375 797.300781 631.6875 797.867188 631.972656 798.488281 C 631.023438 798.34375 630.09375 798.222656 629.195312 798.128906 C 628.289062 798.035156 627.363281 797.988281 626.414062 797.988281 C 625.464844 797.988281 624.539062 798.035156 623.636719 798.128906 C 622.734375 798.222656 621.808594 798.34375 620.859375 798.488281 C 621.046875 798.058594 621.226562 797.628906 621.394531 797.203125 C 621.558594 796.777344 621.710938 796.242188 621.855469 795.601562 C 622 794.960938 622.117188 794.164062 622.210938 793.214844 C 622.304688 792.265625 622.402344 791.074219 622.496094 789.652344 C 622.636719 786.515625 622.734375 783.59375 622.78125 780.886719 C 622.828125 778.179688 622.851562 775.210938 622.851562 771.980469 Z M 622.851562 766.636719 "/>
<path fill-rule="nonzero" fill="rgb(100%, 100%, 100%)" fill-opacity="1" d="M 642.800781 765.785156 C 642.800781 763.644531 642.777344 761.6875 642.730469 759.90625 C 642.683594 758.125 642.609375 756.355469 642.515625 754.597656 C 642.417969 753.601562 642.335938 752.757812 642.265625 752.070312 C 642.195312 751.382812 642.101562 750.773438 641.980469 750.253906 C 641.863281 749.730469 641.734375 749.253906 641.589844 748.828125 C 641.445312 748.398438 641.28125 747.949219 641.089844 747.472656 C 641.234375 747.519531 641.519531 747.570312 641.945312 747.617188 C 642.375 747.664062 642.851562 747.710938 643.378906 747.757812 C 643.90625 747.804688 644.457031 747.84375 645.03125 747.867188 C 645.609375 747.890625 646.136719 747.902344 646.617188 747.902344 C 647.621094 747.902344 648.59375 747.855469 649.527344 747.757812 C 650.457031 747.664062 651.375 747.570312 652.277344 747.472656 C 652.136719 747.757812 651.992188 748.078125 651.851562 748.433594 C 651.707031 748.792969 651.550781 749.316406 651.386719 750.003906 C 651.21875 750.691406 651.054688 751.617188 650.886719 752.78125 C 650.722656 753.945312 650.578125 755.429688 650.460938 757.234375 C 650.339844 759.039062 650.246094 761.25 650.175781 763.859375 C 650.105469 766.472656 650.070312 769.609375 650.070312 773.265625 C 650.070312 775.78125 650.078125 777.929688 650.105469 779.714844 C 650.125 781.492188 650.164062 783.097656 650.210938 784.519531 C 650.257812 785.945312 650.316406 787.265625 650.390625 788.476562 C 650.460938 789.6875 650.542969 790.957031 650.636719 792.289062 C 651.871094 792.527344 653.144531 792.726562 654.449219 792.894531 C 655.753906 793.058594 657.476562 793.140625 659.613281 793.140625 C 661.753906 793.140625 663.496094 793.046875 664.851562 792.855469 C 666.203125 792.667969 667.332031 792.417969 668.238281 792.109375 C 669.136719 791.800781 669.875 791.433594 670.445312 791.003906 C 671.015625 790.578125 671.558594 790.125 672.082031 789.652344 C 671.894531 790.648438 671.738281 791.492188 671.621094 792.179688 C 671.5 792.871094 671.394531 793.523438 671.300781 794.140625 C 671.203125 794.757812 671.121094 795.398438 671.050781 796.0625 C 670.980469 796.730469 670.894531 797.511719 670.800781 798.414062 C 669.613281 798.367188 668.566406 798.320312 667.664062 798.273438 C 666.761719 798.222656 665.800781 798.179688 664.78125 798.128906 C 663.757812 798.082031 662.570312 798.058594 661.21875 798.058594 L 650.628906 798.058594 C 649.199219 798.058594 647.945312 798.082031 646.867188 798.128906 C 645.785156 798.179688 644.769531 798.222656 643.8125 798.273438 C 642.851562 798.320312 641.78125 798.367188 640.59375 798.414062 C 640.972656 797.703125 641.28125 797.039062 641.519531 796.417969 C 641.753906 795.804688 641.945312 794.972656 642.089844 793.925781 C 642.230469 793.023438 642.347656 791.917969 642.445312 790.613281 C 642.539062 789.308594 642.609375 787.953125 642.65625 786.554688 C 642.703125 785.152344 642.742188 783.761719 642.765625 782.386719 C 642.789062 781.007812 642.800781 779.796875 642.800781 778.75 Z M 642.800781 765.785156 "/>
<path fill-rule="nonzero" fill="rgb(100%, 100%, 100%)" fill-opacity="1" d="M 686.6875 788.652344 C 686.6875 789.320312 686.734375 789.949219 686.832031 790.542969 C 686.925781 791.136719 687.210938 791.660156 687.683594 792.109375 C 688.160156 792.5625 688.882812 792.917969 689.859375 793.179688 C 690.832031 793.4375 692.21875 793.570312 694.027344 793.570312 C 694.597656 793.570312 695.355469 793.546875 696.304688 793.5 C 697.253906 793.453125 698.289062 793.332031 699.40625 793.140625 C 700.523438 792.953125 701.671875 792.679688 702.863281 792.324219 C 704.046875 791.96875 705.140625 791.480469 706.136719 790.863281 C 707.945312 789.769531 709.367188 788.40625 710.414062 786.765625 C 711.457031 785.128906 712.242188 783.429688 712.765625 781.671875 C 713.285156 779.914062 713.609375 778.207031 713.726562 776.542969 C 713.84375 774.878906 713.90625 773.476562 713.90625 772.339844 C 713.90625 771.007812 713.832031 769.621094 713.691406 768.171875 C 713.546875 766.722656 713.261719 765.273438 712.835938 763.824219 C 712.410156 762.378906 711.789062 760.972656 710.984375 759.621094 C 710.175781 758.265625 709.082031 757.046875 707.707031 755.953125 C 706.613281 755.097656 705.484375 754.433594 704.320312 753.957031 C 703.15625 753.484375 702.042969 753.128906 700.972656 752.886719 C 699.90625 752.652344 698.917969 752.507812 698.015625 752.460938 C 697.113281 752.414062 696.378906 752.390625 695.808594 752.390625 C 694.144531 752.390625 692.503906 752.484375 690.890625 752.675781 C 689.277344 752.863281 687.996094 753.007812 687.042969 753.101562 C 686.996094 753.910156 686.949219 754.929688 686.902344 756.167969 C 686.855469 757.402344 686.820312 758.71875 686.792969 760.121094 C 686.769531 761.519531 686.746094 762.960938 686.722656 764.429688 C 686.699219 765.902344 686.6875 767.304688 686.6875 768.632812 Z M 679.421875 769.917969 C 679.421875 767.160156 679.398438 764.785156 679.347656 762.792969 C 679.300781 760.796875 679.253906 759.085938 679.207031 757.660156 C 679.160156 756.238281 679.089844 755.050781 678.996094 754.097656 C 678.898438 753.148438 678.78125 752.308594 678.636719 751.570312 C 678.496094 750.835938 678.339844 750.15625 678.175781 749.539062 C 678.007812 748.925781 677.804688 748.257812 677.570312 747.546875 C 677.804688 747.59375 678.21875 747.652344 678.816406 747.722656 C 679.410156 747.796875 680.074219 747.867188 680.808594 747.9375 C 681.546875 748.007812 682.304688 748.066406 683.089844 748.113281 C 683.875 748.164062 684.597656 748.1875 685.261719 748.1875 C 686.402344 748.1875 687.484375 748.148438 688.503906 748.078125 C 689.527344 748.007812 690.546875 747.9375 691.570312 747.867188 C 692.589844 747.796875 693.660156 747.722656 694.773438 747.652344 C 695.890625 747.582031 697.113281 747.546875 698.445312 747.546875 C 700.199219 747.546875 702.125 747.652344 704.214844 747.867188 C 706.304688 748.078125 708.347656 748.578125 710.339844 749.363281 C 712.335938 750.144531 714.199219 751.296875 715.933594 752.816406 C 717.667969 754.339844 719.082031 756.425781 720.171875 759.085938 C 720.601562 760.179688 720.957031 761.320312 721.242188 762.507812 C 721.527344 763.695312 721.742188 764.871094 721.882812 766.03125 C 722.027344 767.199219 722.132812 768.300781 722.203125 769.347656 C 722.277344 770.390625 722.3125 771.34375 722.3125 772.195312 C 722.3125 775.804688 721.777344 779.332031 720.707031 782.777344 C 719.640625 786.21875 717.824219 789.222656 715.257812 791.789062 C 713.738281 793.308594 712.0625 794.507812 710.234375 795.386719 C 708.40625 796.265625 706.542969 796.929688 704.640625 797.382812 C 702.742188 797.835938 700.875 798.117188 699.050781 798.234375 C 697.21875 798.355469 695.546875 798.414062 694.027344 798.414062 C 691.839844 798.414062 689.894531 798.367188 688.183594 798.273438 C 686.472656 798.175781 684.929688 798.128906 683.554688 798.128906 C 682.035156 798.128906 680.835938 798.167969 679.957031 798.234375 C 679.078125 798.308594 678.183594 798.367188 677.285156 798.414062 C 677.425781 798.222656 677.605469 797.964844 677.820312 797.632812 C 678.03125 797.300781 678.21875 796.738281 678.386719 795.957031 C 678.554688 795.171875 678.710938 794.117188 678.851562 792.785156 C 678.996094 791.457031 679.113281 789.699219 679.207031 787.515625 C 679.300781 785.378906 679.347656 783.644531 679.347656 782.3125 C 679.347656 780.984375 679.375 779.722656 679.421875 778.535156 Z M 679.421875 769.917969 "/>
<path fill-rule="nonzero" fill="rgb(100%, 100%, 100%)" fill-opacity="1" d="M 739.550781 771.980469 C 740.316406 772.078125 740.957031 772.136719 741.484375 772.160156 C 742.007812 772.183594 742.652344 772.195312 743.414062 772.195312 C 744.128906 772.195312 744.90625 772.183594 745.738281 772.160156 C 746.574219 772.136719 747.445312 772.042969 748.351562 771.875 C 749.257812 771.710938 750.140625 771.4375 750.996094 771.054688 C 751.855469 770.675781 752.691406 770.152344 753.503906 769.488281 C 754.265625 768.824219 754.859375 768.125 755.289062 767.386719 C 755.71875 766.652344 756.042969 765.9375 756.257812 765.25 C 756.472656 764.5625 756.601562 763.929688 756.648438 763.363281 C 756.699219 762.792969 756.722656 762.316406 756.722656 761.9375 C 756.722656 760.179688 756.433594 758.707031 755.863281 757.519531 C 755.289062 756.332031 754.492188 755.371094 753.464844 754.632812 C 752.441406 753.898438 751.246094 753.375 749.890625 753.066406 C 748.527344 752.757812 747.0625 752.601562 745.488281 752.601562 L 739.980469 752.886719 C 739.882812 754.125 739.800781 755.179688 739.730469 756.058594 C 739.65625 756.9375 739.609375 757.769531 739.585938 758.550781 C 739.5625 759.335938 739.550781 760.121094 739.550781 760.902344 Z M 732.285156 762.863281 C 732.285156 760.488281 732.238281 758.445312 732.140625 756.734375 C 732.046875 755.027344 731.902344 753.566406 731.714844 752.355469 C 731.523438 751.144531 731.324219 750.15625 731.109375 749.398438 C 730.894531 748.636719 730.691406 747.996094 730.503906 747.472656 C 731.074219 747.570312 731.582031 747.652344 732.03125 747.722656 C 732.484375 747.796875 733.011719 747.84375 733.625 747.867188 C 734.234375 747.890625 734.976562 747.914062 735.847656 747.9375 C 736.714844 747.960938 737.855469 747.972656 739.265625 747.972656 C 740.363281 747.972656 741.660156 747.949219 743.160156 747.902344 C 744.660156 747.855469 746.269531 747.832031 747.984375 747.832031 C 749.601562 747.832031 751.390625 747.925781 753.339844 748.113281 C 755.292969 748.304688 757.125 748.863281 758.84375 749.789062 C 760.554688 750.714844 761.996094 752.117188 763.164062 753.992188 C 764.332031 755.871094 764.914062 758.515625 764.914062 761.9375 C 764.914062 764.121094 764.511719 766.03125 763.703125 767.671875 C 762.894531 769.308594 761.933594 770.699219 760.820312 771.839844 C 759.703125 772.980469 758.527344 773.882812 757.292969 774.546875 C 756.058594 775.210938 755.011719 775.640625 754.15625 775.832031 L 761.421875 787.300781 C 762.375 788.820312 763.203125 790.128906 763.917969 791.21875 C 764.628906 792.3125 765.292969 793.285156 765.914062 794.140625 C 766.53125 794.996094 767.148438 795.753906 767.765625 796.417969 C 768.382812 797.085938 769.09375 797.773438 769.902344 798.484375 C 769.046875 798.390625 768.230469 798.308594 767.445312 798.234375 C 766.660156 798.167969 765.84375 798.128906 764.988281 798.128906 C 763.890625 798.128906 762.914062 798.167969 762.058594 798.234375 C 761.199219 798.308594 760.078125 798.390625 758.699219 798.484375 C 757.9375 796.730469 757.101562 795.007812 756.199219 793.320312 C 755.292969 791.636719 754.363281 789.960938 753.410156 788.296875 C 752.316406 786.398438 751.386719 784.855469 750.625 783.667969 C 749.863281 782.480469 749.207031 781.480469 748.660156 780.675781 C 748.113281 779.867188 747.625 779.203125 747.195312 778.679688 C 746.765625 778.15625 746.316406 777.609375 745.839844 777.042969 L 739.621094 776.898438 L 739.621094 784.238281 C 739.671875 786.800781 739.746094 788.820312 739.84375 790.292969 C 739.941406 791.765625 740.089844 793.09375 740.285156 794.28125 C 740.484375 795.421875 740.703125 796.277344 740.949219 796.847656 C 741.195312 797.417969 741.464844 797.964844 741.761719 798.484375 C 740.808594 798.390625 739.847656 798.320312 738.875 798.273438 C 737.902344 798.222656 736.9375 798.203125 735.988281 798.203125 C 735.039062 798.203125 734.089844 798.222656 733.140625 798.273438 C 732.1875 798.320312 731.238281 798.390625 730.289062 798.484375 C 730.574219 798.058594 730.835938 797.59375 731.074219 797.097656 C 731.3125 796.597656 731.523438 795.730469 731.714844 794.496094 C 731.953125 792.882812 732.09375 790.566406 732.140625 787.550781 C 732.1875 784.535156 732.238281 780.582031 732.285156 775.6875 Z M 732.285156 762.863281 "/>
<path fill-rule="nonzero" fill="rgb(100%, 100%, 100%)" fill-opacity="1" d="M 776.671875 763.21875 C 776.621094 760.941406 776.585938 759.050781 776.5625 757.554688 C 776.539062 756.058594 776.46875 754.765625 776.351562 753.671875 C 776.230469 752.578125 776.074219 751.558594 775.886719 750.609375 C 775.695312 749.660156 775.410156 748.613281 775.03125 747.472656 C 775.410156 747.523438 775.886719 747.570312 776.453125 747.617188 C 777.019531 747.664062 777.753906 747.710938 778.648438 747.757812 C 779.539062 747.804688 780.636719 747.84375 781.929688 747.867188 C 783.222656 747.890625 784.816406 747.902344 786.714844 747.902344 C 789.421875 747.902344 792.238281 747.855469 795.15625 747.757812 C 798.078125 747.664062 800.820312 747.570312 803.386719 747.472656 C 803.339844 748.375 803.292969 749.207031 803.246094 749.96875 C 803.195312 750.726562 803.175781 751.511719 803.175781 752.320312 C 803.175781 753.410156 803.246094 754.597656 803.386719 755.878906 C 802.816406 755.214844 802.257812 754.667969 801.714844 754.242188 C 801.167969 753.816406 800.476562 753.484375 799.648438 753.246094 C 798.816406 753.007812 797.757812 752.839844 796.476562 752.746094 C 795.195312 752.652344 793.507812 752.601562 791.417969 752.601562 C 790.039062 752.601562 788.839844 752.617188 787.820312 752.640625 C 786.796875 752.664062 785.574219 752.722656 784.152344 752.816406 C 784.054688 754.242188 783.996094 755.65625 783.972656 757.054688 C 783.949219 758.457031 783.9375 759.753906 783.9375 760.941406 L 783.9375 768.703125 C 784.648438 768.753906 785.324219 768.800781 785.96875 768.847656 C 786.609375 768.894531 787.273438 768.929688 787.964844 768.953125 C 788.648438 768.980469 789.386719 769.003906 790.171875 769.027344 C 790.953125 769.050781 791.820312 769.0625 792.773438 769.0625 L 793.984375 769.0625 C 794.503906 769.0625 795.074219 769.039062 795.691406 768.992188 C 796.308594 768.945312 796.929688 768.894531 797.546875 768.847656 C 798.160156 768.800781 798.710938 768.703125 799.183594 768.5625 C 799.941406 768.375 800.523438 768.136719 800.929688 767.851562 C 801.332031 767.566406 801.773438 767.234375 802.246094 766.851562 C 802.105469 767.707031 801.996094 768.480469 801.925781 769.167969 C 801.855469 769.859375 801.820312 770.746094 801.820312 771.839844 C 801.820312 772.789062 801.855469 773.574219 801.925781 774.191406 C 801.996094 774.808594 802.105469 775.496094 802.246094 776.257812 C 801.773438 775.972656 801.355469 775.734375 801 775.542969 C 800.644531 775.355469 800.289062 775.1875 799.933594 775.046875 C 799.574219 774.902344 799.183594 774.796875 798.757812 774.726562 C 798.328125 774.65625 797.804688 774.574219 797.191406 774.476562 C 796.238281 774.382812 795.300781 774.308594 794.375 774.261719 C 793.449219 774.214844 792.460938 774.191406 791.417969 774.191406 L 788.035156 774.191406 C 786.824219 774.191406 785.457031 774.214844 783.9375 774.261719 L 783.9375 787.085938 C 783.9375 788.558594 784.019531 789.710938 784.1875 790.542969 C 784.351562 791.375 784.734375 792.003906 785.324219 792.429688 C 785.921875 792.859375 786.796875 793.132812 787.964844 793.25 C 789.125 793.367188 790.707031 793.425781 792.699219 793.425781 C 793.128906 793.425781 793.757812 793.417969 794.589844 793.390625 C 795.417969 793.367188 796.382812 793.285156 797.472656 793.140625 C 798.804688 793 799.933594 792.808594 800.859375 792.574219 C 801.785156 792.335938 802.566406 792.074219 803.210938 791.789062 C 803.851562 791.503906 804.421875 791.195312 804.917969 790.863281 C 805.417969 790.53125 805.902344 790.175781 806.378906 789.792969 C 806 790.792969 805.703125 791.648438 805.488281 792.359375 C 805.273438 793.070312 805.097656 793.722656 804.953125 794.320312 C 804.8125 794.914062 804.691406 795.542969 804.597656 796.207031 C 804.503906 796.871094 804.386719 797.65625 804.242188 798.558594 C 803.007812 798.507812 801.191406 798.425781 798.792969 798.308594 C 796.394531 798.191406 793.078125 798.128906 788.855469 798.128906 L 784.160156 798.128906 C 782.835938 798.128906 781.644531 798.140625 780.585938 798.164062 C 779.527344 798.191406 778.527344 798.238281 777.585938 798.308594 C 776.644531 798.378906 775.671875 798.460938 774.675781 798.558594 C 774.960938 797.84375 775.195312 797.191406 775.386719 796.597656 C 775.578125 796.003906 775.742188 795.304688 775.886719 794.496094 C 776.265625 792.5 776.492188 790.351562 776.5625 788.046875 C 776.636719 785.746094 776.671875 783.453125 776.671875 781.171875 Z M 776.671875 763.21875 "/>
<path fill-rule="nonzero" fill="rgb(100%, 100%, 100%)" fill-opacity="1" d="M 814.21875 756.734375 C 814.074219 755.121094 813.933594 753.8125 813.789062 752.816406 C 813.648438 751.820312 813.457031 751 813.21875 750.359375 C 812.980469 749.71875 812.71875 749.195312 812.4375 748.792969 C 812.152344 748.386719 811.792969 747.949219 811.367188 747.472656 C 812.554688 747.617188 813.632812 747.722656 814.609375 747.796875 C 815.582031 747.867188 816.589844 747.902344 817.636719 747.902344 C 818.445312 747.902344 819.488281 747.878906 820.773438 747.832031 C 822.054688 747.78125 823.382812 747.664062 824.761719 747.472656 C 825.046875 748.140625 825.292969 748.734375 825.507812 749.253906 C 825.722656 749.777344 826.019531 750.394531 826.398438 751.105469 C 826.78125 751.820312 827.265625 752.734375 827.859375 753.851562 C 828.453125 754.964844 829.25 756.449219 830.246094 758.304688 L 841.71875 777.042969 C 842.953125 779.085938 843.984375 780.746094 844.816406 782.027344 C 845.648438 783.308594 846.324219 784.378906 846.847656 785.234375 C 847.367188 786.089844 847.773438 786.800781 848.058594 787.371094 C 848.34375 787.941406 848.578125 788.535156 848.769531 789.152344 C 848.675781 788.15625 848.617188 786.992188 848.59375 785.660156 C 848.570312 784.332031 848.542969 782.941406 848.523438 781.492188 C 848.496094 780.046875 848.484375 778.609375 848.484375 777.183594 L 848.484375 764.214844 C 848.484375 761.082031 848.414062 758.527344 848.273438 756.558594 C 848.128906 754.589844 847.964844 753.007812 847.773438 751.820312 C 847.582031 750.632812 847.367188 749.730469 847.132812 749.113281 C 846.894531 748.496094 846.679688 747.996094 846.492188 747.617188 C 847.15625 747.710938 847.941406 747.78125 848.84375 747.832031 C 849.742188 747.878906 850.742188 747.902344 851.832031 747.902344 C 852.546875 747.902344 853.304688 747.878906 854.113281 747.832031 C 854.921875 747.78125 855.730469 747.710938 856.535156 747.617188 C 856.347656 748.140625 856.167969 748.671875 856 749.21875 C 855.835938 749.765625 855.683594 750.429688 855.539062 751.214844 C 855.398438 752 855.265625 752.9375 855.148438 754.027344 C 855.027344 755.121094 854.945312 756.449219 854.898438 758.019531 C 854.707031 762.484375 854.578125 766.914062 854.507812 771.304688 C 854.433594 775.699219 854.398438 780.128906 854.398438 784.59375 C 854.398438 786.921875 854.433594 789.234375 854.507812 791.539062 C 854.578125 793.84375 854.800781 796.160156 855.183594 798.484375 C 854.421875 798.390625 853.6875 798.296875 852.976562 798.199219 C 852.261719 798.105469 851.523438 798.058594 850.765625 798.058594 C 849.484375 798.058594 848.128906 798.199219 846.703125 798.484375 C 846.039062 797.347656 845.492188 796.382812 845.066406 795.601562 C 844.640625 794.816406 844.1875 794.03125 843.710938 793.25 C 843.238281 792.464844 842.691406 791.589844 842.074219 790.613281 C 841.457031 789.640625 840.648438 788.367188 839.652344 786.800781 L 827.539062 767.28125 C 826.304688 765.285156 825.246094 763.597656 824.367188 762.222656 C 823.488281 760.84375 822.753906 759.667969 822.160156 758.695312 C 821.566406 757.722656 821.078125 756.902344 820.699219 756.238281 C 820.320312 755.570312 820.035156 754.980469 819.84375 754.457031 C 819.988281 755.691406 820.128906 756.949219 820.273438 758.230469 C 820.414062 759.515625 820.523438 760.953125 820.59375 762.542969 C 820.664062 764.132812 820.722656 765.9375 820.773438 767.957031 C 820.816406 769.976562 820.84375 772.363281 820.84375 775.117188 L 820.84375 784.308594 C 820.84375 786.683594 820.914062 789.105469 821.054688 791.574219 C 821.199219 794.046875 821.671875 796.375 822.480469 798.558594 C 821.671875 798.414062 820.863281 798.28125 820.058594 798.167969 C 819.25 798.046875 818.445312 797.988281 817.636719 797.988281 C 816.78125 797.988281 815.9375 798.046875 815.109375 798.167969 C 814.277344 798.28125 813.433594 798.414062 812.578125 798.558594 C 812.816406 797.890625 813.050781 797.121094 813.289062 796.242188 C 813.527344 795.363281 813.765625 794.023438 814.003906 792.214844 C 814.144531 790.886719 814.261719 789.285156 814.359375 787.40625 C 814.453125 785.53125 814.535156 783.511719 814.609375 781.351562 C 814.679688 779.191406 814.714844 776.960938 814.714844 774.652344 C 814.714844 772.351562 814.691406 770.105469 814.644531 767.921875 C 814.597656 765.738281 814.535156 763.683594 814.464844 761.757812 C 814.394531 759.835938 814.3125 758.160156 814.21875 756.734375 "/>
<path fill-rule="nonzero" fill="rgb(100%, 100%, 100%)" fill-opacity="1" d="M 231.933594 653.789062 C 231.859375 650.105469 231.800781 647.058594 231.761719 644.640625 C 231.722656 642.222656 231.609375 640.132812 231.417969 638.367188 C 231.226562 636.601562 230.976562 634.953125 230.667969 633.417969 C 230.363281 631.886719 229.902344 630.195312 229.289062 628.355469 C 229.902344 628.433594 230.667969 628.511719 231.585938 628.585938 C 232.5 628.660156 233.683594 628.738281 235.128906 628.816406 C 236.570312 628.894531 238.339844 628.949219 240.429688 628.988281 C 242.519531 629.027344 245.09375 629.046875 248.164062 629.046875 C 252.535156 629.046875 257.082031 628.96875 261.800781 628.816406 C 266.519531 628.660156 270.949219 628.511719 275.09375 628.355469 C 275.015625 629.8125 274.9375 631.15625 274.863281 632.382812 C 274.785156 633.609375 274.75 634.875 274.75 636.179688 C 274.75 637.945312 274.863281 639.863281 275.09375 641.9375 C 274.171875 640.863281 273.269531 639.976562 272.390625 639.289062 C 271.507812 638.597656 270.394531 638.0625 269.050781 637.675781 C 267.707031 637.292969 266.003906 637.027344 263.929688 636.871094 C 261.859375 636.71875 259.132812 636.640625 255.757812 636.640625 C 253.53125 636.640625 251.597656 636.660156 249.945312 636.699219 C 248.296875 636.738281 246.320312 636.832031 244.019531 636.984375 C 243.863281 639.289062 243.769531 641.570312 243.730469 643.832031 C 243.691406 646.097656 243.675781 648.1875 243.675781 650.105469 L 243.675781 662.652344 C 244.824219 662.726562 245.917969 662.808594 246.953125 662.882812 C 247.988281 662.957031 249.0625 663.015625 250.175781 663.054688 C 251.289062 663.09375 252.476562 663.132812 253.746094 663.167969 C 255.011719 663.207031 256.410156 663.226562 257.945312 663.226562 L 259.902344 663.226562 C 260.746094 663.226562 261.667969 663.1875 262.664062 663.113281 C 263.660156 663.035156 264.65625 662.957031 265.65625 662.882812 C 266.652344 662.808594 267.535156 662.652344 268.304688 662.421875 C 269.53125 662.117188 270.46875 661.730469 271.125 661.269531 C 271.773438 660.8125 272.484375 660.273438 273.253906 659.660156 C 273.023438 661.039062 272.851562 662.289062 272.734375 663.398438 C 272.617188 664.511719 272.5625 665.949219 272.5625 667.714844 C 272.5625 669.25 272.617188 670.519531 272.734375 671.515625 C 272.851562 672.511719 273.023438 673.625 273.253906 674.851562 C 272.484375 674.390625 271.8125 674.007812 271.238281 673.699219 C 270.664062 673.394531 270.085938 673.125 269.511719 672.894531 C 268.9375 672.664062 268.304688 672.492188 267.613281 672.375 C 266.921875 672.261719 266.078125 672.128906 265.082031 671.972656 C 263.546875 671.820312 262.03125 671.707031 260.535156 671.628906 C 259.039062 671.554688 257.445312 671.515625 255.757812 671.515625 L 250.292969 671.515625 C 248.335938 671.515625 246.128906 671.554688 243.675781 671.628906 L 243.675781 692.34375 C 243.675781 694.722656 243.808594 696.585938 244.078125 697.925781 C 244.34375 699.269531 244.957031 700.285156 245.917969 700.976562 C 246.878906 701.667969 248.296875 702.109375 250.175781 702.300781 C 252.054688 702.492188 254.609375 702.585938 257.832031 702.585938 C 258.519531 702.585938 259.535156 702.570312 260.878906 702.53125 C 262.222656 702.492188 263.773438 702.355469 265.542969 702.128906 C 267.6875 701.898438 269.511719 701.59375 271.007812 701.207031 C 272.503906 700.824219 273.769531 700.402344 274.804688 699.941406 C 275.84375 699.480469 276.761719 698.980469 277.566406 698.445312 C 278.375 697.90625 279.160156 697.332031 279.929688 696.71875 C 279.3125 698.328125 278.835938 699.710938 278.488281 700.859375 C 278.144531 702.011719 277.855469 703.066406 277.625 704.027344 C 277.394531 704.984375 277.203125 706.003906 277.050781 707.074219 C 276.894531 708.152344 276.707031 709.417969 276.476562 710.875 C 274.480469 710.796875 271.542969 710.660156 267.671875 710.472656 C 263.796875 710.28125 258.441406 710.183594 251.617188 710.183594 L 244.035156 710.183594 C 241.894531 710.183594 239.96875 710.203125 238.261719 710.242188 C 236.550781 710.28125 234.933594 710.355469 233.410156 710.472656 C 231.890625 710.585938 230.324219 710.71875 228.710938 710.875 C 229.171875 709.722656 229.554688 708.667969 229.863281 707.707031 C 230.167969 706.75 230.4375 705.621094 230.667969 704.3125 C 231.28125 701.09375 231.648438 697.621094 231.761719 693.898438 C 231.878906 690.179688 231.933594 686.476562 231.933594 682.792969 Z M 231.933594 653.789062 "/>
<path fill-rule="nonzero" fill="rgb(100%, 100%, 100%)" fill-opacity="1" d="M 303.75 694.875 C 303.75 695.953125 303.824219 696.96875 303.980469 697.925781 C 304.132812 698.886719 304.59375 699.730469 305.359375 700.457031 C 306.128906 701.1875 307.296875 701.765625 308.871094 702.183594 C 310.441406 702.605469 312.6875 702.816406 315.605469 702.816406 C 316.523438 702.816406 317.75 702.78125 319.285156 702.703125 C 320.820312 702.625 322.488281 702.433594 324.292969 702.128906 C 326.097656 701.820312 327.957031 701.378906 329.875 700.804688 C 331.792969 700.230469 333.558594 699.441406 335.167969 698.445312 C 338.085938 696.679688 340.386719 694.472656 342.074219 691.828125 C 343.761719 689.179688 345.027344 686.4375 345.871094 683.597656 C 346.714844 680.761719 347.234375 677.996094 347.425781 675.3125 C 347.617188 672.625 347.714844 670.363281 347.714844 668.523438 C 347.714844 666.375 347.597656 664.128906 347.367188 661.789062 C 347.140625 659.449219 346.679688 657.109375 345.988281 654.769531 C 345.296875 652.429688 344.300781 650.164062 342.996094 647.976562 C 341.691406 645.789062 339.925781 643.816406 337.703125 642.050781 C 335.9375 640.667969 334.113281 639.59375 332.234375 638.828125 C 330.355469 638.0625 328.550781 637.484375 326.824219 637.101562 C 325.097656 636.71875 323.507812 636.488281 322.050781 636.410156 C 320.589844 636.335938 319.402344 636.296875 318.480469 636.296875 C 315.796875 636.296875 313.148438 636.449219 310.539062 636.757812 C 307.929688 637.0625 305.859375 637.292969 304.324219 637.445312 C 304.246094 638.753906 304.171875 640.402344 304.09375 642.394531 C 304.019531 644.390625 303.960938 646.523438 303.921875 648.78125 C 303.882812 651.046875 303.84375 653.367188 303.808594 655.746094 C 303.769531 658.125 303.75 660.390625 303.75 662.535156 Z M 292.011719 664.609375 C 292.011719 660.160156 291.972656 656.320312 291.894531 653.101562 C 291.816406 649.875 291.742188 647.113281 291.664062 644.8125 C 291.589844 642.511719 291.472656 640.59375 291.320312 639.058594 C 291.164062 637.523438 290.976562 636.164062 290.746094 634.972656 C 290.515625 633.785156 290.265625 632.691406 289.996094 631.691406 C 289.726562 630.695312 289.402344 629.621094 289.019531 628.46875 C 289.402344 628.546875 290.070312 628.644531 291.03125 628.757812 C 291.992188 628.871094 293.066406 628.988281 294.253906 629.101562 C 295.445312 629.21875 296.671875 629.316406 297.9375 629.390625 C 299.203125 629.46875 300.371094 629.503906 301.449219 629.503906 C 303.289062 629.503906 305.035156 629.449219 306.683594 629.332031 C 308.335938 629.21875 309.984375 629.101562 311.632812 628.988281 C 313.28125 628.871094 315.007812 628.757812 316.8125 628.644531 C 318.613281 628.527344 320.589844 628.46875 322.738281 628.46875 C 325.578125 628.46875 328.683594 628.644531 332.0625 628.988281 C 335.4375 629.332031 338.738281 630.140625 341.960938 631.402344 C 345.183594 632.671875 348.191406 634.53125 350.996094 636.984375 C 353.792969 639.441406 356.078125 642.816406 357.84375 647.113281 C 358.53125 648.878906 359.109375 650.722656 359.570312 652.640625 C 360.027344 654.558594 360.375 656.457031 360.605469 658.335938 C 360.835938 660.214844 361.007812 662 361.121094 663.6875 C 361.238281 665.375 361.296875 666.910156 361.296875 668.289062 C 361.296875 674.121094 360.433594 679.820312 358.707031 685.382812 C 356.980469 690.945312 354.042969 695.796875 349.902344 699.941406 C 347.445312 702.398438 344.738281 704.332031 341.785156 705.753906 C 338.832031 707.171875 335.820312 708.246094 332.753906 708.976562 C 329.683594 709.703125 326.671875 710.164062 323.71875 710.355469 C 320.765625 710.546875 318.058594 710.644531 315.605469 710.644531 C 312.074219 710.644531 308.929688 710.566406 306.167969 710.414062 C 303.40625 710.261719 300.910156 710.183594 298.6875 710.183594 C 296.230469 710.183594 294.292969 710.242188 292.875 710.355469 C 291.453125 710.472656 290.015625 710.566406 288.558594 710.644531 C 288.789062 710.335938 289.074219 709.914062 289.421875 709.378906 C 289.765625 708.839844 290.070312 707.941406 290.34375 706.671875 C 290.609375 705.40625 290.859375 703.699219 291.089844 701.550781 C 291.320312 699.40625 291.511719 696.566406 291.664062 693.035156 C 291.816406 689.582031 291.894531 686.78125 291.894531 684.632812 C 291.894531 682.484375 291.933594 680.453125 292.011719 678.535156 Z M 292.011719 664.609375 "/>
<path fill-rule="nonzero" fill="rgb(100%, 100%, 100%)" fill-opacity="1" d="M 426.777344 650.796875 L 426.777344 645.734375 C 426.777344 644.046875 426.757812 642.492188 426.722656 641.070312 C 426.683594 639.652344 426.644531 638.386719 426.605469 637.273438 C 426.566406 636.164062 426.507812 635.375 426.433594 634.914062 C 426.277344 633.378906 426.089844 632.191406 425.859375 631.347656 C 425.628906 630.503906 425.28125 629.542969 424.820312 628.46875 C 427.429688 628.929688 429.925781 629.160156 432.304688 629.160156 C 433.605469 629.160156 434.871094 629.085938 436.101562 628.929688 C 437.328125 628.777344 438.59375 628.625 439.898438 628.46875 C 439.4375 629.777344 439.054688 631.023438 438.746094 632.210938 C 438.441406 633.402344 438.191406 634.800781 438 636.410156 C 437.808594 638.023438 437.65625 639.980469 437.539062 642.28125 C 437.425781 644.582031 437.328125 647.460938 437.25 650.910156 L 437.25 681.179688 C 437.097656 683.40625 436.925781 685.652344 436.734375 687.914062 C 436.542969 690.175781 436.101562 692.382812 435.410156 694.53125 C 434.71875 696.679688 433.722656 698.75 432.417969 700.746094 C 431.113281 702.742188 429.273438 704.582031 426.894531 706.269531 C 423.824219 708.496094 420.3125 709.914062 416.363281 710.527344 C 412.410156 711.144531 408.59375 711.449219 404.910156 711.449219 C 403.375 711.449219 401.707031 711.371094 399.90625 711.21875 C 398.101562 711.066406 396.316406 710.816406 394.554688 710.472656 C 392.789062 710.125 391.082031 709.6875 389.433594 709.148438 C 387.78125 708.613281 386.304688 707.957031 385 707.191406 C 382.46875 705.734375 380.472656 703.949219 379.015625 701.839844 C 377.558594 699.730469 376.484375 697.449219 375.792969 694.992188 C 375.105469 692.535156 374.660156 689.984375 374.472656 687.339844 C 374.277344 684.691406 374.144531 682.101562 374.066406 679.570312 L 374.066406 650.796875 C 373.992188 646.421875 373.894531 642.933594 373.78125 640.324219 C 373.664062 637.714844 373.492188 635.664062 373.261719 634.167969 C 373.03125 632.671875 372.742188 631.539062 372.398438 630.773438 C 372.054688 630.003906 371.652344 629.199219 371.191406 628.355469 C 372.726562 628.507812 374.222656 628.660156 375.679688 628.816406 C 377.136719 628.96875 378.632812 629.046875 380.167969 629.046875 C 381.777344 629.046875 383.371094 628.96875 384.945312 628.816406 C 386.515625 628.660156 388.070312 628.507812 389.605469 628.355469 C 389.144531 628.96875 388.742188 629.640625 388.398438 630.367188 C 388.050781 631.097656 387.6875 632.34375 387.304688 634.109375 C 386.765625 636.71875 386.457031 639.539062 386.382812 642.570312 C 386.304688 645.601562 386.265625 648.34375 386.265625 650.796875 L 386.265625 675.195312 C 386.265625 678.265625 386.304688 680.914062 386.382812 683.136719 C 386.457031 685.363281 386.765625 687.359375 387.304688 689.121094 C 388.453125 693.34375 390.699219 696.46875 394.035156 698.5 C 397.375 700.535156 401.917969 701.550781 407.671875 701.550781 C 412.429688 701.550781 416.09375 700.765625 418.664062 699.191406 C 421.234375 697.621094 423.132812 695.585938 424.363281 693.09375 C 425.589844 690.601562 426.296875 687.78125 426.492188 684.632812 C 426.683594 681.488281 426.777344 678.34375 426.777344 675.195312 Z M 426.777344 650.796875 "/>
<path fill-rule="nonzero" fill="rgb(100%, 100%, 100%)" fill-opacity="1" d="M 450.253906 670.246094 C 450.253906 656.4375 453.765625 645.925781 460.785156 638.710938 C 467.804688 631.5 478.296875 627.894531 492.261719 627.894531 C 495.332031 627.894531 498.574219 628.046875 501.988281 628.355469 C 505.402344 628.660156 509.371094 629.660156 513.902344 631.347656 C 513.285156 632.652344 512.765625 633.765625 512.347656 634.683594 C 511.921875 635.605469 511.578125 636.488281 511.308594 637.332031 C 511.039062 638.175781 510.808594 639.058594 510.621094 639.976562 C 510.425781 640.898438 510.21875 642.011719 509.988281 643.316406 C 509.21875 642.320312 508.433594 641.359375 507.628906 640.4375 C 506.820312 639.519531 505.6875 638.636719 504.230469 637.792969 C 502.773438 636.949219 500.992188 636.296875 498.878906 635.835938 C 496.769531 635.375 494.566406 635.144531 492.261719 635.144531 C 487.734375 635.144531 483.613281 636.027344 479.890625 637.792969 C 476.167969 639.558594 473.195312 641.78125 470.972656 644.46875 C 469.742188 645.925781 468.6875 647.59375 467.804688 649.472656 C 466.921875 651.355469 466.195312 653.351562 465.621094 655.457031 C 465.042969 657.570312 464.601562 659.734375 464.296875 661.960938 C 463.988281 664.1875 463.835938 666.410156 463.835938 668.636719 C 463.835938 673.855469 464.601562 678.804688 466.136719 683.480469 C 467.671875 688.164062 469.894531 692.039062 472.8125 695.105469 C 475.652344 698.101562 478.96875 700.285156 482.769531 701.667969 C 486.566406 703.046875 490.535156 703.738281 494.679688 703.738281 C 497.515625 703.738281 499.992188 703.507812 502.101562 703.046875 C 504.210938 702.585938 506.015625 702.03125 507.511719 701.378906 C 509.007812 700.726562 510.273438 700.039062 511.308594 699.308594 C 512.347656 698.578125 513.210938 697.945312 513.902344 697.410156 C 513.515625 698.636719 513.1875 699.691406 512.921875 700.574219 C 512.652344 701.457031 512.421875 702.339844 512.230469 703.222656 C 512.039062 704.101562 511.867188 705.003906 511.714844 705.925781 C 511.558594 706.847656 511.367188 707.996094 511.136719 709.378906 C 509.527344 709.761719 507.207031 710.183594 504.175781 710.644531 C 501.144531 711.105469 497.289062 711.335938 492.609375 711.335938 C 491.457031 711.335938 489.691406 711.277344 487.3125 711.160156 C 484.933594 711.046875 482.269531 710.644531 479.316406 709.953125 C 476.359375 709.261719 473.273438 708.152344 470.050781 706.617188 C 466.828125 705.082031 463.84375 702.933594 461.097656 700.171875 C 457.140625 696.027344 454.34375 691.328125 452.707031 686.070312 C 451.070312 680.816406 450.253906 675.542969 450.253906 670.246094 "/>
<path fill-rule="nonzero" fill="rgb(100%, 100%, 100%)" fill-opacity="1" d="M 559.128906 656.898438 C 558.667969 655.210938 558.246094 653.714844 557.863281 652.40625 C 557.480469 651.105469 557.113281 649.839844 556.769531 648.609375 C 556.425781 647.382812 556.097656 646.097656 555.792969 644.753906 C 555.484375 643.414062 555.101562 641.820312 554.640625 639.976562 C 554.484375 639.136719 554.3125 638.347656 554.121094 637.621094 C 553.929688 636.890625 553.757812 636.144531 553.605469 635.375 L 540.023438 676.691406 C 542.097656 676.847656 544.1875 676.960938 546.296875 677.039062 C 548.40625 677.113281 550.535156 677.152344 552.683594 677.152344 C 554.753906 677.152344 556.84375 677.113281 558.957031 677.039062 C 561.066406 676.960938 563.15625 676.847656 565.230469 676.691406 Z M 539.335938 647 C 540.253906 644.238281 541.019531 641.917969 541.636719 640.035156 C 542.25 638.15625 542.730469 636.546875 543.074219 635.203125 C 543.421875 633.859375 543.707031 632.691406 543.9375 631.691406 C 544.167969 630.695312 544.359375 629.660156 544.511719 628.585938 C 546.125 628.738281 547.734375 628.890625 549.347656 629.046875 C 550.957031 629.199219 552.570312 629.273438 554.179688 629.273438 C 555.714844 629.273438 557.269531 629.199219 558.84375 629.046875 C 560.410156 628.890625 561.96875 628.738281 563.503906 628.585938 C 563.964844 630.886719 564.402344 632.921875 564.824219 634.683594 C 565.246094 636.453125 565.691406 638.214844 566.148438 639.976562 C 566.609375 641.746094 567.164062 643.625 567.816406 645.617188 C 568.46875 647.613281 569.257812 649.992188 570.179688 652.753906 L 580.535156 683.941406 C 581.378906 686.167969 582.300781 688.796875 583.300781 691.828125 C 584.296875 694.859375 585.214844 697.484375 586.0625 699.710938 C 586.75 701.707031 587.363281 703.296875 587.902344 704.484375 C 588.4375 705.675781 588.917969 706.671875 589.339844 707.480469 C 589.761719 708.285156 590.183594 708.917969 590.605469 709.378906 C 591.027344 709.839844 591.46875 710.296875 591.929688 710.757812 C 590.394531 710.527344 588.820312 710.335938 587.210938 710.183594 C 585.601562 710.03125 584.023438 709.953125 582.492188 709.953125 C 580.957031 709.953125 579.441406 710.03125 577.945312 710.183594 C 576.449219 710.335938 574.933594 710.527344 573.398438 710.757812 C 573.476562 710.375 573.554688 709.933594 573.632812 709.433594 C 573.703125 708.9375 573.746094 708.417969 573.746094 707.882812 C 573.746094 706.808594 573.515625 705.371094 573.054688 703.566406 C 572.59375 701.765625 572.058594 699.75 571.441406 697.523438 L 567.988281 686.246094 C 563.003906 685.785156 558.054688 685.554688 553.144531 685.554688 C 550.457031 685.554688 547.792969 685.632812 545.144531 685.785156 C 542.5 685.9375 539.832031 686.089844 537.148438 686.246094 L 534.269531 696.027344 C 533.578125 698.558594 533.042969 700.574219 532.65625 702.070312 C 532.273438 703.566406 531.96875 704.734375 531.738281 705.582031 C 531.507812 706.425781 531.371094 707.058594 531.335938 707.480469 C 531.296875 707.902344 531.277344 708.304688 531.277344 708.6875 L 531.277344 709.609375 C 531.277344 709.839844 531.316406 710.261719 531.394531 710.875 C 530.085938 710.71875 528.761719 710.566406 527.421875 710.414062 C 526.078125 710.261719 524.71875 710.183594 523.335938 710.183594 C 522.03125 710.183594 520.6875 710.261719 519.308594 710.414062 C 517.925781 710.566406 516.585938 710.71875 515.28125 710.875 C 516.429688 709.03125 517.390625 707.421875 518.15625 706.039062 C 518.921875 704.660156 519.691406 703.085938 520.460938 701.320312 C 521.226562 699.558594 522.070312 697.429688 522.992188 694.933594 C 523.910156 692.441406 525.0625 689.199219 526.441406 685.210938 Z M 539.335938 647 "/>
<path fill-rule="nonzero" fill="rgb(100%, 100%, 100%)" fill-opacity="1" d="M 607.699219 638.597656 C 605.242188 638.597656 603.210938 638.675781 601.597656 638.828125 C 599.988281 638.980469 598.625 639.210938 597.511719 639.519531 C 596.398438 639.828125 595.441406 640.207031 594.636719 640.667969 C 593.832031 641.128906 592.96875 641.703125 592.046875 642.394531 C 592.277344 641.324219 592.46875 640.265625 592.621094 639.230469 C 592.773438 638.195312 592.851562 637.140625 592.851562 636.066406 C 592.851562 634.761719 592.753906 633.535156 592.5625 632.382812 C 592.371094 631.230469 592.199219 629.929688 592.046875 628.46875 C 592.96875 628.625 594.386719 628.757812 596.304688 628.871094 C 598.21875 628.988281 600.582031 629.085938 603.382812 629.160156 C 606.179688 629.238281 609.367188 629.277344 612.933594 629.277344 L 635.261719 629.277344 C 638.523438 629.277344 641.535156 629.238281 644.296875 629.160156 C 647.058594 629.085938 649.628906 628.988281 652.007812 628.871094 C 654.386719 628.757812 656.6875 628.625 658.914062 628.46875 C 658.757812 629.699219 658.625 630.90625 658.511719 632.09375 C 658.394531 633.285156 658.339844 634.492188 658.339844 635.71875 C 658.339844 636.796875 658.394531 637.90625 658.511719 639.058594 C 658.625 640.207031 658.757812 641.324219 658.914062 642.394531 C 657.683594 641.628906 656.609375 640.996094 655.691406 640.496094 C 654.769531 640 653.734375 639.632812 652.582031 639.402344 C 651.429688 639.171875 649.992188 639 648.265625 638.886719 C 646.542969 638.769531 644.296875 638.675781 641.535156 638.597656 L 631.867188 638.597656 C 631.710938 640.898438 631.597656 643.222656 631.519531 645.558594 C 631.445312 647.902344 631.386719 650.433594 631.347656 653.15625 C 631.308594 655.878906 631.269531 658.894531 631.234375 662.191406 C 631.195312 665.492188 631.175781 669.210938 631.175781 673.355469 C 631.175781 676.117188 631.195312 678.9375 631.234375 681.8125 C 631.269531 684.691406 631.328125 687.492188 631.40625 690.214844 C 631.480469 692.941406 631.597656 695.472656 631.753906 697.8125 C 631.90625 700.152344 632.097656 702.167969 632.328125 703.851562 C 632.632812 705.925781 632.941406 707.402344 633.25 708.285156 C 633.554688 709.167969 633.9375 710.03125 634.398438 710.875 C 631.480469 710.414062 628.566406 710.183594 625.652344 710.183594 C 624.042969 710.183594 622.449219 710.261719 620.875 710.414062 C 619.300781 710.566406 617.710938 710.71875 616.097656 710.875 C 616.332031 710.566406 616.636719 710.050781 617.019531 709.320312 C 617.402344 708.589844 617.769531 707.039062 618.113281 704.660156 C 618.460938 702.28125 618.765625 698.75 619.035156 694.070312 C 619.300781 689.390625 619.4375 682.949219 619.4375 674.738281 C 619.4375 668.90625 619.417969 663.996094 619.378906 660.003906 C 619.339844 656.015625 619.265625 652.679688 619.148438 649.992188 C 619.035156 647.304688 618.917969 645.082031 618.804688 643.316406 C 618.6875 641.550781 618.59375 639.976562 618.515625 638.597656 Z M 607.699219 638.597656 "/>
<path fill-rule="nonzero" fill="rgb(100%, 100%, 100%)" fill-opacity="1" d="M 668.925781 659.3125 C 668.769531 654.941406 668.65625 651.46875 668.578125 648.898438 C 668.503906 646.328125 668.445312 644.257812 668.40625 642.683594 C 668.367188 641.113281 668.292969 639.902344 668.175781 639.058594 C 668.0625 638.214844 667.964844 637.371094 667.890625 636.527344 C 667.582031 634.148438 667.273438 632.460938 666.96875 631.460938 C 666.660156 630.464844 666.277344 629.429688 665.816406 628.355469 C 667.351562 628.507812 668.847656 628.664062 670.308594 628.816406 C 671.761719 628.96875 673.257812 629.046875 674.792969 629.046875 C 676.328125 629.046875 677.824219 628.96875 679.28125 628.816406 C 680.738281 628.664062 682.238281 628.507812 683.773438 628.355469 C 683.082031 629.964844 682.523438 631.460938 682.101562 632.84375 C 681.679688 634.222656 681.355469 635.96875 681.125 638.082031 C 680.894531 640.191406 680.738281 642.875 680.664062 646.136719 C 680.585938 649.398438 680.511719 653.753906 680.433594 659.199219 L 680.433594 675.371094 C 680.433594 677.710938 680.453125 680.011719 680.492188 682.273438 C 680.527344 684.539062 680.585938 686.820312 680.664062 689.121094 C 680.738281 691.421875 680.816406 693.878906 680.894531 696.488281 C 680.96875 698.636719 681.066406 700.382812 681.183594 701.722656 C 681.296875 703.066406 681.449219 704.238281 681.644531 705.234375 C 681.832031 706.234375 682.101562 707.152344 682.449219 707.996094 C 682.792969 708.839844 683.195312 709.761719 683.65625 710.757812 C 682.121094 710.527344 680.625 710.335938 679.167969 710.183594 C 677.710938 710.03125 676.214844 709.953125 674.679688 709.953125 C 673.144531 709.953125 671.648438 710.03125 670.191406 710.183594 C 668.734375 710.335938 667.238281 710.527344 665.703125 710.757812 C 666.007812 710.066406 666.296875 709.378906 666.566406 708.6875 C 666.832031 707.996094 667.082031 707.132812 667.3125 706.097656 C 667.542969 705.0625 667.734375 703.777344 667.890625 702.242188 C 668.042969 700.710938 668.195312 698.789062 668.351562 696.488281 C 668.578125 691.421875 668.734375 686.707031 668.8125 682.332031 C 668.886719 677.960938 668.925781 673.164062 668.925781 667.945312 Z M 668.925781 659.3125 "/>
<path fill-rule="nonzero" fill="rgb(100%, 100%, 100%)" fill-opacity="1" d="M 733.257812 635.71875 C 731.023438 635.71875 728.980469 635.96875 727.128906 636.46875 C 725.28125 636.96875 723.621094 637.601562 722.15625 638.367188 C 719.230469 639.976562 716.859375 642.03125 715.046875 644.527344 C 713.234375 647.019531 711.847656 649.722656 710.886719 652.636719 C 709.921875 655.554688 709.285156 658.527344 708.976562 661.558594 C 708.667969 664.589844 708.515625 667.410156 708.515625 670.015625 C 708.515625 676.15625 709.070312 681.105469 710.191406 684.863281 C 711.308594 688.625 712.601562 691.578125 714.0625 693.726562 C 715.910156 696.410156 718.4375 698.773438 721.636719 700.804688 C 724.835938 702.835938 728.746094 703.851562 733.375 703.851562 C 738.152344 703.851562 742.46875 702.585938 746.324219 700.054688 C 749.175781 697.984375 751.566406 695.300781 753.492188 692 C 755.34375 688.777344 756.59375 685.207031 757.25 681.296875 C 757.90625 677.382812 758.234375 673.507812 758.234375 669.671875 C 758.234375 668.214844 758.175781 666.585938 758.058594 664.78125 C 757.945312 662.976562 757.730469 661.097656 757.425781 659.140625 C 757.113281 657.183594 756.652344 655.210938 756.035156 653.214844 C 755.417969 651.21875 754.648438 649.339844 753.722656 647.574219 C 752.335938 645.042969 750.757812 643.011719 748.984375 641.476562 C 747.210938 639.941406 745.398438 638.753906 743.546875 637.90625 C 741.699219 637.0625 739.886719 636.488281 738.113281 636.179688 C 736.339844 635.875 734.722656 635.71875 733.257812 635.71875 M 733.375 627.894531 C 738.898438 627.894531 744.230469 628.796875 749.371094 630.597656 C 754.511719 632.402344 758.925781 635.375 762.605469 639.519531 C 766.136719 643.585938 768.550781 648.191406 769.859375 653.328125 C 771.160156 658.46875 771.8125 663.726562 771.8125 669.097656 C 771.8125 670.632812 771.738281 672.605469 771.582031 675.023438 C 771.429688 677.441406 771.027344 680.070312 770.375 682.90625 C 769.722656 685.746094 768.726562 688.660156 767.382812 691.65625 C 766.039062 694.648438 764.179688 697.449219 761.800781 700.054688 C 759.730469 702.433594 757.484375 704.371094 755.070312 705.867188 C 752.652344 707.363281 750.175781 708.535156 747.644531 709.378906 C 745.113281 710.222656 742.597656 710.796875 740.105469 711.105469 C 737.613281 711.410156 735.253906 711.566406 733.027344 711.566406 C 730.800781 711.566406 728.578125 711.410156 726.355469 711.105469 C 724.125 710.796875 721.902344 710.296875 719.679688 709.609375 C 714.308594 707.921875 709.703125 705.121094 705.867188 701.207031 C 703.179688 698.445312 701.089844 695.492188 699.59375 692.34375 C 698.097656 689.199219 697.003906 686.148438 696.316406 683.195312 C 695.625 680.242188 695.222656 677.574219 695.105469 675.195312 C 694.992188 672.820312 694.933594 671.015625 694.933594 669.785156 C 694.933594 668.484375 695.007812 666.640625 695.164062 664.261719 C 695.316406 661.886719 695.71875 659.257812 696.371094 656.378906 C 697.023438 653.5 698.039062 650.546875 699.421875 647.515625 C 700.804688 644.488281 702.761719 641.628906 705.292969 638.945312 C 708.589844 635.414062 712.601562 632.691406 717.320312 630.773438 C 722.035156 628.855469 727.390625 627.894531 733.375 627.894531 "/>
<path fill-rule="nonzero" fill="rgb(100%, 100%, 100%)" fill-opacity="1" d="M 785.625 643.316406 C 785.394531 640.710938 785.164062 638.597656 784.933594 636.984375 C 784.703125 635.375 784.394531 634.050781 784.011719 633.015625 C 783.628906 631.980469 783.207031 631.136719 782.746094 630.484375 C 782.285156 629.832031 781.710938 629.125 781.019531 628.355469 C 782.9375 628.585938 784.683594 628.757812 786.257812 628.875 C 787.828125 628.988281 789.460938 629.046875 791.148438 629.046875 C 792.449219 629.046875 794.140625 629.007812 796.210938 628.929688 C 798.28125 628.855469 800.429688 628.664062 802.65625 628.355469 C 803.117188 629.429688 803.519531 630.386719 803.863281 631.230469 C 804.210938 632.078125 804.6875 633.074219 805.304688 634.222656 C 805.917969 635.375 806.703125 636.851562 807.664062 638.65625 C 808.621094 640.460938 809.90625 642.855469 811.519531 645.847656 L 830.046875 676.117188 C 832.042969 679.417969 833.710938 682.101562 835.054688 684.171875 C 836.394531 686.246094 837.488281 687.972656 838.335938 689.351562 C 839.179688 690.734375 839.832031 691.882812 840.292969 692.804688 C 840.753906 693.726562 841.136719 694.6875 841.441406 695.683594 C 841.285156 694.070312 841.191406 692.191406 841.152344 690.042969 C 841.113281 687.894531 841.078125 685.652344 841.039062 683.308594 C 841 680.96875 840.980469 678.648438 840.980469 676.347656 L 840.980469 655.402344 C 840.980469 650.335938 840.867188 646.214844 840.636719 643.027344 C 840.40625 639.84375 840.136719 637.292969 839.832031 635.375 C 839.523438 633.457031 839.179688 632 838.796875 631.003906 C 838.410156 630.003906 838.0625 629.199219 837.757812 628.585938 C 838.832031 628.738281 840.097656 628.855469 841.558594 628.929688 C 843.015625 629.007812 844.625 629.046875 846.390625 629.046875 C 847.542969 629.046875 848.769531 629.007812 850.074219 628.929688 C 851.378906 628.855469 852.683594 628.738281 853.988281 628.585938 C 853.679688 629.429688 853.390625 630.292969 853.125 631.175781 C 852.851562 632.058594 852.605469 633.128906 852.375 634.398438 C 852.144531 635.664062 851.933594 637.179688 851.742188 638.941406 C 851.550781 640.710938 851.414062 642.855469 851.339844 645.386719 C 851.03125 652.601562 850.820312 659.757812 850.707031 666.851562 C 850.59375 673.949219 850.535156 681.105469 850.535156 688.316406 C 850.535156 692.078125 850.59375 695.816406 850.707031 699.539062 C 850.820312 703.261719 851.1875 707 851.800781 710.757812 C 850.570312 710.605469 849.382812 710.453125 848.230469 710.296875 C 847.082031 710.144531 845.890625 710.066406 844.664062 710.066406 C 842.59375 710.066406 840.40625 710.296875 838.105469 710.757812 C 837.027344 708.917969 836.148438 707.363281 835.457031 706.097656 C 834.765625 704.832031 834.035156 703.566406 833.269531 702.300781 C 832.503906 701.035156 831.621094 699.613281 830.625 698.042969 C 829.625 696.46875 828.320312 694.417969 826.710938 691.882812 L 807.144531 660.347656 C 805.148438 657.128906 803.441406 654.402344 802.023438 652.179688 C 800.601562 649.953125 799.414062 648.054688 798.457031 646.480469 C 797.496094 644.910156 796.710938 643.585938 796.097656 642.511719 C 795.480469 641.4375 795.019531 640.476562 794.714844 639.632812 C 794.945312 641.628906 795.175781 643.664062 795.40625 645.734375 C 795.636719 647.804688 795.808594 650.128906 795.925781 652.695312 C 796.039062 655.265625 796.136719 658.183594 796.210938 661.441406 C 796.285156 664.707031 796.328125 668.558594 796.328125 673.007812 L 796.328125 687.855469 C 796.328125 691.691406 796.441406 695.605469 796.671875 699.59375 C 796.902344 703.585938 797.667969 707.34375 798.972656 710.875 C 797.667969 710.644531 796.363281 710.429688 795.0625 710.242188 C 793.753906 710.050781 792.449219 709.953125 791.148438 709.953125 C 789.765625 709.953125 788.402344 710.050781 787.0625 710.242188 C 785.71875 710.429688 784.355469 710.644531 782.976562 710.875 C 783.359375 709.800781 783.742188 708.554688 784.128906 707.132812 C 784.511719 705.714844 784.894531 703.546875 785.277344 700.628906 C 785.507812 698.484375 785.699219 695.894531 785.851562 692.863281 C 786.007812 689.832031 786.140625 686.570312 786.257812 683.082031 C 786.371094 679.589844 786.429688 675.984375 786.429688 672.261719 C 786.429688 668.542969 786.390625 664.917969 786.3125 661.386719 C 786.234375 657.855469 786.140625 654.539062 786.027344 651.429688 C 785.910156 648.324219 785.777344 645.617188 785.625 643.316406 "/>
</svg>
