<?xml version="1.0" encoding="UTF-8"?>
<svg xmlns="http://www.w3.org/2000/svg" xmlns:xlink="http://www.w3.org/1999/xlink" width="1080" height="1080" viewBox="0 0 1080 1080">
<path fill-rule="nonzero" fill="rgb(94.898987%, 54.499817%, 12.5%)" fill-opacity="1" d="M 338.378906 422.339844 C 338.378906 401.792969 335.640625 372.6875 308.589844 372.6875 C 277.769531 372.6875 277.425781 411.039062 277.425781 422.339844 Z M 278.109375 451.105469 C 278.109375 460.351562 278.453125 479.183594 293.863281 494.253906 C 309.273438 509.664062 330.503906 509.664062 337.351562 509.664062 C 366.804688 509.664062 377.761719 498.703125 384.609375 492.199219 C 380.84375 511.375 380.15625 516.511719 378.445312 535.003906 C 361.664062 539.453125 353.449219 541.511719 333.929688 541.511719 C 299.34375 541.511719 220.238281 539.453125 220.238281 440.832031 C 220.238281 423.023438 222.292969 391.863281 246.261719 368.574219 C 264.070312 351.457031 289.066406 344.949219 313.726562 344.949219 C 345.226562 344.949219 369.542969 355.222656 382.214844 383.644531 C 392.488281 406.246094 391.800781 431.929688 391.460938 451.105469 Z M 278.109375 451.105469 "/>
<path fill-rule="nonzero" fill="rgb(94.898987%, 54.499817%, 12.5%)" fill-opacity="1" d="M 403.085938 391.863281 C 403.425781 379.878906 403.425781 373.027344 403.085938 361.726562 C 415.410156 362.070312 422.601562 362.414062 431.160156 362.414062 C 431.160156 345.632812 430.820312 339.8125 431.847656 332.617188 C 432.875 324.402344 436.300781 306.25 460.269531 293.582031 C 485.609375 280.570312 514.375 281.253906 530.128906 281.597656 C 524.992188 299.746094 523.625 305.226562 520.199219 323.375 C 516.089844 321.320312 511.292969 318.921875 503.757812 318.921875 C 500.679688 318.921875 495.199219 319.265625 490.402344 324.058594 C 484.242188 330.222656 484.242188 340.839844 484.242188 362.414062 C 497.9375 362.753906 501.363281 362.753906 516.429688 361.042969 C 516.089844 374.742188 516.089844 377.824219 516.429688 391.519531 C 502.050781 390.492188 499.308594 390.152344 483.554688 389.808594 C 483.554688 414.121094 483.214844 438.433594 483.214844 462.40625 L 483.214844 471.652344 C 483.214844 515.484375 485.269531 522.675781 490.75 539.800781 C 479.445312 538.773438 468.148438 537.398438 456.503906 537.398438 C 445.542969 537.398438 434.585938 538.773438 423.972656 539.800781 C 428.078125 528.839844 429.792969 522.335938 430.480469 495.621094 C 431.160156 460.691406 431.160156 422.683594 431.160156 390.152344 C 421.917969 390.492188 416.4375 390.492188 403.085938 391.863281 "/>
<path fill-rule="nonzero" fill="rgb(94.898987%, 54.499817%, 12.5%)" fill-opacity="1" d="M 596.210938 503.496094 C 605.800781 503.496094 612.304688 497.675781 615.046875 495.28125 C 629.769531 480.558594 630.113281 460.007812 630.457031 443.574219 C 625.320312 443.226562 619.839844 442.542969 614.703125 442.542969 C 585.597656 442.542969 570.527344 461.378906 570.527344 477.128906 C 570.527344 493.910156 584.222656 503.496094 596.210938 503.496094 M 556.144531 428.503906 C 578.746094 420.96875 611.277344 421.996094 629.769531 421.996094 C 629.769531 398.710938 627.375 382.277344 597.582031 382.277344 C 574.292969 382.277344 553.0625 394.261719 541.417969 400.769531 C 537.3125 382.957031 535.941406 378.851562 528.75 363.097656 C 537.65625 360.019531 546.558594 356.589844 555.460938 354.535156 C 571.214844 350.429688 593.132812 347.34375 611.621094 347.34375 C 624.292969 347.34375 642.097656 348.714844 656.136719 355.5625 C 683.535156 369.261719 683.535156 394.945312 683.535156 412.066406 C 683.535156 425.421875 682.847656 438.433594 682.847656 451.449219 C 682.164062 469.253906 682.164062 495.964844 682.164062 504.527344 C 682.164062 521.988281 684.5625 528.496094 688.671875 538.773438 C 678.394531 538.085938 669.492188 537.398438 659.90625 537.398438 C 650.316406 537.398438 640.730469 538.085938 630.796875 538.773438 C 628.058594 524.042969 629.769531 513.085938 629.769531 506.238281 C 623.949219 514.457031 619.839844 520.28125 610.25 527.128906 C 599.980469 534.660156 588.335938 540.140625 572.925781 540.140625 C 557.175781 540.140625 542.105469 533.976562 531.832031 523.363281 C 519.164062 510.691406 517.105469 495.621094 517.105469 481.925781 C 517.105469 471.652344 517.105469 441.859375 556.144531 428.503906 "/>
<path fill-rule="nonzero" fill="rgb(94.898987%, 54.499817%, 12.5%)" fill-opacity="1" d="M 807.140625 344.949219 C 825.289062 344.949219 840.015625 348.03125 856.109375 351.457031 C 847.890625 368.921875 846.179688 373.371094 841.386719 390.152344 C 838.304688 386.726562 835.90625 383.984375 828.714844 381.246094 C 822.550781 378.851562 816.046875 377.824219 809.195312 377.824219 C 800.292969 377.824219 791.386719 379.878906 783.511719 383.984375 C 762.625 395.628906 759.542969 421.996094 759.542969 438.09375 C 759.542969 467.199219 770.15625 485.691406 778.375 493.914062 C 784.199219 499.390625 796.179688 507.949219 817.414062 507.949219 C 839.671875 507.949219 849.261719 499.730469 853.714844 495.96875 C 848.921875 513.773438 847.890625 518.222656 845.835938 538.425781 C 832.824219 540.140625 821.867188 541.511719 809.195312 541.511719 C 781.117188 541.511719 752.347656 535.347656 732.144531 515.828125 C 712.625 496.992188 704.75 469.941406 704.75 442.886719 C 704.75 389.464844 738.3125 344.949219 807.140625 344.949219 "/>
<path fill-rule="nonzero" fill="rgb(3.898621%, 40.79895%, 47.099304%)" fill-opacity="1" d="M 318.027344 596.296875 L 222.804688 596.296875 L 222.804688 573.046875 L 318.027344 573.046875 Z M 318.027344 596.296875 "/>
<path fill-rule="nonzero" fill="rgb(5.099487%, 6.698608%, 11.799622%)" fill-opacity="1" d="M 531.132812 596.296875 L 504.191406 596.296875 L 504.191406 573.046875 L 531.132812 573.046875 Z M 531.132812 596.296875 "/>
<path fill-rule="nonzero" fill="rgb(94.898987%, 54.499817%, 12.5%)" fill-opacity="1" d="M 504.191406 596.296875 L 318.027344 596.296875 L 318.027344 573.046875 L 504.191406 573.046875 Z M 504.191406 596.296875 "/>
<path fill-rule="nonzero" fill="rgb(80.799866%, 12.5%, 14.898682%)" fill-opacity="1" d="M 625.4375 596.296875 L 531.132812 596.296875 L 531.132812 573.046875 L 625.4375 573.046875 Z M 625.4375 596.296875 "/>
<path fill-rule="nonzero" fill="rgb(3.898621%, 40.79895%, 47.099304%)" fill-opacity="1" d="M 751.070312 596.296875 L 625.4375 596.296875 L 625.4375 573.046875 L 751.070312 573.046875 Z M 751.070312 596.296875 "/>
<path fill-rule="nonzero" fill="rgb(94.898987%, 54.499817%, 12.5%)" fill-opacity="1" d="M 809.375 596.296875 L 751.070312 596.296875 L 751.070312 573.046875 L 809.375 573.046875 Z M 809.375 596.296875 "/>
<path fill-rule="nonzero" fill="rgb(5.099487%, 6.698608%, 11.799622%)" fill-opacity="1" d="M 859.761719 596.296875 L 809.375 596.296875 L 809.375 573.046875 L 859.761719 573.046875 Z M 859.761719 596.296875 "/>
<path fill-rule="nonzero" fill="rgb(1.199341%, 2.69928%, 11.799622%)" fill-opacity="1" d="M 228.441406 767.121094 C 228.441406 763.128906 228.40625 759.960938 228.335938 757.605469 C 228.265625 755.257812 228.15625 753.40625 228.015625 752.050781 C 227.871094 750.699219 227.703125 749.675781 227.515625 748.988281 C 227.324219 748.300781 227.089844 747.644531 226.804688 747.027344 C 227.277344 747.027344 228.050781 747.050781 229.117188 747.097656 C 230.1875 747.144531 231.398438 747.195312 232.75 747.242188 C 234.105469 747.289062 235.519531 747.335938 236.992188 747.382812 C 238.464844 747.433594 239.839844 747.457031 241.125 747.457031 C 243.402344 747.457031 245.8125 747.410156 248.355469 747.3125 C 250.894531 747.21875 253.519531 747.125 256.226562 747.027344 C 256.085938 747.835938 255.980469 748.5 255.90625 749.023438 C 255.835938 749.546875 255.800781 750.140625 255.800781 750.804688 C 255.800781 752.226562 255.941406 753.679688 256.226562 755.148438 C 255.753906 754.675781 255.253906 754.222656 254.730469 753.796875 C 254.207031 753.367188 253.402344 753.011719 252.308594 752.726562 C 251.453125 752.492188 250.386719 752.3125 249.101562 752.195312 C 247.820312 752.074219 246.441406 752.015625 244.972656 752.015625 C 244.304688 752.015625 243.640625 752.027344 242.976562 752.050781 C 242.308594 752.074219 241.644531 752.085938 240.980469 752.085938 C 240.125 752.132812 239.269531 752.179688 238.414062 752.226562 C 237.5625 752.277344 236.730469 752.324219 235.921875 752.371094 C 235.875 753.511719 235.839844 754.472656 235.816406 755.257812 C 235.789062 756.039062 235.769531 756.753906 235.746094 757.394531 C 235.71875 758.035156 235.707031 758.675781 235.707031 759.316406 L 235.707031 768.332031 C 237.371094 768.425781 238.699219 768.472656 239.699219 768.472656 C 240.695312 768.472656 241.527344 768.496094 242.191406 768.542969 C 242.949219 768.59375 243.804688 768.617188 244.757812 768.617188 C 245.707031 768.617188 246.773438 768.570312 247.964844 768.472656 C 249.199219 768.425781 250.171875 768.332031 250.882812 768.1875 C 251.597656 768.046875 252.167969 767.878906 252.59375 767.6875 C 253.023438 767.5 253.355469 767.308594 253.59375 767.121094 C 253.828125 766.929688 254.113281 766.714844 254.445312 766.476562 C 254.351562 767.285156 254.257812 768.019531 254.160156 768.6875 C 254.066406 769.351562 254.019531 770.089844 254.019531 770.894531 C 254.019531 771.75 254.066406 772.570312 254.160156 773.351562 C 254.257812 774.136719 254.351562 774.910156 254.445312 775.667969 C 254.066406 775.480469 253.722656 775.289062 253.414062 775.097656 C 253.105469 774.910156 252.726562 774.742188 252.273438 774.597656 C 251.820312 774.457031 251.285156 774.328125 250.671875 774.207031 C 250.054688 774.089844 249.269531 773.984375 248.320312 773.886719 C 247.273438 773.792969 246.132812 773.734375 244.898438 773.710938 C 243.664062 773.683594 242.761719 773.675781 242.191406 773.675781 L 239.699219 773.675781 C 238.699219 773.675781 237.371094 773.722656 235.707031 773.816406 L 235.707031 781.722656 C 235.707031 783.910156 235.734375 785.808594 235.78125 787.425781 C 235.828125 789.039062 235.898438 790.441406 235.992188 791.628906 C 236.089844 792.816406 236.253906 793.929688 236.492188 794.976562 C 236.636719 795.6875 236.789062 796.25 236.957031 796.652344 C 237.121094 797.054688 237.324219 797.515625 237.5625 798.039062 C 236.65625 797.945312 235.769531 797.863281 234.890625 797.789062 C 234.011719 797.71875 233.121094 797.683594 232.21875 797.683594 C 231.265625 797.683594 230.328125 797.71875 229.402344 797.789062 C 228.476562 797.863281 227.539062 797.945312 226.589844 798.039062 C 227.015625 796.996094 227.339844 795.878906 227.550781 794.691406 C 227.765625 793.503906 227.929688 792.199219 228.050781 790.773438 C 228.167969 789.347656 228.25 787.78125 228.300781 786.070312 C 228.347656 784.359375 228.394531 782.4375 228.441406 780.300781 Z M 228.441406 767.121094 "/>
<path fill-rule="nonzero" fill="rgb(1.199341%, 2.69928%, 11.799622%)" fill-opacity="1" d="M 284.652344 751.589844 C 283.269531 751.589844 282.003906 751.742188 280.859375 752.050781 C 279.714844 752.359375 278.6875 752.753906 277.78125 753.226562 C 275.96875 754.222656 274.5 755.496094 273.378906 757.039062 C 272.257812 758.582031 271.398438 760.257812 270.804688 762.0625 C 270.207031 763.867188 269.8125 765.707031 269.621094 767.582031 C 269.429688 769.460938 269.335938 771.203125 269.335938 772.816406 C 269.335938 776.617188 269.679688 779.683594 270.375 782.011719 C 271.066406 784.335938 271.863281 786.167969 272.773438 787.496094 C 273.914062 789.15625 275.480469 790.617188 277.457031 791.878906 C 279.441406 793.136719 281.863281 793.765625 284.726562 793.765625 C 287.683594 793.765625 290.355469 792.980469 292.742188 791.414062 C 294.507812 790.132812 295.988281 788.46875 297.179688 786.425781 C 298.324219 784.433594 299.101562 782.222656 299.503906 779.800781 C 299.910156 777.378906 300.113281 774.980469 300.113281 772.605469 C 300.113281 771.703125 300.078125 770.691406 300.007812 769.578125 C 299.933594 768.460938 299.804688 767.296875 299.613281 766.085938 C 299.421875 764.875 299.136719 763.652344 298.753906 762.417969 C 298.371094 761.183594 297.894531 760.019531 297.320312 758.925781 C 296.460938 757.359375 295.484375 756.101562 294.386719 755.148438 C 293.289062 754.199219 292.167969 753.464844 291.023438 752.941406 C 289.878906 752.417969 288.757812 752.0625 287.660156 751.871094 C 286.5625 751.683594 285.558594 751.589844 284.652344 751.589844 M 284.726562 746.742188 C 288.144531 746.742188 291.445312 747.300781 294.628906 748.417969 C 297.808594 749.53125 300.542969 751.375 302.820312 753.9375 C 305.003906 756.457031 306.5 759.308594 307.308594 762.488281 C 308.117188 765.671875 308.523438 768.925781 308.523438 772.25 C 308.523438 773.199219 308.472656 774.421875 308.378906 775.917969 C 308.28125 777.414062 308.035156 779.042969 307.628906 780.796875 C 307.226562 782.554688 306.609375 784.359375 305.777344 786.214844 C 304.945312 788.066406 303.792969 789.800781 302.324219 791.414062 C 301.039062 792.886719 299.652344 794.085938 298.15625 795.011719 C 296.660156 795.9375 295.125 796.664062 293.558594 797.183594 C 291.992188 797.707031 290.4375 798.0625 288.894531 798.253906 C 287.347656 798.441406 285.890625 798.539062 284.511719 798.539062 C 283.132812 798.539062 281.757812 798.441406 280.378906 798.253906 C 279 798.0625 277.625 797.753906 276.246094 797.328125 C 272.921875 796.28125 270.070312 794.550781 267.695312 792.125 C 266.035156 790.417969 264.742188 788.589844 263.816406 786.640625 C 262.886719 784.691406 262.210938 782.804688 261.785156 780.976562 C 261.355469 779.148438 261.105469 777.5 261.035156 776.023438 C 260.964844 774.554688 260.929688 773.4375 260.929688 772.675781 C 260.929688 771.867188 260.976562 770.730469 261.070312 769.257812 C 261.164062 767.785156 261.414062 766.15625 261.820312 764.375 C 262.222656 762.59375 262.851562 760.765625 263.707031 758.890625 C 264.5625 757.015625 265.773438 755.246094 267.34375 753.582031 C 269.382812 751.398438 271.863281 749.710938 274.785156 748.523438 C 277.707031 747.335938 281.019531 746.742188 284.726562 746.742188 "/>
<path fill-rule="nonzero" fill="rgb(1.199341%, 2.69928%, 11.799622%)" fill-opacity="1" d="M 325.550781 771.535156 C 326.3125 771.632812 326.953125 771.691406 327.480469 771.714844 C 328.003906 771.738281 328.648438 771.75 329.410156 771.75 C 330.125 771.75 330.902344 771.738281 331.738281 771.714844 C 332.570312 771.691406 333.441406 771.597656 334.347656 771.429688 C 335.253906 771.265625 336.136719 770.992188 336.996094 770.609375 C 337.851562 770.230469 338.6875 769.707031 339.5 769.042969 C 340.261719 768.378906 340.859375 767.679688 341.289062 766.941406 C 341.71875 766.207031 342.039062 765.492188 342.253906 764.804688 C 342.46875 764.117188 342.597656 763.484375 342.648438 762.917969 C 342.695312 762.347656 342.71875 761.871094 342.71875 761.492188 C 342.71875 759.734375 342.433594 758.261719 341.859375 757.074219 C 341.289062 755.886719 340.488281 754.925781 339.464844 754.1875 C 338.4375 753.453125 337.246094 752.929688 335.886719 752.621094 C 334.527344 752.3125 333.058594 752.15625 331.484375 752.15625 L 325.976562 752.441406 C 325.882812 753.679688 325.796875 754.734375 325.726562 755.613281 C 325.65625 756.492188 325.609375 757.324219 325.585938 758.105469 C 325.558594 758.890625 325.550781 759.675781 325.550781 760.457031 Z M 318.28125 762.417969 C 318.28125 760.042969 318.234375 758 318.140625 756.289062 C 318.042969 754.582031 317.902344 753.121094 317.710938 751.910156 C 317.523438 750.699219 317.320312 749.710938 317.105469 748.953125 C 316.890625 748.191406 316.691406 747.550781 316.5 747.027344 C 317.070312 747.125 317.578125 747.207031 318.03125 747.277344 C 318.480469 747.347656 319.011719 747.394531 319.621094 747.421875 C 320.230469 747.445312 320.972656 747.46875 321.84375 747.492188 C 322.714844 747.515625 323.851562 747.527344 325.265625 747.527344 C 326.359375 747.527344 327.65625 747.503906 329.15625 747.457031 C 330.65625 747.410156 332.265625 747.382812 333.980469 747.382812 C 335.597656 747.382812 337.386719 747.480469 339.339844 747.667969 C 341.289062 747.859375 343.125 748.417969 344.839844 749.34375 C 346.554688 750.269531 347.996094 751.671875 349.160156 753.546875 C 350.328125 755.425781 350.910156 758.070312 350.910156 761.492188 C 350.910156 763.675781 350.507812 765.585938 349.699219 767.226562 C 348.894531 768.863281 347.929688 770.253906 346.816406 771.394531 C 345.699219 772.535156 344.523438 773.4375 343.289062 774.101562 C 342.054688 774.765625 341.007812 775.195312 340.152344 775.382812 L 347.421875 786.855469 C 348.371094 788.375 349.203125 789.679688 349.914062 790.773438 C 350.628906 791.867188 351.292969 792.839844 351.910156 793.695312 C 352.527344 794.550781 353.144531 795.308594 353.761719 795.972656 C 354.378906 796.640625 355.089844 797.328125 355.898438 798.039062 C 355.042969 797.945312 354.226562 797.863281 353.441406 797.789062 C 352.65625 797.71875 351.839844 797.683594 350.984375 797.683594 C 349.886719 797.683594 348.910156 797.71875 348.054688 797.789062 C 347.195312 797.863281 346.078125 797.945312 344.695312 798.039062 C 343.933594 796.285156 343.101562 794.5625 342.195312 792.875 C 341.289062 791.1875 340.363281 789.515625 339.410156 787.851562 C 338.3125 785.953125 337.382812 784.410156 336.621094 783.222656 C 335.859375 782.035156 335.207031 781.035156 334.65625 780.226562 C 334.109375 779.421875 333.621094 778.757812 333.195312 778.234375 C 332.765625 777.710938 332.3125 777.164062 331.835938 776.59375 L 325.621094 776.453125 L 325.621094 783.792969 C 325.667969 786.355469 325.742188 788.375 325.839844 789.847656 C 325.9375 791.320312 326.085938 792.648438 326.28125 793.835938 C 326.480469 794.976562 326.699219 795.832031 326.945312 796.402344 C 327.191406 796.972656 327.464844 797.515625 327.757812 798.039062 C 326.808594 797.945312 325.84375 797.875 324.871094 797.828125 C 323.898438 797.777344 322.9375 797.753906 321.984375 797.753906 C 321.035156 797.753906 320.085938 797.777344 319.136719 797.828125 C 318.1875 797.875 317.234375 797.945312 316.285156 798.039062 C 316.570312 797.613281 316.832031 797.148438 317.070312 796.652344 C 317.308594 796.152344 317.523438 795.285156 317.710938 794.050781 C 317.949219 792.433594 318.089844 790.121094 318.140625 787.101562 C 318.1875 784.089844 318.234375 780.132812 318.28125 775.242188 Z M 318.28125 762.417969 "/>
<path fill-rule="nonzero" fill="rgb(1.199341%, 2.69928%, 11.799622%)" fill-opacity="1" d="M 405.058594 764.695312 C 404.773438 763.652344 404.511719 762.726562 404.273438 761.917969 C 404.035156 761.113281 403.8125 760.328125 403.597656 759.566406 C 403.382812 758.808594 403.179688 758.011719 402.992188 757.179688 C 402.800781 756.347656 402.566406 755.363281 402.28125 754.222656 C 402.183594 753.703125 402.078125 753.214844 401.957031 752.761719 C 401.839844 752.3125 401.734375 751.847656 401.636719 751.375 L 393.230469 776.953125 C 394.511719 777.046875 395.808594 777.117188 397.113281 777.164062 C 398.417969 777.214844 399.738281 777.238281 401.066406 777.238281 C 402.351562 777.238281 403.644531 777.214844 404.953125 777.164062 C 406.257812 777.117188 407.550781 777.046875 408.832031 776.953125 Z M 392.804688 758.570312 C 393.375 756.859375 393.847656 755.425781 394.230469 754.257812 C 394.609375 753.09375 394.90625 752.097656 395.121094 751.265625 C 395.332031 750.4375 395.511719 749.710938 395.652344 749.09375 C 395.796875 748.476562 395.914062 747.835938 396.007812 747.171875 C 397.007812 747.265625 398.003906 747.359375 399 747.457031 C 400 747.550781 400.996094 747.597656 401.996094 747.597656 C 402.945312 747.597656 403.90625 747.550781 404.878906 747.457031 C 405.851562 747.359375 406.816406 747.265625 407.765625 747.171875 C 408.050781 748.59375 408.324219 749.855469 408.585938 750.945312 C 408.84375 752.039062 409.117188 753.132812 409.402344 754.222656 C 409.6875 755.316406 410.03125 756.480469 410.4375 757.714844 C 410.839844 758.949219 411.328125 760.421875 411.898438 762.132812 L 418.308594 781.441406 C 418.832031 782.816406 419.402344 784.445312 420.019531 786.320312 C 420.636719 788.195312 421.207031 789.824219 421.730469 791.199219 C 422.15625 792.433594 422.535156 793.421875 422.871094 794.15625 C 423.203125 794.894531 423.5 795.511719 423.757812 796.007812 C 424.019531 796.507812 424.28125 796.902344 424.542969 797.183594 C 424.804688 797.46875 425.078125 797.753906 425.363281 798.039062 C 424.410156 797.898438 423.441406 797.777344 422.441406 797.683594 C 421.445312 797.589844 420.46875 797.542969 419.519531 797.542969 C 418.570312 797.542969 417.632812 797.589844 416.707031 797.683594 C 415.78125 797.777344 414.839844 797.898438 413.894531 798.039062 C 413.9375 797.800781 413.988281 797.53125 414.035156 797.21875 C 414.082031 796.914062 414.105469 796.59375 414.105469 796.257812 C 414.105469 795.59375 413.964844 794.703125 413.679688 793.585938 C 413.394531 792.472656 413.0625 791.222656 412.679688 789.847656 L 410.542969 782.863281 C 407.457031 782.578125 404.390625 782.4375 401.351562 782.4375 C 399.691406 782.4375 398.039062 782.484375 396.402344 782.578125 C 394.761719 782.675781 393.113281 782.769531 391.449219 782.863281 L 389.667969 788.921875 C 389.242188 790.488281 388.910156 791.734375 388.671875 792.660156 C 388.433594 793.585938 388.242188 794.3125 388.101562 794.835938 C 387.957031 795.359375 387.875 795.75 387.851562 796.007812 C 387.828125 796.269531 387.816406 796.519531 387.816406 796.757812 L 387.816406 797.328125 C 387.816406 797.46875 387.839844 797.730469 387.886719 798.113281 C 387.078125 798.015625 386.257812 797.921875 385.429688 797.828125 C 384.597656 797.730469 383.753906 797.683594 382.902344 797.683594 C 382.09375 797.683594 381.261719 797.730469 380.40625 797.828125 C 379.550781 797.921875 378.71875 798.015625 377.914062 798.113281 C 378.625 796.96875 379.21875 795.972656 379.695312 795.121094 C 380.167969 794.261719 380.644531 793.292969 381.121094 792.199219 C 381.59375 791.105469 382.117188 789.789062 382.6875 788.242188 C 383.257812 786.699219 383.96875 784.695312 384.824219 782.222656 Z M 392.804688 758.570312 "/>
<path fill-rule="nonzero" fill="rgb(1.199341%, 2.69928%, 11.799622%)" fill-opacity="1" d="M 432.273438 765.339844 C 432.273438 763.199219 432.246094 761.242188 432.203125 759.460938 C 432.152344 757.679688 432.082031 755.910156 431.988281 754.152344 C 431.890625 753.15625 431.808594 752.3125 431.738281 751.625 C 431.667969 750.9375 431.570312 750.328125 431.453125 749.808594 C 431.335938 749.285156 431.203125 748.808594 431.0625 748.382812 C 430.917969 747.953125 430.753906 747.503906 430.5625 747.027344 C 430.707031 747.074219 430.988281 747.125 431.417969 747.171875 C 431.84375 747.21875 432.324219 747.265625 432.851562 747.3125 C 433.378906 747.359375 433.929688 747.398438 434.503906 747.421875 C 435.078125 747.445312 435.609375 747.457031 436.089844 747.457031 C 437.09375 747.457031 438.0625 747.40625 438.996094 747.3125 C 439.929688 747.21875 440.847656 747.125 441.75 747.027344 C 441.605469 747.3125 441.464844 747.632812 441.320312 747.988281 C 441.179688 748.347656 441.023438 748.867188 440.859375 749.558594 C 440.691406 750.246094 440.523438 751.171875 440.359375 752.335938 C 440.191406 753.5 440.050781 754.984375 439.933594 756.789062 C 439.8125 758.59375 439.71875 760.804688 439.648438 763.414062 C 439.574219 766.027344 439.539062 769.160156 439.539062 772.816406 C 439.539062 775.335938 439.550781 777.484375 439.574219 779.265625 C 439.597656 781.046875 439.632812 782.648438 439.683594 784.074219 C 439.730469 785.5 439.789062 786.816406 439.859375 788.03125 C 439.933594 789.242188 440.015625 790.511719 440.109375 791.84375 C 441.34375 792.082031 442.613281 792.28125 443.921875 792.445312 C 445.226562 792.613281 446.949219 792.695312 449.085938 792.695312 C 451.222656 792.695312 452.96875 792.601562 454.324219 792.410156 C 455.675781 792.222656 456.804688 791.972656 457.707031 791.664062 C 458.609375 791.355469 459.347656 790.984375 459.914062 790.558594 C 460.484375 790.132812 461.03125 789.679688 461.554688 789.207031 C 461.363281 790.203125 461.210938 791.046875 461.09375 791.734375 C 460.972656 792.425781 460.867188 793.078125 460.769531 793.695312 C 460.675781 794.3125 460.59375 794.953125 460.523438 795.617188 C 460.449219 796.28125 460.367188 797.066406 460.273438 797.96875 C 459.085938 797.921875 458.039062 797.875 457.136719 797.824219 C 456.234375 797.777344 455.273438 797.730469 454.253906 797.683594 C 453.230469 797.636719 452.042969 797.613281 450.691406 797.613281 L 440.101562 797.613281 C 438.671875 797.613281 437.417969 797.636719 436.339844 797.683594 C 435.257812 797.730469 434.238281 797.777344 433.28125 797.824219 C 432.324219 797.875 431.25 797.921875 430.0625 797.96875 C 430.445312 797.257812 430.753906 796.59375 430.988281 795.972656 C 431.226562 795.359375 431.417969 794.523438 431.558594 793.480469 C 431.703125 792.578125 431.820312 791.472656 431.917969 790.167969 C 432.011719 788.859375 432.082031 787.507812 432.128906 786.105469 C 432.175781 784.707031 432.210938 783.316406 432.238281 781.9375 C 432.261719 780.5625 432.273438 779.351562 432.273438 778.304688 Z M 432.273438 765.339844 "/>
<path fill-rule="nonzero" fill="rgb(1.199341%, 2.69928%, 11.799622%)" fill-opacity="1" d="M 468.894531 765.339844 C 468.894531 763.199219 468.867188 761.242188 468.824219 759.460938 C 468.773438 757.679688 468.703125 755.910156 468.609375 754.152344 C 468.511719 753.15625 468.429688 752.3125 468.359375 751.625 C 468.289062 750.9375 468.191406 750.328125 468.074219 749.808594 C 467.957031 749.285156 467.824219 748.808594 467.683594 748.382812 C 467.539062 747.953125 467.371094 747.503906 467.183594 747.027344 C 467.328125 747.074219 467.609375 747.125 468.039062 747.171875 C 468.464844 747.21875 468.945312 747.265625 469.472656 747.3125 C 470 747.359375 470.550781 747.398438 471.125 747.421875 C 471.699219 747.445312 472.230469 747.457031 472.707031 747.457031 C 473.714844 747.457031 474.683594 747.40625 475.617188 747.3125 C 476.546875 747.21875 477.464844 747.125 478.371094 747.027344 C 478.226562 747.3125 478.082031 747.632812 477.941406 747.988281 C 477.800781 748.347656 477.644531 748.867188 477.480469 749.558594 C 477.3125 750.246094 477.144531 751.171875 476.980469 752.335938 C 476.8125 753.5 476.671875 754.984375 476.550781 756.789062 C 476.433594 758.59375 476.339844 760.804688 476.269531 763.414062 C 476.195312 766.027344 476.160156 769.160156 476.160156 772.816406 C 476.160156 775.335938 476.171875 777.484375 476.195312 779.265625 C 476.21875 781.046875 476.253906 782.648438 476.300781 784.074219 C 476.347656 785.5 476.410156 786.816406 476.480469 788.03125 C 476.550781 789.242188 476.632812 790.511719 476.730469 791.84375 C 477.964844 792.082031 479.234375 792.28125 480.542969 792.445312 C 481.847656 792.613281 483.570312 792.695312 485.707031 792.695312 C 487.84375 792.695312 489.589844 792.601562 490.945312 792.410156 C 492.296875 792.222656 493.425781 791.972656 494.328125 791.664062 C 495.230469 791.355469 495.964844 790.984375 496.535156 790.558594 C 497.105469 790.132812 497.652344 789.679688 498.175781 789.207031 C 497.984375 790.203125 497.832031 791.046875 497.710938 791.734375 C 497.59375 792.425781 497.488281 793.078125 497.390625 793.695312 C 497.296875 794.3125 497.214844 794.953125 497.144531 795.617188 C 497.070312 796.28125 496.988281 797.066406 496.894531 797.96875 C 495.707031 797.921875 494.660156 797.875 493.757812 797.824219 C 492.855469 797.777344 491.894531 797.730469 490.871094 797.683594 C 489.851562 797.636719 488.664062 797.613281 487.3125 797.613281 L 476.722656 797.613281 C 475.292969 797.613281 474.039062 797.636719 472.957031 797.683594 C 471.878906 797.730469 470.859375 797.777344 469.902344 797.824219 C 468.945312 797.875 467.871094 797.921875 466.683594 797.96875 C 467.066406 797.257812 467.371094 796.59375 467.609375 795.972656 C 467.847656 795.359375 468.039062 794.523438 468.179688 793.480469 C 468.324219 792.578125 468.441406 791.472656 468.539062 790.167969 C 468.632812 788.859375 468.703125 787.507812 468.75 786.105469 C 468.796875 784.707031 468.832031 783.316406 468.859375 781.9375 C 468.882812 780.5625 468.894531 779.351562 468.894531 778.304688 Z M 468.894531 765.339844 "/>
<path fill-rule="nonzero" fill="rgb(1.199341%, 2.69928%, 11.799622%)" fill-opacity="1" d="M 524.25 772.960938 C 524.25 764.414062 526.425781 757.90625 530.769531 753.441406 C 535.117188 748.976562 541.609375 746.742188 550.257812 746.742188 C 552.15625 746.742188 554.160156 746.839844 556.277344 747.027344 C 558.390625 747.21875 560.847656 747.835938 563.648438 748.878906 C 563.269531 749.6875 562.949219 750.375 562.6875 750.945312 C 562.425781 751.515625 562.214844 752.0625 562.046875 752.585938 C 561.878906 753.109375 561.738281 753.652344 561.621094 754.222656 C 561.5 754.792969 561.371094 755.480469 561.226562 756.289062 C 560.753906 755.671875 560.265625 755.078125 559.769531 754.507812 C 559.269531 753.9375 558.566406 753.394531 557.664062 752.871094 C 556.761719 752.347656 555.65625 751.941406 554.351562 751.65625 C 553.046875 751.375 551.679688 751.230469 550.257812 751.230469 C 547.453125 751.230469 544.898438 751.777344 542.597656 752.871094 C 540.292969 753.964844 538.453125 755.339844 537.074219 757.003906 C 536.316406 757.90625 535.660156 758.9375 535.117188 760.101562 C 534.570312 761.265625 534.117188 762.5 533.761719 763.804688 C 533.40625 765.113281 533.132812 766.453125 532.941406 767.832031 C 532.753906 769.210938 532.65625 770.585938 532.65625 771.964844 C 532.65625 775.195312 533.132812 778.257812 534.082031 781.152344 C 535.03125 784.054688 536.410156 786.453125 538.214844 788.351562 C 539.972656 790.203125 542.027344 791.558594 544.378906 792.410156 C 546.730469 793.265625 549.1875 793.695312 551.753906 793.695312 C 553.507812 793.695312 555.039062 793.550781 556.347656 793.265625 C 557.652344 792.980469 558.769531 792.636719 559.695312 792.234375 C 560.621094 791.832031 561.40625 791.402344 562.046875 790.953125 C 562.6875 790.5 563.222656 790.109375 563.648438 789.773438 C 563.410156 790.535156 563.210938 791.191406 563.046875 791.734375 C 562.878906 792.28125 562.734375 792.828125 562.617188 793.375 C 562.496094 793.921875 562.390625 794.476562 562.296875 795.046875 C 562.199219 795.617188 562.082031 796.332031 561.941406 797.183594 C 560.941406 797.421875 559.507812 797.683594 557.628906 797.96875 C 555.753906 798.253906 553.367188 798.398438 550.46875 798.398438 C 549.757812 798.398438 548.664062 798.359375 547.191406 798.289062 C 545.71875 798.21875 544.070312 797.96875 542.242188 797.542969 C 540.410156 797.113281 538.5 796.425781 536.503906 795.476562 C 534.511719 794.523438 532.664062 793.195312 530.964844 791.484375 C 528.515625 788.921875 526.78125 786.011719 525.769531 782.757812 C 524.757812 779.503906 524.25 776.238281 524.25 772.960938 "/>
<path fill-rule="nonzero" fill="rgb(1.199341%, 2.69928%, 11.799622%)" fill-opacity="1" d="M 571.128906 768.1875 C 571.082031 765.292969 571.03125 762.644531 570.984375 760.246094 C 570.9375 757.84375 570.84375 755.71875 570.703125 753.867188 C 570.605469 752.777344 570.5 751.863281 570.382812 751.125 C 570.261719 750.390625 570.144531 749.769531 570.023438 749.273438 C 569.90625 748.773438 569.785156 748.359375 569.667969 748.027344 C 569.550781 747.695312 569.417969 747.382812 569.277344 747.097656 C 570.226562 747.195312 571.152344 747.289062 572.054688 747.382812 C 572.957031 747.480469 573.882812 747.527344 574.835938 747.527344 C 575.78125 747.527344 576.722656 747.480469 577.648438 747.382812 C 578.574219 747.289062 579.488281 747.195312 580.390625 747.097656 C 580.105469 747.714844 579.84375 748.335938 579.609375 748.953125 C 579.367188 749.570312 579.15625 750.496094 578.964844 751.730469 C 578.824219 752.632812 578.71875 753.667969 578.644531 754.828125 C 578.574219 755.992188 578.527344 757.15625 578.503906 758.320312 C 578.480469 759.484375 578.453125 760.613281 578.433594 761.703125 C 578.40625 762.796875 578.398438 763.746094 578.398438 764.554688 L 578.398438 768.117188 C 580.4375 768.210938 582.457031 768.285156 584.453125 768.332031 C 586.445312 768.378906 588.464844 768.402344 590.507812 768.402344 C 592.503906 768.402344 594.425781 768.378906 596.277344 768.332031 C 598.132812 768.285156 600.171875 768.210938 602.40625 768.117188 L 602.40625 763.914062 C 602.359375 762.394531 602.335938 760.992188 602.335938 759.710938 C 602.335938 758.425781 602.285156 757.167969 602.191406 755.933594 C 602.097656 754.558594 602.003906 753.40625 601.90625 752.476562 C 601.8125 751.550781 601.691406 750.769531 601.550781 750.125 C 601.410156 749.484375 601.265625 748.941406 601.125 748.488281 C 600.980469 748.039062 600.816406 747.574219 600.625 747.097656 C 601.574219 747.195312 602.5 747.289062 603.402344 747.382812 C 604.304688 747.480469 605.230469 747.527344 606.183594 747.527344 C 607.085938 747.527344 607.976562 747.480469 608.855469 747.382812 C 609.734375 747.289062 610.648438 747.195312 611.597656 747.097656 C 611.359375 747.8125 611.15625 748.5 610.992188 749.164062 C 610.824219 749.832031 610.671875 750.734375 610.527344 751.871094 C 610.386719 752.917969 610.265625 754.09375 610.171875 755.398438 C 610.074219 756.707031 609.992188 758.082031 609.921875 759.53125 C 609.851562 760.980469 609.789062 762.441406 609.742188 763.914062 C 609.695312 765.386719 609.648438 766.8125 609.601562 768.1875 L 609.601562 773.957031 C 609.601562 777.378906 609.613281 780.5625 609.636719 783.503906 C 609.660156 786.453125 609.769531 789.085938 609.957031 791.414062 C 610.054688 792.457031 610.160156 793.328125 610.277344 794.015625 C 610.398438 794.703125 610.515625 795.296875 610.636719 795.796875 C 610.753906 796.292969 610.894531 796.710938 611.0625 797.042969 C 611.230469 797.375 611.382812 797.707031 611.523438 798.039062 C 610.574219 797.945312 609.660156 797.851562 608.78125 797.753906 C 607.902344 797.660156 606.988281 797.613281 606.039062 797.613281 C 605.089844 797.613281 604.152344 797.660156 603.226562 797.753906 C 602.300781 797.851562 601.359375 797.945312 600.410156 798.039062 C 600.742188 797.089844 601.027344 796.082031 601.265625 795.011719 C 601.503906 793.945312 601.683594 792.71875 601.800781 791.34375 C 601.917969 789.964844 602.015625 788.410156 602.085938 786.675781 C 602.15625 784.941406 602.238281 782.960938 602.335938 780.726562 L 602.335938 773.957031 C 600.195312 773.863281 598.179688 773.78125 596.277344 773.707031 C 594.378906 773.636719 592.480469 773.601562 590.578125 773.601562 C 588.535156 773.601562 586.507812 773.636719 584.488281 773.707031 C 582.46875 773.78125 580.4375 773.863281 578.398438 773.957031 L 578.398438 780.65625 C 578.398438 784.03125 578.453125 786.738281 578.574219 788.777344 C 578.691406 790.820312 578.835938 792.4375 579.003906 793.625 C 579.167969 794.8125 579.359375 795.703125 579.570312 796.292969 C 579.785156 796.890625 580.035156 797.46875 580.320312 798.039062 C 579.417969 797.945312 578.492188 797.851562 577.539062 797.753906 C 576.589844 797.660156 575.640625 797.613281 574.691406 797.613281 C 573.742188 797.613281 572.789062 797.660156 571.84375 797.753906 C 570.890625 797.851562 569.941406 797.945312 568.992188 798.039062 C 569.230469 797.566406 569.441406 797.113281 569.632812 796.6875 C 569.820312 796.257812 569.988281 795.773438 570.132812 795.226562 C 570.273438 794.679688 570.382812 794.050781 570.453125 793.335938 C 570.523438 792.625 570.605469 791.722656 570.703125 790.628906 C 570.9375 787.351562 571.070312 784.421875 571.09375 781.832031 C 571.117188 779.242188 571.128906 776.621094 571.128906 773.957031 Z M 571.128906 768.1875 "/>
<path fill-rule="nonzero" fill="rgb(1.199341%, 2.69928%, 11.799622%)" fill-opacity="1" d="M 622.851562 766.191406 C 622.757812 763.484375 622.6875 761.335938 622.636719 759.746094 C 622.589844 758.15625 622.554688 756.871094 622.53125 755.898438 C 622.507812 754.925781 622.460938 754.175781 622.390625 753.652344 C 622.320312 753.132812 622.257812 752.609375 622.210938 752.085938 C 622.023438 750.613281 621.832031 749.570312 621.640625 748.953125 C 621.453125 748.335938 621.214844 747.695312 620.929688 747.027344 C 621.878906 747.125 622.804688 747.21875 623.707031 747.3125 C 624.609375 747.410156 625.535156 747.457031 626.488281 747.457031 C 627.4375 747.457031 628.363281 747.410156 629.265625 747.3125 C 630.167969 747.21875 631.09375 747.125 632.042969 747.027344 C 631.617188 748.027344 631.269531 748.953125 631.011719 749.804688 C 630.75 750.660156 630.546875 751.742188 630.40625 753.046875 C 630.261719 754.355469 630.167969 756.015625 630.121094 758.035156 C 630.074219 760.054688 630.023438 762.75 629.976562 766.121094 L 629.976562 776.132812 C 629.976562 777.582031 629.988281 779.003906 630.011719 780.40625 C 630.035156 781.808594 630.074219 783.21875 630.121094 784.644531 C 630.167969 786.070312 630.214844 787.589844 630.261719 789.207031 C 630.308594 790.535156 630.371094 791.617188 630.441406 792.449219 C 630.511719 793.277344 630.605469 794.003906 630.726562 794.621094 C 630.84375 795.238281 631.011719 795.808594 631.222656 796.332031 C 631.4375 796.855469 631.6875 797.421875 631.972656 798.039062 C 631.023438 797.898438 630.09375 797.777344 629.195312 797.683594 C 628.289062 797.589844 627.363281 797.542969 626.414062 797.542969 C 625.464844 797.542969 624.539062 797.589844 623.636719 797.683594 C 622.734375 797.777344 621.808594 797.898438 620.859375 798.039062 C 621.046875 797.613281 621.226562 797.183594 621.394531 796.757812 C 621.558594 796.332031 621.710938 795.796875 621.855469 795.15625 C 622 794.511719 622.117188 793.71875 622.210938 792.769531 C 622.304688 791.820312 622.402344 790.628906 622.496094 789.207031 C 622.636719 786.070312 622.734375 783.148438 622.78125 780.441406 C 622.828125 777.734375 622.851562 774.765625 622.851562 771.535156 Z M 622.851562 766.191406 "/>
<path fill-rule="nonzero" fill="rgb(1.199341%, 2.69928%, 11.799622%)" fill-opacity="1" d="M 642.800781 765.339844 C 642.800781 763.199219 642.777344 761.242188 642.730469 759.460938 C 642.683594 757.679688 642.609375 755.910156 642.515625 754.152344 C 642.417969 753.15625 642.335938 752.3125 642.265625 751.625 C 642.195312 750.9375 642.101562 750.328125 641.980469 749.808594 C 641.863281 749.285156 641.734375 748.808594 641.589844 748.382812 C 641.445312 747.953125 641.28125 747.503906 641.089844 747.027344 C 641.234375 747.074219 641.519531 747.125 641.945312 747.171875 C 642.375 747.21875 642.851562 747.265625 643.378906 747.3125 C 643.90625 747.359375 644.457031 747.398438 645.03125 747.421875 C 645.609375 747.445312 646.136719 747.457031 646.617188 747.457031 C 647.621094 747.457031 648.59375 747.40625 649.527344 747.3125 C 650.457031 747.21875 651.375 747.125 652.277344 747.027344 C 652.136719 747.3125 651.992188 747.632812 651.851562 747.988281 C 651.707031 748.347656 651.550781 748.867188 651.386719 749.558594 C 651.21875 750.246094 651.054688 751.171875 650.886719 752.335938 C 650.722656 753.5 650.578125 754.984375 650.460938 756.789062 C 650.339844 758.59375 650.246094 760.804688 650.175781 763.414062 C 650.105469 766.027344 650.070312 769.160156 650.070312 772.816406 C 650.070312 775.335938 650.078125 777.484375 650.105469 779.265625 C 650.125 781.046875 650.164062 782.648438 650.210938 784.074219 C 650.257812 785.5 650.316406 786.816406 650.390625 788.03125 C 650.460938 789.242188 650.542969 790.511719 650.636719 791.84375 C 651.871094 792.082031 653.144531 792.28125 654.449219 792.445312 C 655.753906 792.613281 657.476562 792.695312 659.613281 792.695312 C 661.753906 792.695312 663.496094 792.601562 664.851562 792.410156 C 666.203125 792.222656 667.332031 791.972656 668.238281 791.664062 C 669.136719 791.355469 669.875 790.984375 670.445312 790.558594 C 671.015625 790.132812 671.558594 789.679688 672.082031 789.207031 C 671.894531 790.203125 671.738281 791.046875 671.621094 791.734375 C 671.5 792.425781 671.394531 793.078125 671.300781 793.695312 C 671.203125 794.3125 671.121094 794.953125 671.050781 795.617188 C 670.980469 796.28125 670.894531 797.066406 670.800781 797.96875 C 669.613281 797.921875 668.566406 797.875 667.664062 797.824219 C 666.761719 797.777344 665.800781 797.730469 664.78125 797.683594 C 663.757812 797.636719 662.570312 797.613281 661.21875 797.613281 L 650.628906 797.613281 C 649.199219 797.613281 647.945312 797.636719 646.867188 797.683594 C 645.785156 797.730469 644.769531 797.777344 643.8125 797.824219 C 642.851562 797.875 641.78125 797.921875 640.59375 797.96875 C 640.972656 797.257812 641.28125 796.59375 641.519531 795.972656 C 641.753906 795.359375 641.945312 794.523438 642.089844 793.480469 C 642.230469 792.578125 642.347656 791.472656 642.445312 790.167969 C 642.539062 788.859375 642.609375 787.507812 642.65625 786.105469 C 642.703125 784.707031 642.742188 783.316406 642.765625 781.9375 C 642.789062 780.5625 642.800781 779.351562 642.800781 778.304688 Z M 642.800781 765.339844 "/>
<path fill-rule="nonzero" fill="rgb(1.199341%, 2.69928%, 11.799622%)" fill-opacity="1" d="M 686.6875 788.207031 C 686.6875 788.875 686.734375 789.503906 686.832031 790.097656 C 686.925781 790.691406 687.210938 791.214844 687.683594 791.664062 C 688.160156 792.117188 688.882812 792.472656 689.859375 792.730469 C 690.832031 792.992188 692.21875 793.125 694.027344 793.125 C 694.597656 793.125 695.355469 793.101562 696.304688 793.054688 C 697.253906 793.007812 698.289062 792.886719 699.40625 792.695312 C 700.523438 792.507812 701.671875 792.234375 702.863281 791.878906 C 704.046875 791.519531 705.140625 791.035156 706.136719 790.417969 C 707.945312 789.324219 709.367188 787.960938 710.414062 786.320312 C 711.457031 784.683594 712.242188 782.984375 712.765625 781.226562 C 713.285156 779.46875 713.609375 777.757812 713.726562 776.097656 C 713.84375 774.433594 713.90625 773.03125 713.90625 771.894531 C 713.90625 770.5625 713.832031 769.175781 713.691406 767.726562 C 713.546875 766.277344 713.261719 764.828125 712.835938 763.378906 C 712.410156 761.929688 711.789062 760.527344 710.984375 759.175781 C 710.175781 757.820312 709.082031 756.601562 707.707031 755.507812 C 706.613281 754.652344 705.484375 753.984375 704.320312 753.511719 C 703.15625 753.039062 702.042969 752.679688 700.972656 752.441406 C 699.90625 752.207031 698.917969 752.0625 698.015625 752.015625 C 697.113281 751.96875 696.378906 751.941406 695.808594 751.941406 C 694.144531 751.941406 692.503906 752.039062 690.890625 752.230469 C 689.277344 752.417969 687.996094 752.5625 687.042969 752.65625 C 686.996094 753.464844 686.949219 754.484375 686.902344 755.71875 C 686.855469 756.957031 686.820312 758.273438 686.792969 759.675781 C 686.769531 761.074219 686.746094 762.511719 686.722656 763.984375 C 686.699219 765.457031 686.6875 766.859375 686.6875 768.1875 Z M 679.421875 769.46875 C 679.421875 766.714844 679.398438 764.339844 679.347656 762.347656 C 679.300781 760.351562 679.253906 758.640625 679.207031 757.214844 C 679.160156 755.792969 679.089844 754.605469 678.996094 753.652344 C 678.898438 752.703125 678.78125 751.859375 678.636719 751.125 C 678.496094 750.390625 678.339844 749.710938 678.175781 749.09375 C 678.007812 748.476562 677.804688 747.8125 677.570312 747.097656 C 677.804688 747.144531 678.21875 747.207031 678.816406 747.277344 C 679.410156 747.347656 680.074219 747.421875 680.808594 747.492188 C 681.546875 747.5625 682.304688 747.621094 683.089844 747.667969 C 683.875 747.71875 684.597656 747.742188 685.261719 747.742188 C 686.402344 747.742188 687.484375 747.703125 688.503906 747.632812 C 689.527344 747.5625 690.546875 747.492188 691.570312 747.421875 C 692.589844 747.347656 693.660156 747.277344 694.773438 747.207031 C 695.890625 747.136719 697.113281 747.097656 698.445312 747.097656 C 700.199219 747.097656 702.125 747.207031 704.214844 747.421875 C 706.304688 747.632812 708.347656 748.132812 710.339844 748.917969 C 712.335938 749.699219 714.199219 750.851562 715.933594 752.371094 C 717.667969 753.890625 719.082031 755.980469 720.171875 758.640625 C 720.601562 759.734375 720.957031 760.875 721.242188 762.0625 C 721.527344 763.25 721.742188 764.425781 721.882812 765.585938 C 722.027344 766.753906 722.132812 767.855469 722.203125 768.898438 C 722.277344 769.945312 722.3125 770.894531 722.3125 771.75 C 722.3125 775.359375 721.777344 778.886719 720.707031 782.332031 C 719.640625 785.773438 717.824219 788.777344 715.257812 791.34375 C 713.738281 792.863281 712.0625 794.0625 710.234375 794.941406 C 708.40625 795.820312 706.542969 796.484375 704.640625 796.9375 C 702.742188 797.386719 700.875 797.671875 699.050781 797.789062 C 697.21875 797.910156 695.546875 797.96875 694.027344 797.96875 C 691.839844 797.96875 689.894531 797.921875 688.183594 797.828125 C 686.472656 797.730469 684.929688 797.683594 683.554688 797.683594 C 682.035156 797.683594 680.835938 797.71875 679.957031 797.789062 C 679.078125 797.859375 678.183594 797.921875 677.285156 797.96875 C 677.425781 797.777344 677.605469 797.519531 677.820312 797.183594 C 678.03125 796.855469 678.21875 796.292969 678.386719 795.511719 C 678.554688 794.726562 678.710938 793.671875 678.851562 792.339844 C 678.996094 791.011719 679.113281 789.253906 679.207031 787.066406 C 679.300781 784.929688 679.347656 783.199219 679.347656 781.867188 C 679.347656 780.539062 679.375 779.277344 679.421875 778.089844 Z M 679.421875 769.46875 "/>
<path fill-rule="nonzero" fill="rgb(1.199341%, 2.69928%, 11.799622%)" fill-opacity="1" d="M 739.550781 771.535156 C 740.316406 771.632812 740.957031 771.691406 741.484375 771.714844 C 742.007812 771.738281 742.652344 771.75 743.414062 771.75 C 744.128906 771.75 744.90625 771.738281 745.738281 771.714844 C 746.574219 771.691406 747.445312 771.597656 748.351562 771.429688 C 749.257812 771.265625 750.140625 770.992188 750.996094 770.609375 C 751.855469 770.230469 752.691406 769.707031 753.503906 769.042969 C 754.265625 768.378906 754.859375 767.679688 755.289062 766.941406 C 755.71875 766.207031 756.042969 765.492188 756.257812 764.804688 C 756.472656 764.117188 756.601562 763.484375 756.648438 762.917969 C 756.699219 762.347656 756.722656 761.871094 756.722656 761.492188 C 756.722656 759.734375 756.433594 758.261719 755.863281 757.074219 C 755.289062 755.886719 754.492188 754.925781 753.464844 754.1875 C 752.441406 753.453125 751.246094 752.929688 749.890625 752.621094 C 748.527344 752.3125 747.0625 752.15625 745.488281 752.15625 L 739.980469 752.441406 C 739.882812 753.679688 739.800781 754.734375 739.730469 755.613281 C 739.65625 756.492188 739.609375 757.324219 739.585938 758.105469 C 739.5625 758.890625 739.550781 759.675781 739.550781 760.457031 Z M 732.285156 762.417969 C 732.285156 760.042969 732.238281 758 732.140625 756.289062 C 732.046875 754.582031 731.902344 753.121094 731.714844 751.910156 C 731.523438 750.699219 731.324219 749.710938 731.109375 748.953125 C 730.894531 748.191406 730.691406 747.550781 730.503906 747.027344 C 731.074219 747.125 731.582031 747.207031 732.03125 747.277344 C 732.484375 747.347656 733.011719 747.394531 733.625 747.421875 C 734.234375 747.445312 734.976562 747.46875 735.847656 747.492188 C 736.714844 747.515625 737.855469 747.527344 739.265625 747.527344 C 740.363281 747.527344 741.660156 747.503906 743.160156 747.457031 C 744.660156 747.410156 746.269531 747.382812 747.984375 747.382812 C 749.601562 747.382812 751.390625 747.480469 753.339844 747.667969 C 755.292969 747.859375 757.125 748.417969 758.84375 749.34375 C 760.554688 750.269531 761.996094 751.671875 763.164062 753.546875 C 764.332031 755.425781 764.914062 758.070312 764.914062 761.492188 C 764.914062 763.675781 764.511719 765.585938 763.703125 767.226562 C 762.894531 768.863281 761.933594 770.253906 760.820312 771.394531 C 759.703125 772.535156 758.527344 773.4375 757.292969 774.101562 C 756.058594 774.765625 755.011719 775.195312 754.15625 775.382812 L 761.421875 786.855469 C 762.375 788.375 763.203125 789.679688 763.917969 790.773438 C 764.628906 791.867188 765.292969 792.839844 765.914062 793.695312 C 766.53125 794.550781 767.148438 795.308594 767.765625 795.972656 C 768.382812 796.640625 769.09375 797.328125 769.902344 798.039062 C 769.046875 797.945312 768.230469 797.863281 767.445312 797.789062 C 766.660156 797.71875 765.84375 797.683594 764.988281 797.683594 C 763.890625 797.683594 762.914062 797.71875 762.058594 797.789062 C 761.199219 797.863281 760.078125 797.945312 758.699219 798.039062 C 757.9375 796.285156 757.101562 794.5625 756.199219 792.875 C 755.292969 791.1875 754.363281 789.515625 753.410156 787.851562 C 752.316406 785.953125 751.386719 784.410156 750.625 783.222656 C 749.863281 782.035156 749.207031 781.035156 748.660156 780.226562 C 748.113281 779.421875 747.625 778.757812 747.195312 778.234375 C 746.765625 777.710938 746.316406 777.164062 745.839844 776.59375 L 739.621094 776.453125 L 739.621094 783.792969 C 739.671875 786.355469 739.746094 788.375 739.84375 789.847656 C 739.941406 791.320312 740.089844 792.648438 740.285156 793.835938 C 740.484375 794.976562 740.703125 795.832031 740.949219 796.402344 C 741.195312 796.972656 741.464844 797.515625 741.761719 798.039062 C 740.808594 797.945312 739.847656 797.875 738.875 797.828125 C 737.902344 797.777344 736.9375 797.753906 735.988281 797.753906 C 735.039062 797.753906 734.089844 797.777344 733.140625 797.828125 C 732.1875 797.875 731.238281 797.945312 730.289062 798.039062 C 730.574219 797.613281 730.835938 797.148438 731.074219 796.652344 C 731.3125 796.152344 731.523438 795.285156 731.714844 794.050781 C 731.953125 792.433594 732.09375 790.121094 732.140625 787.101562 C 732.1875 784.089844 732.238281 780.132812 732.285156 775.242188 Z M 732.285156 762.417969 "/>
<path fill-rule="nonzero" fill="rgb(1.199341%, 2.69928%, 11.799622%)" fill-opacity="1" d="M 776.671875 762.773438 C 776.621094 760.492188 776.585938 758.605469 776.5625 757.109375 C 776.539062 755.613281 776.46875 754.320312 776.351562 753.226562 C 776.230469 752.132812 776.074219 751.113281 775.886719 750.164062 C 775.695312 749.210938 775.410156 748.167969 775.03125 747.027344 C 775.410156 747.074219 775.886719 747.125 776.453125 747.167969 C 777.019531 747.21875 777.753906 747.265625 778.648438 747.3125 C 779.539062 747.359375 780.636719 747.398438 781.929688 747.417969 C 783.222656 747.445312 784.816406 747.457031 786.714844 747.457031 C 789.421875 747.457031 792.238281 747.410156 795.15625 747.3125 C 798.078125 747.21875 800.820312 747.125 803.386719 747.027344 C 803.339844 747.929688 803.292969 748.761719 803.246094 749.523438 C 803.195312 750.28125 803.175781 751.066406 803.175781 751.871094 C 803.175781 752.964844 803.246094 754.152344 803.386719 755.433594 C 802.816406 754.769531 802.257812 754.222656 801.714844 753.796875 C 801.167969 753.367188 800.476562 753.039062 799.648438 752.796875 C 798.816406 752.5625 797.757812 752.394531 796.476562 752.300781 C 795.195312 752.207031 793.507812 752.15625 791.417969 752.15625 C 790.039062 752.15625 788.839844 752.167969 787.820312 752.195312 C 786.796875 752.21875 785.574219 752.277344 784.152344 752.371094 C 784.054688 753.796875 783.996094 755.210938 783.972656 756.609375 C 783.949219 758.011719 783.9375 759.308594 783.9375 760.492188 L 783.9375 768.257812 C 784.648438 768.308594 785.324219 768.355469 785.96875 768.402344 C 786.609375 768.449219 787.273438 768.484375 787.964844 768.507812 C 788.648438 768.535156 789.386719 768.558594 790.171875 768.582031 C 790.953125 768.605469 791.820312 768.617188 792.773438 768.617188 L 793.984375 768.617188 C 794.503906 768.617188 795.074219 768.589844 795.691406 768.542969 C 796.308594 768.496094 796.929688 768.449219 797.546875 768.402344 C 798.160156 768.355469 798.710938 768.257812 799.183594 768.117188 C 799.941406 767.925781 800.523438 767.691406 800.929688 767.40625 C 801.332031 767.121094 801.773438 766.789062 802.246094 766.40625 C 802.105469 767.261719 801.996094 768.035156 801.925781 768.722656 C 801.855469 769.410156 801.820312 770.300781 801.820312 771.394531 C 801.820312 772.34375 801.855469 773.128906 801.925781 773.746094 C 801.996094 774.363281 802.105469 775.050781 802.246094 775.8125 C 801.773438 775.527344 801.355469 775.289062 801 775.097656 C 800.644531 774.910156 800.289062 774.742188 799.933594 774.601562 C 799.574219 774.457031 799.183594 774.351562 798.757812 774.28125 C 798.328125 774.207031 797.804688 774.125 797.191406 774.03125 C 796.238281 773.9375 795.300781 773.863281 794.375 773.816406 C 793.449219 773.769531 792.460938 773.746094 791.417969 773.746094 L 788.035156 773.746094 C 786.824219 773.746094 785.457031 773.769531 783.9375 773.816406 L 783.9375 786.640625 C 783.9375 788.113281 784.019531 789.265625 784.1875 790.09375 C 784.351562 790.925781 784.734375 791.558594 785.324219 791.984375 C 785.921875 792.410156 786.796875 792.6875 787.964844 792.804688 C 789.125 792.921875 790.707031 792.980469 792.699219 792.980469 C 793.128906 792.980469 793.757812 792.96875 794.589844 792.945312 C 795.417969 792.921875 796.382812 792.839844 797.472656 792.695312 C 798.804688 792.554688 799.933594 792.363281 800.859375 792.125 C 801.785156 791.890625 802.566406 791.628906 803.210938 791.34375 C 803.851562 791.058594 804.421875 790.75 804.917969 790.417969 C 805.417969 790.085938 805.902344 789.730469 806.378906 789.347656 C 806 790.34375 805.703125 791.199219 805.488281 791.914062 C 805.273438 792.625 805.097656 793.277344 804.953125 793.871094 C 804.8125 794.464844 804.691406 795.09375 804.597656 795.757812 C 804.503906 796.425781 804.386719 797.210938 804.242188 798.113281 C 803.007812 798.0625 801.191406 797.980469 798.792969 797.863281 C 796.394531 797.746094 793.078125 797.683594 788.855469 797.683594 L 784.160156 797.683594 C 782.835938 797.683594 781.644531 797.695312 780.585938 797.71875 C 779.527344 797.746094 778.527344 797.789062 777.585938 797.863281 C 776.644531 797.933594 775.671875 798.015625 774.675781 798.113281 C 774.960938 797.398438 775.195312 796.746094 775.386719 796.152344 C 775.578125 795.558594 775.742188 794.859375 775.886719 794.050781 C 776.265625 792.054688 776.492188 789.90625 776.5625 787.601562 C 776.636719 785.296875 776.671875 783.007812 776.671875 780.726562 Z M 776.671875 762.773438 "/>
<path fill-rule="nonzero" fill="rgb(1.199341%, 2.69928%, 11.799622%)" fill-opacity="1" d="M 814.21875 756.289062 C 814.074219 754.675781 813.933594 753.367188 813.789062 752.371094 C 813.648438 751.375 813.457031 750.554688 813.21875 749.914062 C 812.980469 749.269531 812.71875 748.75 812.4375 748.347656 C 812.152344 747.941406 811.792969 747.503906 811.367188 747.027344 C 812.554688 747.171875 813.632812 747.277344 814.609375 747.347656 C 815.582031 747.421875 816.589844 747.457031 817.636719 747.457031 C 818.445312 747.457031 819.488281 747.433594 820.773438 747.382812 C 822.054688 747.335938 823.382812 747.21875 824.761719 747.027344 C 825.046875 747.691406 825.292969 748.289062 825.507812 748.808594 C 825.722656 749.332031 826.019531 749.949219 826.398438 750.660156 C 826.78125 751.375 827.265625 752.289062 827.859375 753.40625 C 828.453125 754.519531 829.25 756.003906 830.246094 757.855469 L 841.71875 776.59375 C 842.953125 778.636719 843.984375 780.300781 844.816406 781.582031 C 845.648438 782.863281 846.324219 783.933594 846.847656 784.789062 C 847.367188 785.644531 847.773438 786.355469 848.058594 786.925781 C 848.34375 787.496094 848.578125 788.089844 848.769531 788.707031 C 848.675781 787.710938 848.617188 786.546875 848.59375 785.214844 C 848.570312 783.886719 848.542969 782.496094 848.523438 781.046875 C 848.496094 779.601562 848.484375 778.164062 848.484375 776.738281 L 848.484375 763.769531 C 848.484375 760.636719 848.414062 758.082031 848.273438 756.109375 C 848.128906 754.140625 847.964844 752.5625 847.773438 751.375 C 847.582031 750.1875 847.367188 749.285156 847.132812 748.667969 C 846.894531 748.050781 846.679688 747.550781 846.492188 747.171875 C 847.15625 747.265625 847.941406 747.335938 848.84375 747.382812 C 849.742188 747.433594 850.742188 747.457031 851.832031 747.457031 C 852.546875 747.457031 853.304688 747.433594 854.113281 747.382812 C 854.921875 747.335938 855.730469 747.265625 856.535156 747.171875 C 856.347656 747.691406 856.167969 748.226562 856 748.773438 C 855.835938 749.320312 855.683594 749.984375 855.539062 750.769531 C 855.398438 751.550781 855.265625 752.492188 855.148438 753.582031 C 855.027344 754.675781 854.945312 756.003906 854.898438 757.574219 C 854.707031 762.039062 854.578125 766.46875 854.507812 770.859375 C 854.433594 775.253906 854.398438 779.683594 854.398438 784.144531 C 854.398438 786.476562 854.433594 788.789062 854.507812 791.09375 C 854.578125 793.398438 854.800781 795.714844 855.183594 798.039062 C 854.421875 797.945312 853.6875 797.851562 852.976562 797.753906 C 852.261719 797.660156 851.523438 797.613281 850.765625 797.613281 C 849.484375 797.613281 848.128906 797.753906 846.703125 798.039062 C 846.039062 796.898438 845.492188 795.9375 845.066406 795.15625 C 844.640625 794.371094 844.1875 793.585938 843.710938 792.804688 C 843.238281 792.019531 842.691406 791.140625 842.074219 790.167969 C 841.457031 789.195312 840.648438 787.921875 839.652344 786.355469 L 827.539062 766.835938 C 826.304688 764.839844 825.246094 763.152344 824.367188 761.773438 C 823.488281 760.398438 822.753906 759.222656 822.160156 758.25 C 821.566406 757.277344 821.078125 756.457031 820.699219 755.792969 C 820.320312 755.125 820.035156 754.535156 819.84375 754.011719 C 819.988281 755.246094 820.128906 756.503906 820.273438 757.785156 C 820.414062 759.066406 820.523438 760.507812 820.59375 762.097656 C 820.664062 763.6875 820.722656 765.492188 820.773438 767.511719 C 820.816406 769.53125 820.84375 771.917969 820.84375 774.671875 L 820.84375 783.863281 C 820.84375 786.238281 820.914062 788.660156 821.054688 791.128906 C 821.199219 793.601562 821.671875 795.925781 822.480469 798.109375 C 821.671875 797.96875 820.863281 797.835938 820.058594 797.71875 C 819.25 797.601562 818.445312 797.542969 817.636719 797.542969 C 816.78125 797.542969 815.9375 797.601562 815.109375 797.71875 C 814.277344 797.835938 813.433594 797.96875 812.578125 798.109375 C 812.816406 797.445312 813.050781 796.675781 813.289062 795.796875 C 813.527344 794.917969 813.765625 793.578125 814.003906 791.769531 C 814.144531 790.441406 814.261719 788.839844 814.359375 786.960938 C 814.453125 785.085938 814.535156 783.066406 814.609375 780.90625 C 814.679688 778.746094 814.714844 776.511719 814.714844 774.207031 C 814.714844 771.90625 814.691406 769.660156 814.644531 767.476562 C 814.597656 765.292969 814.535156 763.234375 814.464844 761.3125 C 814.394531 759.390625 814.3125 757.714844 814.21875 756.289062 "/>
<path fill-rule="nonzero" fill="rgb(1.199341%, 2.69928%, 11.799622%)" fill-opacity="1" d="M 231.933594 653.34375 C 231.859375 649.660156 231.800781 646.609375 231.761719 644.195312 C 231.722656 641.777344 231.609375 639.6875 231.417969 637.921875 C 231.226562 636.15625 230.976562 634.507812 230.667969 632.972656 C 230.363281 631.4375 229.902344 629.75 229.289062 627.90625 C 229.902344 627.988281 230.667969 628.0625 231.585938 628.140625 C 232.5 628.214844 233.683594 628.292969 235.128906 628.367188 C 236.570312 628.445312 238.339844 628.503906 240.429688 628.542969 C 242.519531 628.582031 245.09375 628.601562 248.164062 628.601562 C 252.535156 628.601562 257.082031 628.523438 261.800781 628.367188 C 266.519531 628.214844 270.949219 628.0625 275.09375 627.90625 C 275.015625 629.367188 274.9375 630.710938 274.863281 631.9375 C 274.785156 633.164062 274.75 634.429688 274.75 635.734375 C 274.75 637.5 274.863281 639.417969 275.09375 641.488281 C 274.171875 640.414062 273.269531 639.53125 272.390625 638.84375 C 271.507812 638.152344 270.394531 637.613281 269.050781 637.230469 C 267.707031 636.847656 266.003906 636.578125 263.929688 636.425781 C 261.859375 636.273438 259.132812 636.195312 255.757812 636.195312 C 253.53125 636.195312 251.597656 636.214844 249.945312 636.253906 C 248.296875 636.292969 246.320312 636.386719 244.019531 636.539062 C 243.863281 638.84375 243.769531 641.125 243.730469 643.386719 C 243.691406 645.652344 243.675781 647.742188 243.675781 649.660156 L 243.675781 662.203125 C 244.824219 662.28125 245.917969 662.359375 246.953125 662.4375 C 247.988281 662.511719 249.0625 662.570312 250.175781 662.609375 C 251.289062 662.648438 252.476562 662.6875 253.746094 662.722656 C 255.011719 662.761719 256.410156 662.78125 257.945312 662.78125 L 259.902344 662.78125 C 260.746094 662.78125 261.667969 662.742188 262.664062 662.664062 C 263.660156 662.589844 264.65625 662.511719 265.65625 662.4375 C 266.652344 662.359375 267.535156 662.203125 268.304688 661.976562 C 269.53125 661.671875 270.46875 661.285156 271.125 660.824219 C 271.773438 660.363281 272.484375 659.828125 273.253906 659.214844 C 273.023438 660.59375 272.851562 661.84375 272.734375 662.953125 C 272.617188 664.066406 272.5625 665.503906 272.5625 667.269531 C 272.5625 668.804688 272.617188 670.070312 272.734375 671.066406 C 272.851562 672.066406 273.023438 673.179688 273.253906 674.40625 C 272.484375 673.945312 271.8125 673.5625 271.238281 673.253906 C 270.664062 672.949219 270.085938 672.679688 269.511719 672.449219 C 268.9375 672.21875 268.304688 672.046875 267.613281 671.929688 C 266.921875 671.816406 266.078125 671.683594 265.082031 671.527344 C 263.546875 671.375 262.03125 671.261719 260.535156 671.183594 C 259.039062 671.105469 257.445312 671.066406 255.757812 671.066406 L 250.292969 671.066406 C 248.335938 671.066406 246.128906 671.105469 243.675781 671.183594 L 243.675781 691.898438 C 243.675781 694.277344 243.808594 696.140625 244.078125 697.480469 C 244.34375 698.824219 244.957031 699.839844 245.917969 700.53125 C 246.878906 701.222656 248.296875 701.664062 250.175781 701.855469 C 252.054688 702.046875 254.609375 702.140625 257.832031 702.140625 C 258.519531 702.140625 259.535156 702.125 260.878906 702.085938 C 262.222656 702.046875 263.773438 701.910156 265.542969 701.683594 C 267.6875 701.449219 269.511719 701.144531 271.007812 700.761719 C 272.503906 700.378906 273.769531 699.953125 274.804688 699.492188 C 275.84375 699.035156 276.761719 698.535156 277.566406 697.996094 C 278.375 697.460938 279.160156 696.886719 279.929688 696.273438 C 279.3125 697.882812 278.835938 699.265625 278.488281 700.414062 C 278.144531 701.566406 277.855469 702.621094 277.625 703.578125 C 277.394531 704.539062 277.203125 705.558594 277.050781 706.628906 C 276.894531 707.703125 276.707031 708.972656 276.476562 710.429688 C 274.480469 710.351562 271.542969 710.214844 267.671875 710.027344 C 263.796875 709.835938 258.441406 709.738281 251.617188 709.738281 L 244.035156 709.738281 C 241.894531 709.738281 239.96875 709.757812 238.261719 709.796875 C 236.550781 709.835938 234.933594 709.910156 233.410156 710.027344 C 231.890625 710.140625 230.324219 710.273438 228.710938 710.429688 C 229.171875 709.277344 229.554688 708.222656 229.863281 707.261719 C 230.167969 706.304688 230.4375 705.175781 230.667969 703.867188 C 231.28125 700.644531 231.648438 697.175781 231.761719 693.453125 C 231.878906 689.730469 231.933594 686.03125 231.933594 682.347656 Z M 231.933594 653.34375 "/>
<path fill-rule="nonzero" fill="rgb(1.199341%, 2.69928%, 11.799622%)" fill-opacity="1" d="M 303.75 694.429688 C 303.75 695.507812 303.824219 696.523438 303.980469 697.480469 C 304.132812 698.441406 304.59375 699.285156 305.359375 700.011719 C 306.128906 700.742188 307.296875 701.320312 308.871094 701.738281 C 310.441406 702.160156 312.6875 702.371094 315.605469 702.371094 C 316.523438 702.371094 317.75 702.332031 319.285156 702.257812 C 320.820312 702.179688 322.488281 701.988281 324.292969 701.683594 C 326.097656 701.375 327.957031 700.933594 329.875 700.359375 C 331.792969 699.78125 333.558594 698.996094 335.167969 697.996094 C 338.085938 696.234375 340.386719 694.027344 342.074219 691.382812 C 343.761719 688.734375 345.027344 685.992188 345.871094 683.152344 C 346.714844 680.316406 347.234375 677.550781 347.425781 674.867188 C 347.617188 672.179688 347.714844 669.914062 347.714844 668.074219 C 347.714844 665.929688 347.597656 663.683594 347.367188 661.34375 C 347.140625 659.003906 346.679688 656.664062 345.988281 654.320312 C 345.296875 651.984375 344.300781 649.71875 342.996094 647.53125 C 341.691406 645.34375 339.925781 643.371094 337.703125 641.605469 C 335.9375 640.222656 334.113281 639.148438 332.234375 638.382812 C 330.355469 637.617188 328.550781 637.039062 326.824219 636.65625 C 325.097656 636.273438 323.507812 636.042969 322.050781 635.964844 C 320.589844 635.890625 319.402344 635.851562 318.480469 635.851562 C 315.796875 635.851562 313.148438 636.003906 310.539062 636.3125 C 307.929688 636.617188 305.859375 636.847656 304.324219 637 C 304.246094 638.308594 304.171875 639.953125 304.09375 641.949219 C 304.019531 643.945312 303.960938 646.074219 303.921875 648.335938 C 303.882812 650.601562 303.84375 652.921875 303.808594 655.300781 C 303.769531 657.679688 303.75 659.945312 303.75 662.089844 Z M 292.011719 664.160156 C 292.011719 659.714844 291.972656 655.875 291.894531 652.652344 C 291.816406 649.429688 291.742188 646.667969 291.664062 644.367188 C 291.589844 642.066406 291.472656 640.148438 291.320312 638.613281 C 291.164062 637.078125 290.976562 635.71875 290.746094 634.527344 C 290.515625 633.339844 290.265625 632.242188 289.996094 631.246094 C 289.726562 630.25 289.402344 629.175781 289.019531 628.023438 C 289.402344 628.101562 290.070312 628.195312 291.03125 628.3125 C 291.992188 628.425781 293.066406 628.542969 294.253906 628.65625 C 295.445312 628.773438 296.671875 628.867188 297.9375 628.945312 C 299.203125 629.023438 300.371094 629.058594 301.449219 629.058594 C 303.289062 629.058594 305.035156 629 306.683594 628.886719 C 308.335938 628.773438 309.984375 628.65625 311.632812 628.542969 C 313.28125 628.425781 315.007812 628.3125 316.8125 628.195312 C 318.613281 628.082031 320.589844 628.023438 322.738281 628.023438 C 325.578125 628.023438 328.683594 628.195312 332.0625 628.542969 C 335.4375 628.886719 338.738281 629.691406 341.960938 630.957031 C 345.183594 632.226562 348.191406 634.085938 350.996094 636.539062 C 353.792969 638.996094 356.078125 642.371094 357.84375 646.667969 C 358.53125 648.433594 359.109375 650.277344 359.570312 652.191406 C 360.027344 654.113281 360.375 656.011719 360.605469 657.890625 C 360.835938 659.769531 361.007812 661.554688 361.121094 663.242188 C 361.238281 664.929688 361.296875 666.464844 361.296875 667.84375 C 361.296875 673.675781 360.433594 679.371094 358.707031 684.9375 C 356.980469 690.5 354.042969 695.351562 349.902344 699.492188 C 347.445312 701.953125 344.738281 703.886719 341.785156 705.308594 C 338.832031 706.726562 335.820312 707.800781 332.753906 708.53125 C 329.683594 709.257812 326.671875 709.71875 323.71875 709.910156 C 320.765625 710.101562 318.058594 710.199219 315.605469 710.199219 C 312.074219 710.199219 308.929688 710.121094 306.167969 709.96875 C 303.40625 709.816406 300.910156 709.738281 298.6875 709.738281 C 296.230469 709.738281 294.292969 709.792969 292.875 709.910156 C 291.453125 710.027344 290.015625 710.121094 288.558594 710.199219 C 288.789062 709.890625 289.074219 709.46875 289.421875 708.933594 C 289.765625 708.394531 290.070312 707.492188 290.34375 706.226562 C 290.609375 704.960938 290.859375 703.253906 291.089844 701.105469 C 291.320312 698.957031 291.511719 696.117188 291.664062 692.589844 C 291.816406 689.136719 291.894531 686.335938 291.894531 684.1875 C 291.894531 682.039062 291.933594 680.007812 292.011719 678.089844 Z M 292.011719 664.160156 "/>
<path fill-rule="nonzero" fill="rgb(1.199341%, 2.69928%, 11.799622%)" fill-opacity="1" d="M 426.777344 650.351562 L 426.777344 645.289062 C 426.777344 643.601562 426.757812 642.046875 426.722656 640.625 C 426.683594 639.207031 426.644531 637.941406 426.605469 636.828125 C 426.566406 635.71875 426.507812 634.929688 426.433594 634.46875 C 426.277344 632.933594 426.089844 631.746094 425.859375 630.902344 C 425.628906 630.058594 425.28125 629.097656 424.820312 628.023438 C 427.429688 628.484375 429.925781 628.714844 432.304688 628.714844 C 433.605469 628.714844 434.871094 628.640625 436.101562 628.484375 C 437.328125 628.332031 438.59375 628.179688 439.898438 628.023438 C 439.4375 629.328125 439.054688 630.574219 438.746094 631.765625 C 438.441406 632.953125 438.191406 634.355469 438 635.964844 C 437.808594 637.578125 437.65625 639.53125 437.539062 641.832031 C 437.425781 644.136719 437.328125 647.015625 437.25 650.464844 L 437.25 680.734375 C 437.097656 682.960938 436.925781 685.207031 436.734375 687.46875 C 436.542969 689.730469 436.101562 691.9375 435.410156 694.085938 C 434.71875 696.234375 433.722656 698.304688 432.417969 700.300781 C 431.113281 702.296875 429.273438 704.136719 426.894531 705.824219 C 423.824219 708.050781 420.3125 709.46875 416.363281 710.082031 C 412.410156 710.695312 408.59375 711.003906 404.910156 711.003906 C 403.375 711.003906 401.707031 710.925781 399.90625 710.773438 C 398.101562 710.617188 396.316406 710.371094 394.554688 710.027344 C 392.789062 709.679688 391.082031 709.238281 389.433594 708.703125 C 387.78125 708.164062 386.304688 707.511719 385 706.746094 C 382.46875 705.289062 380.472656 703.503906 379.015625 701.394531 C 377.558594 699.285156 376.484375 697 375.792969 694.546875 C 375.105469 692.089844 374.660156 689.539062 374.472656 686.894531 C 374.277344 684.246094 374.144531 681.65625 374.066406 679.125 L 374.066406 650.351562 C 373.992188 645.976562 373.894531 642.488281 373.78125 639.878906 C 373.664062 637.269531 373.492188 635.21875 373.261719 633.722656 C 373.03125 632.226562 372.742188 631.09375 372.398438 630.324219 C 372.054688 629.558594 371.652344 628.753906 371.191406 627.910156 C 372.726562 628.0625 374.222656 628.214844 375.679688 628.371094 C 377.136719 628.523438 378.632812 628.601562 380.167969 628.601562 C 381.777344 628.601562 383.371094 628.523438 384.945312 628.371094 C 386.515625 628.214844 388.070312 628.0625 389.605469 627.910156 C 389.144531 628.523438 388.742188 629.195312 388.398438 629.921875 C 388.050781 630.652344 387.6875 631.898438 387.304688 633.664062 C 386.765625 636.273438 386.457031 639.09375 386.382812 642.121094 C 386.304688 645.15625 386.265625 647.898438 386.265625 650.351562 L 386.265625 674.75 C 386.265625 677.820312 386.304688 680.46875 386.382812 682.691406 C 386.457031 684.917969 386.765625 686.914062 387.304688 688.675781 C 388.453125 692.898438 390.699219 696.023438 394.035156 698.054688 C 397.375 700.089844 401.917969 701.105469 407.671875 701.105469 C 412.429688 701.105469 416.09375 700.320312 418.664062 698.746094 C 421.234375 697.175781 423.132812 695.140625 424.363281 692.648438 C 425.589844 690.15625 426.296875 687.335938 426.492188 684.1875 C 426.683594 681.042969 426.777344 677.898438 426.777344 674.75 Z M 426.777344 650.351562 "/>
<path fill-rule="nonzero" fill="rgb(1.199341%, 2.69928%, 11.799622%)" fill-opacity="1" d="M 450.253906 669.800781 C 450.253906 655.988281 453.765625 645.480469 460.785156 638.265625 C 467.804688 631.054688 478.296875 627.449219 492.261719 627.449219 C 495.332031 627.449219 498.574219 627.601562 501.988281 627.90625 C 505.402344 628.214844 509.371094 629.214844 513.902344 630.902344 C 513.285156 632.207031 512.765625 633.316406 512.347656 634.238281 C 511.921875 635.160156 511.578125 636.042969 511.308594 636.886719 C 511.039062 637.730469 510.808594 638.613281 510.621094 639.53125 C 510.425781 640.453125 510.21875 641.566406 509.988281 642.871094 C 509.21875 641.875 508.433594 640.914062 507.628906 639.992188 C 506.820312 639.074219 505.6875 638.191406 504.230469 637.347656 C 502.773438 636.503906 500.992188 635.851562 498.878906 635.390625 C 496.769531 634.929688 494.566406 634.699219 492.261719 634.699219 C 487.734375 634.699219 483.613281 635.582031 479.890625 637.347656 C 476.167969 639.113281 473.195312 641.335938 470.972656 644.023438 C 469.742188 645.480469 468.6875 647.148438 467.804688 649.027344 C 466.921875 650.90625 466.195312 652.902344 465.621094 655.011719 C 465.042969 657.121094 464.601562 659.289062 464.296875 661.515625 C 463.988281 663.742188 463.835938 665.964844 463.835938 668.191406 C 463.835938 673.40625 464.601562 678.359375 466.136719 683.035156 C 467.671875 687.71875 469.894531 691.59375 472.8125 694.660156 C 475.652344 697.652344 478.96875 699.839844 482.769531 701.222656 C 486.566406 702.601562 490.535156 703.292969 494.679688 703.292969 C 497.515625 703.292969 499.992188 703.0625 502.101562 702.601562 C 504.210938 702.140625 506.015625 701.585938 507.511719 700.933594 C 509.007812 700.28125 510.273438 699.59375 511.308594 698.863281 C 512.347656 698.132812 513.210938 697.5 513.902344 696.964844 C 513.515625 698.191406 513.1875 699.246094 512.921875 700.128906 C 512.652344 701.011719 512.421875 701.894531 512.230469 702.773438 C 512.039062 703.65625 511.867188 704.558594 511.714844 705.480469 C 511.558594 706.398438 511.367188 707.550781 511.136719 708.933594 C 509.527344 709.316406 507.207031 709.738281 504.175781 710.199219 C 501.144531 710.65625 497.289062 710.890625 492.609375 710.890625 C 491.457031 710.890625 489.691406 710.832031 487.3125 710.714844 C 484.933594 710.601562 482.269531 710.199219 479.316406 709.507812 C 476.359375 708.816406 473.273438 707.703125 470.050781 706.171875 C 466.828125 704.636719 463.84375 702.488281 461.097656 699.726562 C 457.140625 695.582031 454.34375 690.882812 452.707031 685.625 C 451.070312 680.371094 450.253906 675.097656 450.253906 669.800781 "/>
<path fill-rule="nonzero" fill="rgb(1.199341%, 2.69928%, 11.799622%)" fill-opacity="1" d="M 559.128906 656.453125 C 558.667969 654.765625 558.246094 653.265625 557.863281 651.960938 C 557.480469 650.660156 557.113281 649.390625 556.769531 648.164062 C 556.425781 646.9375 556.097656 645.652344 555.792969 644.308594 C 555.484375 642.96875 555.101562 641.375 554.640625 639.53125 C 554.484375 638.6875 554.3125 637.902344 554.121094 637.171875 C 553.929688 636.445312 553.757812 635.699219 553.605469 634.929688 L 540.023438 676.246094 C 542.097656 676.402344 544.1875 676.515625 546.296875 676.59375 C 548.40625 676.667969 550.535156 676.707031 552.683594 676.707031 C 554.753906 676.707031 556.84375 676.667969 558.957031 676.59375 C 561.066406 676.515625 563.15625 676.402344 565.230469 676.246094 Z M 539.335938 646.554688 C 540.253906 643.792969 541.019531 641.472656 541.636719 639.589844 C 542.25 637.710938 542.730469 636.097656 543.074219 634.757812 C 543.421875 633.414062 543.707031 632.246094 543.9375 631.246094 C 544.167969 630.25 544.359375 629.214844 544.511719 628.140625 C 546.125 628.292969 547.734375 628.445312 549.347656 628.597656 C 550.957031 628.753906 552.570312 628.828125 554.179688 628.828125 C 555.714844 628.828125 557.269531 628.753906 558.84375 628.597656 C 560.410156 628.445312 561.96875 628.292969 563.503906 628.140625 C 563.964844 630.441406 564.402344 632.472656 564.824219 634.238281 C 565.246094 636.003906 565.691406 637.769531 566.148438 639.53125 C 566.609375 641.300781 567.164062 643.179688 567.816406 645.171875 C 568.46875 647.167969 569.257812 649.546875 570.179688 652.308594 L 580.535156 683.496094 C 581.378906 685.722656 582.300781 688.351562 583.300781 691.382812 C 584.296875 694.414062 585.214844 697.039062 586.0625 699.265625 C 586.75 701.261719 587.363281 702.851562 587.902344 704.039062 C 588.4375 705.230469 588.917969 706.226562 589.339844 707.035156 C 589.761719 707.839844 590.183594 708.472656 590.605469 708.929688 C 591.027344 709.390625 591.46875 709.851562 591.929688 710.3125 C 590.394531 710.082031 588.820312 709.890625 587.210938 709.738281 C 585.601562 709.585938 584.023438 709.507812 582.492188 709.507812 C 580.957031 709.507812 579.441406 709.585938 577.945312 709.738281 C 576.449219 709.890625 574.933594 710.082031 573.398438 710.3125 C 573.476562 709.929688 573.554688 709.488281 573.632812 708.988281 C 573.703125 708.492188 573.746094 707.972656 573.746094 707.433594 C 573.746094 706.363281 573.515625 704.925781 573.054688 703.121094 C 572.59375 701.320312 572.058594 699.304688 571.441406 697.078125 L 567.988281 685.800781 C 563.003906 685.339844 558.054688 685.109375 553.144531 685.109375 C 550.457031 685.109375 547.792969 685.183594 545.144531 685.339844 C 542.5 685.492188 539.832031 685.644531 537.148438 685.800781 L 534.269531 695.582031 C 533.578125 698.113281 533.042969 700.128906 532.65625 701.625 C 532.273438 703.121094 531.96875 704.289062 531.738281 705.132812 C 531.507812 705.980469 531.371094 706.613281 531.335938 707.035156 C 531.296875 707.457031 531.277344 707.859375 531.277344 708.242188 L 531.277344 709.164062 C 531.277344 709.390625 531.316406 709.8125 531.394531 710.429688 C 530.085938 710.273438 528.761719 710.121094 527.421875 709.96875 C 526.078125 709.8125 524.71875 709.738281 523.335938 709.738281 C 522.03125 709.738281 520.6875 709.8125 519.308594 709.96875 C 517.925781 710.121094 516.585938 710.273438 515.28125 710.429688 C 516.429688 708.585938 517.390625 706.976562 518.15625 705.59375 C 518.921875 704.214844 519.691406 702.640625 520.460938 700.875 C 521.226562 699.113281 522.070312 696.980469 522.992188 694.488281 C 523.910156 691.996094 525.0625 688.753906 526.441406 684.761719 Z M 539.335938 646.554688 "/>
<path fill-rule="nonzero" fill="rgb(1.199341%, 2.69928%, 11.799622%)" fill-opacity="1" d="M 607.699219 638.152344 C 605.242188 638.152344 603.210938 638.230469 601.597656 638.382812 C 599.988281 638.535156 598.625 638.765625 597.511719 639.074219 C 596.398438 639.378906 595.441406 639.761719 594.636719 640.222656 C 593.832031 640.683594 592.96875 641.257812 592.046875 641.949219 C 592.277344 640.875 592.46875 639.820312 592.621094 638.785156 C 592.773438 637.75 592.851562 636.695312 592.851562 635.621094 C 592.851562 634.316406 592.753906 633.089844 592.5625 631.9375 C 592.371094 630.785156 592.199219 629.484375 592.046875 628.023438 C 592.96875 628.179688 594.386719 628.3125 596.304688 628.425781 C 598.21875 628.542969 600.582031 628.636719 603.382812 628.714844 C 606.179688 628.792969 609.367188 628.828125 612.933594 628.828125 L 635.261719 628.828125 C 638.523438 628.828125 641.535156 628.792969 644.296875 628.714844 C 647.058594 628.636719 649.628906 628.542969 652.007812 628.425781 C 654.386719 628.3125 656.6875 628.179688 658.914062 628.023438 C 658.757812 629.253906 658.625 630.460938 658.511719 631.648438 C 658.394531 632.839844 658.339844 634.046875 658.339844 635.273438 C 658.339844 636.347656 658.394531 637.460938 658.511719 638.613281 C 658.625 639.761719 658.757812 640.875 658.914062 641.949219 C 657.683594 641.183594 656.609375 640.550781 655.691406 640.050781 C 654.769531 639.550781 653.734375 639.1875 652.582031 638.957031 C 651.429688 638.726562 649.992188 638.554688 648.265625 638.441406 C 646.542969 638.324219 644.296875 638.230469 641.535156 638.152344 L 631.867188 638.152344 C 631.710938 640.453125 631.597656 642.777344 631.519531 645.113281 C 631.445312 647.457031 631.386719 649.988281 631.347656 652.710938 C 631.308594 655.433594 631.269531 658.449219 631.234375 661.746094 C 631.195312 665.046875 631.175781 668.765625 631.175781 672.910156 C 631.175781 675.671875 631.195312 678.492188 631.234375 681.367188 C 631.269531 684.246094 631.328125 687.046875 631.40625 689.769531 C 631.480469 692.496094 631.597656 695.027344 631.753906 697.367188 C 631.90625 699.707031 632.097656 701.71875 632.328125 703.40625 C 632.632812 705.480469 632.941406 706.957031 633.25 707.839844 C 633.554688 708.722656 633.9375 709.585938 634.398438 710.425781 C 631.480469 709.96875 628.566406 709.738281 625.652344 709.738281 C 624.042969 709.738281 622.449219 709.816406 620.875 709.96875 C 619.300781 710.121094 617.710938 710.273438 616.097656 710.425781 C 616.332031 710.121094 616.636719 709.605469 617.019531 708.875 C 617.402344 708.144531 617.769531 706.589844 618.113281 704.214844 C 618.460938 701.835938 618.765625 698.304688 619.035156 693.625 C 619.300781 688.945312 619.4375 682.5 619.4375 674.289062 C 619.4375 668.460938 619.417969 663.546875 619.378906 659.558594 C 619.339844 655.570312 619.265625 652.234375 619.148438 649.546875 C 619.035156 646.859375 618.917969 644.636719 618.804688 642.871094 C 618.6875 641.105469 618.59375 639.53125 618.515625 638.152344 Z M 607.699219 638.152344 "/>
<path fill-rule="nonzero" fill="rgb(1.199341%, 2.69928%, 11.799622%)" fill-opacity="1" d="M 668.925781 658.867188 C 668.769531 654.496094 668.65625 651.023438 668.578125 648.453125 C 668.503906 645.882812 668.445312 643.808594 668.40625 642.238281 C 668.367188 640.667969 668.292969 639.457031 668.175781 638.613281 C 668.0625 637.769531 667.964844 636.925781 667.890625 636.082031 C 667.582031 633.703125 667.273438 632.015625 666.96875 631.015625 C 666.660156 630.019531 666.277344 628.984375 665.816406 627.910156 C 667.351562 628.0625 668.847656 628.214844 670.308594 628.371094 C 671.761719 628.523438 673.257812 628.597656 674.792969 628.597656 C 676.328125 628.597656 677.824219 628.523438 679.28125 628.371094 C 680.738281 628.214844 682.238281 628.0625 683.773438 627.910156 C 683.082031 629.519531 682.523438 631.015625 682.101562 632.398438 C 681.679688 633.777344 681.355469 635.523438 681.125 637.632812 C 680.894531 639.746094 680.738281 642.429688 680.664062 645.691406 C 680.585938 648.953125 680.511719 653.304688 680.433594 658.753906 L 680.433594 674.921875 C 680.433594 677.265625 680.453125 679.566406 680.492188 681.828125 C 680.527344 684.09375 680.585938 686.375 680.664062 688.675781 C 680.738281 690.976562 680.816406 693.433594 680.894531 696.042969 C 680.96875 698.191406 681.066406 699.9375 681.183594 701.277344 C 681.296875 702.621094 681.449219 703.792969 681.644531 704.789062 C 681.832031 705.789062 682.101562 706.707031 682.449219 707.550781 C 682.792969 708.394531 683.195312 709.316406 683.65625 710.3125 C 682.121094 710.082031 680.625 709.890625 679.167969 709.738281 C 677.710938 709.585938 676.214844 709.507812 674.679688 709.507812 C 673.144531 709.507812 671.648438 709.585938 670.191406 709.738281 C 668.734375 709.890625 667.238281 710.082031 665.703125 710.3125 C 666.007812 709.621094 666.296875 708.929688 666.566406 708.242188 C 666.832031 707.550781 667.082031 706.6875 667.3125 705.652344 C 667.542969 704.617188 667.734375 703.332031 667.890625 701.796875 C 668.042969 700.261719 668.195312 698.34375 668.351562 696.042969 C 668.578125 690.976562 668.734375 686.257812 668.8125 681.886719 C 668.886719 677.511719 668.925781 672.71875 668.925781 667.5 Z M 668.925781 658.867188 "/>
<path fill-rule="nonzero" fill="rgb(1.199341%, 2.69928%, 11.799622%)" fill-opacity="1" d="M 733.257812 635.273438 C 731.023438 635.273438 728.980469 635.523438 727.128906 636.023438 C 725.28125 636.523438 723.621094 637.15625 722.15625 637.921875 C 719.230469 639.53125 716.859375 641.585938 715.046875 644.078125 C 713.234375 646.574219 711.847656 649.277344 710.886719 652.191406 C 709.921875 655.109375 709.285156 658.082031 708.976562 661.113281 C 708.667969 664.144531 708.515625 666.964844 708.515625 669.570312 C 708.515625 675.710938 709.070312 680.660156 710.191406 684.417969 C 711.308594 688.175781 712.601562 691.132812 714.0625 693.28125 C 715.910156 695.964844 718.4375 698.324219 721.636719 700.359375 C 724.835938 702.390625 728.746094 703.40625 733.375 703.40625 C 738.152344 703.40625 742.46875 702.140625 746.324219 699.609375 C 749.175781 697.539062 751.566406 694.855469 753.492188 691.554688 C 755.34375 688.332031 756.59375 684.761719 757.25 680.851562 C 757.90625 676.9375 758.234375 673.0625 758.234375 669.226562 C 758.234375 667.769531 758.175781 666.140625 758.058594 664.335938 C 757.945312 662.53125 757.730469 660.652344 757.425781 658.695312 C 757.113281 656.738281 756.652344 654.765625 756.035156 652.769531 C 755.417969 650.773438 754.648438 648.894531 753.722656 647.128906 C 752.335938 644.597656 750.757812 642.566406 748.984375 641.03125 C 747.210938 639.496094 745.398438 638.308594 743.546875 637.460938 C 741.699219 636.617188 739.886719 636.042969 738.113281 635.734375 C 736.339844 635.429688 734.722656 635.273438 733.257812 635.273438 M 733.375 627.449219 C 738.898438 627.449219 744.230469 628.351562 749.371094 630.152344 C 754.511719 631.957031 758.925781 634.929688 762.605469 639.074219 C 766.136719 643.140625 768.550781 647.742188 769.859375 652.882812 C 771.160156 658.023438 771.8125 663.28125 771.8125 668.652344 C 771.8125 670.1875 771.738281 672.160156 771.582031 674.578125 C 771.429688 676.996094 771.027344 679.625 770.375 682.460938 C 769.722656 685.300781 768.726562 688.214844 767.382812 691.207031 C 766.039062 694.199219 764.179688 697.003906 761.800781 699.609375 C 759.730469 701.988281 757.484375 703.925781 755.070312 705.421875 C 752.652344 706.917969 750.175781 708.089844 747.644531 708.933594 C 745.113281 709.777344 742.597656 710.351562 740.105469 710.660156 C 737.613281 710.964844 735.253906 711.117188 733.027344 711.117188 C 730.800781 711.117188 728.578125 710.964844 726.355469 710.660156 C 724.125 710.351562 721.902344 709.851562 719.679688 709.164062 C 714.308594 707.476562 709.703125 704.671875 705.867188 700.761719 C 703.179688 698 701.089844 695.046875 699.59375 691.898438 C 698.097656 688.753906 697.003906 685.703125 696.316406 682.75 C 695.625 679.796875 695.222656 677.128906 695.105469 674.75 C 694.992188 672.375 694.933594 670.570312 694.933594 669.339844 C 694.933594 668.039062 695.007812 666.195312 695.164062 663.816406 C 695.316406 661.441406 695.71875 658.8125 696.371094 655.933594 C 697.023438 653.054688 698.039062 650.101562 699.421875 647.070312 C 700.804688 644.042969 702.761719 641.183594 705.292969 638.496094 C 708.589844 634.96875 712.601562 632.246094 717.320312 630.324219 C 722.035156 628.410156 727.390625 627.449219 733.375 627.449219 "/>
<path fill-rule="nonzero" fill="rgb(1.199341%, 2.69928%, 11.799622%)" fill-opacity="1" d="M 785.625 642.871094 C 785.394531 640.261719 785.164062 638.152344 784.933594 636.539062 C 784.703125 634.929688 784.394531 633.605469 784.011719 632.570312 C 783.628906 631.535156 783.207031 630.691406 782.746094 630.039062 C 782.285156 629.386719 781.710938 628.675781 781.019531 627.910156 C 782.9375 628.140625 784.683594 628.3125 786.257812 628.425781 C 787.828125 628.542969 789.460938 628.597656 791.148438 628.597656 C 792.449219 628.597656 794.140625 628.5625 796.210938 628.484375 C 798.28125 628.410156 800.429688 628.214844 802.65625 627.910156 C 803.117188 628.984375 803.519531 629.941406 803.863281 630.785156 C 804.210938 631.632812 804.6875 632.628906 805.304688 633.777344 C 805.917969 634.929688 806.703125 636.40625 807.664062 638.210938 C 808.621094 640.011719 809.90625 642.410156 811.519531 645.402344 L 830.046875 675.671875 C 832.042969 678.972656 833.710938 681.65625 835.054688 683.726562 C 836.394531 685.800781 837.488281 687.527344 838.335938 688.90625 C 839.179688 690.289062 839.832031 691.4375 840.292969 692.359375 C 840.753906 693.28125 841.136719 694.242188 841.441406 695.238281 C 841.285156 693.625 841.191406 691.746094 841.152344 689.597656 C 841.113281 687.449219 841.078125 685.207031 841.039062 682.863281 C 841 680.523438 840.980469 678.203125 840.980469 675.902344 L 840.980469 654.957031 C 840.980469 649.890625 840.867188 645.765625 840.636719 642.582031 C 840.40625 639.398438 840.136719 636.847656 839.832031 634.929688 C 839.523438 633.011719 839.179688 631.554688 838.796875 630.554688 C 838.410156 629.558594 838.0625 628.753906 837.757812 628.140625 C 838.832031 628.292969 840.097656 628.410156 841.558594 628.484375 C 843.015625 628.5625 844.625 628.597656 846.390625 628.597656 C 847.542969 628.597656 848.769531 628.5625 850.074219 628.484375 C 851.378906 628.410156 852.683594 628.292969 853.988281 628.140625 C 853.679688 628.984375 853.390625 629.847656 853.125 630.726562 C 852.851562 631.613281 852.605469 632.683594 852.375 633.953125 C 852.144531 635.21875 851.933594 636.730469 851.742188 638.496094 C 851.550781 640.261719 851.414062 642.410156 851.339844 644.941406 C 851.03125 652.15625 850.820312 659.308594 850.707031 666.40625 C 850.59375 673.503906 850.535156 680.660156 850.535156 687.871094 C 850.535156 691.632812 850.59375 695.371094 850.707031 699.09375 C 850.820312 702.8125 851.1875 706.554688 851.800781 710.3125 C 850.570312 710.160156 849.382812 710.007812 848.230469 709.851562 C 847.082031 709.699219 845.890625 709.621094 844.664062 709.621094 C 842.59375 709.621094 840.40625 709.851562 838.105469 710.3125 C 837.027344 708.472656 836.148438 706.917969 835.457031 705.652344 C 834.765625 704.386719 834.035156 703.121094 833.269531 701.851562 C 832.503906 700.589844 831.621094 699.167969 830.625 697.597656 C 829.625 696.023438 828.320312 693.96875 826.710938 691.4375 L 807.144531 659.902344 C 805.148438 656.679688 803.441406 653.957031 802.023438 651.730469 C 800.601562 649.507812 799.414062 647.609375 798.457031 646.035156 C 797.496094 644.464844 796.710938 643.140625 796.097656 642.0625 C 795.480469 640.992188 795.019531 640.03125 794.714844 639.1875 C 794.945312 641.183594 795.175781 643.214844 795.40625 645.289062 C 795.636719 647.359375 795.808594 649.679688 795.925781 652.25 C 796.039062 654.820312 796.136719 657.738281 796.210938 660.996094 C 796.285156 664.257812 796.328125 668.113281 796.328125 672.5625 L 796.328125 687.410156 C 796.328125 691.246094 796.441406 695.160156 796.671875 699.148438 C 796.902344 703.140625 797.667969 706.898438 798.972656 710.429688 C 797.667969 710.199219 796.363281 709.984375 795.0625 709.796875 C 793.753906 709.605469 792.449219 709.507812 791.148438 709.507812 C 789.765625 709.507812 788.402344 709.605469 787.0625 709.796875 C 785.71875 709.984375 784.355469 710.199219 782.976562 710.429688 C 783.359375 709.355469 783.742188 708.109375 784.128906 706.6875 C 784.511719 705.269531 784.894531 703.101562 785.277344 700.183594 C 785.507812 698.039062 785.699219 695.449219 785.851562 692.417969 C 786.007812 689.386719 786.140625 686.125 786.257812 682.632812 C 786.371094 679.144531 786.429688 675.539062 786.429688 671.816406 C 786.429688 668.09375 786.390625 664.46875 786.3125 660.9375 C 786.234375 657.410156 786.140625 654.09375 786.027344 650.984375 C 785.910156 647.878906 785.777344 645.171875 785.625 642.871094 "/>
</svg>
