<?xml version="1.0" encoding="UTF-8"?>
<svg xmlns="http://www.w3.org/2000/svg" xmlns:xlink="http://www.w3.org/1999/xlink" width="1080" height="1080" viewBox="0 0 1080 1080">
<rect x="-108" y="-108" width="1296" height="1296" fill="rgb(0%, 0%, 0%)" fill-opacity="1"/>
<path fill-rule="nonzero" fill="rgb(100%, 100%, 100%)" fill-opacity="1" d="M 148.246094 545.375 C 148.246094 531.921875 146.453125 512.863281 128.742188 512.863281 C 108.5625 512.863281 108.339844 537.976562 108.339844 545.375 Z M 108.785156 564.210938 C 108.785156 570.261719 109.011719 582.59375 119.101562 592.457031 C 129.191406 602.546875 143.09375 602.546875 147.574219 602.546875 C 166.859375 602.546875 174.03125 595.375 178.515625 591.113281 C 176.050781 603.671875 175.601562 607.03125 174.480469 619.140625 C 163.492188 622.054688 158.113281 623.398438 145.332031 623.398438 C 122.6875 623.398438 70.894531 622.054688 70.894531 557.480469 C 70.894531 545.820312 72.238281 525.421875 87.933594 510.171875 C 99.59375 498.964844 115.960938 494.703125 132.105469 494.703125 C 152.730469 494.703125 168.652344 501.429688 176.945312 520.039062 C 183.675781 534.835938 183.226562 551.652344 183 564.210938 Z M 108.785156 564.210938 "/>
<path fill-rule="nonzero" fill="rgb(100%, 100%, 100%)" fill-opacity="1" d="M 190.613281 525.421875 C 190.835938 517.570312 190.835938 513.085938 190.613281 505.6875 C 198.683594 505.910156 203.390625 506.136719 208.996094 506.136719 C 208.996094 495.148438 208.773438 491.339844 209.445312 486.628906 C 210.117188 481.25 212.359375 469.363281 228.054688 461.070312 C 244.648438 452.550781 263.480469 453 273.796875 453.222656 C 270.429688 465.105469 269.535156 468.695312 267.292969 480.574219 C 264.601562 479.230469 261.460938 477.660156 256.53125 477.660156 C 254.511719 477.660156 250.925781 477.886719 247.785156 481.027344 C 243.75 485.058594 243.75 492.011719 243.75 506.136719 C 252.71875 506.359375 254.960938 506.359375 264.824219 505.238281 C 264.601562 514.210938 264.601562 516.226562 264.824219 525.195312 C 255.410156 524.519531 253.613281 524.296875 243.300781 524.074219 C 243.300781 539.992188 243.078125 555.910156 243.078125 571.605469 L 243.078125 577.660156 C 243.078125 606.359375 244.421875 611.066406 248.011719 622.28125 C 240.609375 621.605469 233.210938 620.710938 225.585938 620.710938 C 218.414062 620.710938 211.238281 621.605469 204.289062 622.28125 C 206.976562 615.105469 208.101562 610.84375 208.550781 593.355469 C 208.996094 570.484375 208.996094 545.597656 208.996094 524.296875 C 202.945312 524.519531 199.355469 524.519531 190.613281 525.421875 "/>
<path fill-rule="nonzero" fill="rgb(100%, 100%, 100%)" fill-opacity="1" d="M 317.0625 598.511719 C 323.339844 598.511719 327.601562 594.699219 329.394531 593.132812 C 339.035156 583.492188 339.257812 570.039062 339.484375 559.273438 C 336.121094 559.050781 332.53125 558.601562 329.167969 558.601562 C 310.113281 558.601562 300.246094 570.933594 300.246094 581.246094 C 300.246094 592.234375 309.214844 598.511719 317.0625 598.511719 M 290.828125 549.410156 C 305.625 544.476562 326.925781 545.148438 339.035156 545.148438 C 339.035156 529.902344 337.464844 519.140625 317.960938 519.140625 C 302.710938 519.140625 288.8125 526.988281 281.1875 531.25 C 278.496094 519.589844 277.601562 516.898438 272.890625 506.585938 C 278.722656 504.566406 284.550781 502.324219 290.378906 500.976562 C 300.695312 498.289062 315.046875 496.269531 327.148438 496.269531 C 335.445312 496.269531 347.105469 497.167969 356.300781 501.652344 C 374.234375 510.621094 374.234375 527.4375 374.234375 538.648438 C 374.234375 547.390625 373.785156 555.910156 373.785156 564.433594 C 373.339844 576.089844 373.339844 593.582031 373.339844 599.183594 C 373.339844 610.621094 374.910156 614.878906 377.601562 621.605469 C 370.871094 621.15625 365.042969 620.707031 358.765625 620.707031 C 352.488281 620.707031 346.210938 621.15625 339.707031 621.605469 C 337.914062 611.964844 339.035156 604.789062 339.035156 600.304688 C 335.222656 605.6875 332.53125 609.5 326.253906 613.984375 C 319.527344 618.917969 311.90625 622.503906 301.816406 622.503906 C 291.503906 622.503906 281.636719 618.464844 274.910156 611.515625 C 266.613281 603.21875 265.269531 593.355469 265.269531 584.386719 C 265.269531 577.660156 265.269531 558.152344 290.828125 549.410156 "/>
<path fill-rule="nonzero" fill="rgb(100%, 100%, 100%)" fill-opacity="1" d="M 455.164062 494.703125 C 467.050781 494.703125 476.691406 496.71875 487.230469 498.960938 C 481.847656 510.398438 480.726562 513.3125 477.589844 524.296875 C 475.570312 522.054688 474 520.261719 469.292969 518.46875 C 465.257812 516.898438 460.996094 516.226562 456.511719 516.226562 C 450.683594 516.226562 444.851562 517.574219 439.695312 520.261719 C 426.019531 527.886719 424 545.148438 424 555.6875 C 424 574.746094 430.953125 586.851562 436.332031 592.234375 C 440.144531 595.824219 447.992188 601.425781 461.894531 601.425781 C 476.464844 601.425781 482.746094 596.046875 485.660156 593.582031 C 482.523438 605.238281 481.847656 608.152344 480.503906 621.382812 C 471.984375 622.503906 464.808594 623.398438 456.511719 623.398438 C 438.128906 623.398438 419.292969 619.367188 406.0625 606.585938 C 393.285156 594.25 388.125 576.539062 388.125 558.828125 C 388.125 523.847656 410.101562 494.703125 455.164062 494.703125 "/>
<path fill-rule="nonzero" fill="rgb(5.099487%, 41.19873%, 47.099304%)" fill-opacity="1" d="M 513.230469 515.882812 L 513.230469 496.273438 L 528.941406 496.273438 L 528.941406 515.882812 Z M 513.230469 515.882812 "/>
<path fill-rule="nonzero" fill="rgb(100%, 100%, 100%)" fill-opacity="1" d="M 513.230469 559.769531 L 513.230469 554.222656 L 528.941406 554.222656 L 528.941406 559.769531 Z M 513.230469 559.769531 "/>
<path fill-rule="nonzero" fill="rgb(92.89856%, 53.69873%, 13.299561%)" fill-opacity="1" d="M 513.230469 554.222656 L 513.230469 515.882812 L 528.941406 515.882812 L 528.941406 554.222656 Z M 513.230469 554.222656 "/>
<path fill-rule="nonzero" fill="rgb(79.998779%, 12.89978%, 15.699768%)" fill-opacity="1" d="M 513.230469 579.191406 L 513.230469 559.769531 L 528.941406 559.769531 L 528.941406 579.191406 Z M 513.230469 579.191406 "/>
<path fill-rule="nonzero" fill="rgb(5.099487%, 41.19873%, 47.099304%)" fill-opacity="1" d="M 513.230469 605.066406 L 513.230469 579.191406 L 528.941406 579.191406 L 528.941406 605.066406 Z M 513.230469 605.066406 "/>
<path fill-rule="nonzero" fill="rgb(92.89856%, 53.69873%, 13.299561%)" fill-opacity="1" d="M 513.230469 617.074219 L 513.230469 605.066406 L 528.941406 605.066406 L 528.941406 617.074219 Z M 513.230469 617.074219 "/>
<path fill-rule="nonzero" fill="rgb(100%, 100%, 100%)" fill-opacity="1" d="M 513.230469 627.449219 L 513.230469 617.074219 L 528.941406 617.074219 L 528.941406 627.449219 Z M 513.230469 627.449219 "/>
<path fill-rule="nonzero" fill="rgb(100%, 100%, 100%)" fill-opacity="1" d="M 553.496094 600.609375 C 553.496094 597.714844 553.472656 595.414062 553.417969 593.707031 C 553.367188 592.003906 553.289062 590.660156 553.1875 589.679688 C 553.082031 588.695312 552.960938 587.957031 552.824219 587.457031 C 552.6875 586.957031 552.515625 586.480469 552.308594 586.035156 C 552.652344 586.035156 553.210938 586.050781 553.988281 586.085938 C 554.761719 586.121094 555.640625 586.15625 556.621094 586.1875 C 557.605469 586.222656 558.628906 586.257812 559.699219 586.292969 C 560.765625 586.328125 561.765625 586.34375 562.695312 586.34375 C 564.351562 586.34375 566.097656 586.308594 567.941406 586.242188 C 569.785156 586.171875 571.6875 586.101562 573.652344 586.035156 C 573.546875 586.621094 573.472656 587.101562 573.417969 587.480469 C 573.367188 587.859375 573.34375 588.292969 573.34375 588.773438 C 573.34375 589.808594 573.445312 590.859375 573.652344 591.925781 C 573.308594 591.582031 572.945312 591.253906 572.566406 590.945312 C 572.1875 590.632812 571.601562 590.375 570.808594 590.167969 C 570.191406 589.996094 569.414062 589.867188 568.484375 589.78125 C 567.554688 589.695312 566.554688 589.652344 565.488281 589.652344 C 565.003906 589.652344 564.523438 589.660156 564.039062 589.679688 C 563.558594 589.695312 563.074219 589.703125 562.59375 589.703125 C 561.972656 589.738281 561.351562 589.773438 560.730469 589.808594 C 560.113281 589.839844 559.507812 589.875 558.921875 589.910156 C 558.886719 590.738281 558.863281 591.433594 558.847656 592.003906 C 558.828125 592.570312 558.8125 593.089844 558.792969 593.554688 C 558.777344 594.019531 558.769531 594.484375 558.769531 594.949219 L 558.769531 601.484375 C 559.972656 601.554688 560.9375 601.589844 561.660156 601.589844 C 562.386719 601.589844 562.988281 601.609375 563.472656 601.640625 C 564.023438 601.675781 564.640625 601.691406 565.332031 601.691406 C 566.019531 601.691406 566.796875 601.660156 567.65625 601.589844 C 568.554688 601.554688 569.261719 601.484375 569.777344 601.382812 C 570.292969 601.28125 570.707031 601.160156 571.015625 601.023438 C 571.328125 600.882812 571.566406 600.746094 571.738281 600.609375 C 571.910156 600.472656 572.117188 600.316406 572.359375 600.144531 C 572.289062 600.730469 572.222656 601.261719 572.152344 601.746094 C 572.082031 602.226562 572.050781 602.761719 572.050781 603.347656 C 572.050781 603.96875 572.082031 604.5625 572.152344 605.128906 C 572.222656 605.699219 572.289062 606.257812 572.359375 606.808594 C 572.082031 606.671875 571.835938 606.535156 571.609375 606.394531 C 571.386719 606.257812 571.109375 606.136719 570.785156 606.035156 C 570.457031 605.929688 570.070312 605.835938 569.621094 605.75 C 569.171875 605.664062 568.605469 605.585938 567.914062 605.519531 C 567.15625 605.449219 566.332031 605.40625 565.433594 605.386719 C 564.539062 605.371094 563.886719 605.363281 563.472656 605.363281 L 561.660156 605.363281 C 560.9375 605.363281 559.972656 605.398438 558.769531 605.464844 L 558.769531 611.203125 C 558.769531 612.789062 558.785156 614.167969 558.820312 615.335938 C 558.855469 616.507812 558.90625 617.527344 558.976562 618.386719 C 559.042969 619.25 559.164062 620.058594 559.335938 620.816406 C 559.441406 621.332031 559.550781 621.738281 559.671875 622.027344 C 559.792969 622.324219 559.9375 622.660156 560.113281 623.039062 C 559.457031 622.96875 558.8125 622.90625 558.171875 622.855469 C 557.535156 622.804688 556.890625 622.777344 556.234375 622.777344 C 555.546875 622.777344 554.867188 622.804688 554.195312 622.855469 C 553.523438 622.90625 552.84375 622.96875 552.152344 623.039062 C 552.460938 622.28125 552.695312 621.46875 552.851562 620.609375 C 553.003906 619.75 553.125 618.800781 553.210938 617.765625 C 553.296875 616.730469 553.359375 615.59375 553.394531 614.355469 C 553.429688 613.113281 553.460938 611.71875 553.496094 610.167969 Z M 553.496094 600.609375 "/>
<path fill-rule="nonzero" fill="rgb(100%, 100%, 100%)" fill-opacity="1" d="M 594.273438 589.34375 C 593.269531 589.34375 592.351562 589.453125 591.519531 589.679688 C 590.6875 589.902344 589.945312 590.1875 589.289062 590.53125 C 587.972656 591.253906 586.90625 592.175781 586.09375 593.296875 C 585.28125 594.414062 584.65625 595.628906 584.226562 596.9375 C 583.792969 598.246094 583.507812 599.582031 583.367188 600.945312 C 583.230469 602.304688 583.160156 603.570312 583.160156 604.742188 C 583.160156 607.5 583.410156 609.722656 583.914062 611.410156 C 584.414062 613.097656 584.996094 614.425781 585.652344 615.390625 C 586.484375 616.59375 587.617188 617.65625 589.054688 618.566406 C 590.488281 619.480469 592.246094 619.9375 594.324219 619.9375 C 596.46875 619.9375 598.40625 619.367188 600.136719 618.230469 C 601.417969 617.300781 602.492188 616.09375 603.359375 614.613281 C 604.1875 613.164062 604.75 611.566406 605.046875 609.808594 C 605.339844 608.050781 605.488281 606.3125 605.488281 604.589844 C 605.488281 603.933594 605.460938 603.199219 605.40625 602.390625 C 605.355469 601.582031 605.261719 600.738281 605.121094 599.859375 C 604.984375 598.980469 604.777344 598.09375 604.5 597.195312 C 604.222656 596.300781 603.878906 595.457031 603.460938 594.664062 C 602.839844 593.527344 602.128906 592.613281 601.332031 591.925781 C 600.535156 591.238281 599.722656 590.703125 598.894531 590.324219 C 598.0625 589.945312 597.25 589.6875 596.453125 589.546875 C 595.65625 589.410156 594.929688 589.34375 594.273438 589.34375 M 594.324219 585.828125 C 596.804688 585.828125 599.199219 586.234375 601.507812 587.042969 C 603.816406 587.851562 605.796875 589.1875 607.449219 591.046875 C 609.035156 592.875 610.121094 594.941406 610.707031 597.25 C 611.292969 599.558594 611.585938 601.917969 611.585938 604.328125 C 611.585938 605.019531 611.550781 605.90625 611.480469 606.992188 C 611.410156 608.074219 611.230469 609.257812 610.9375 610.53125 C 610.644531 611.804688 610.199219 613.113281 609.59375 614.457031 C 608.992188 615.800781 608.15625 617.058594 607.089844 618.230469 C 606.160156 619.300781 605.152344 620.167969 604.066406 620.839844 C 602.980469 621.511719 601.867188 622.039062 600.730469 622.417969 C 599.59375 622.796875 598.464844 623.054688 597.347656 623.191406 C 596.226562 623.328125 595.167969 623.398438 594.167969 623.398438 C 593.167969 623.398438 592.171875 623.328125 591.171875 623.191406 C 590.171875 623.054688 589.171875 622.832031 588.175781 622.519531 C 585.761719 621.761719 583.695312 620.503906 581.972656 618.746094 C 580.765625 617.507812 579.828125 616.183594 579.15625 614.769531 C 578.484375 613.355469 577.992188 611.988281 577.683594 610.660156 C 577.371094 609.335938 577.191406 608.136719 577.140625 607.066406 C 577.089844 606 577.0625 605.191406 577.0625 604.640625 C 577.0625 604.054688 577.097656 603.226562 577.164062 602.160156 C 577.234375 601.089844 577.414062 599.910156 577.707031 598.617188 C 578 597.324219 578.457031 596 579.078125 594.640625 C 579.699219 593.277344 580.578125 591.996094 581.714844 590.789062 C 583.195312 589.203125 584.996094 587.980469 587.113281 587.117188 C 589.234375 586.257812 591.636719 585.828125 594.324219 585.828125 "/>
<path fill-rule="nonzero" fill="rgb(100%, 100%, 100%)" fill-opacity="1" d="M 623.9375 603.8125 C 624.488281 603.882812 624.957031 603.925781 625.335938 603.941406 C 625.71875 603.960938 626.183594 603.96875 626.738281 603.96875 C 627.257812 603.96875 627.820312 603.960938 628.425781 603.941406 C 629.03125 603.925781 629.664062 603.855469 630.320312 603.734375 C 630.976562 603.613281 631.617188 603.417969 632.238281 603.140625 C 632.863281 602.863281 633.46875 602.484375 634.054688 602.003906 C 634.609375 601.519531 635.042969 601.011719 635.351562 600.480469 C 635.664062 599.945312 635.898438 599.429688 636.054688 598.929688 C 636.207031 598.429688 636.304688 597.972656 636.339844 597.558594 C 636.375 597.144531 636.390625 596.800781 636.390625 596.523438 C 636.390625 595.25 636.183594 594.183594 635.765625 593.320312 C 635.351562 592.460938 634.773438 591.761719 634.03125 591.226562 C 633.285156 590.695312 632.421875 590.316406 631.433594 590.089844 C 630.449219 589.867188 629.382812 589.753906 628.242188 589.753906 L 624.246094 589.960938 C 624.175781 590.859375 624.117188 591.625 624.066406 592.261719 C 624.015625 592.898438 623.980469 593.5 623.960938 594.070312 C 623.945312 594.640625 623.9375 595.207031 623.9375 595.777344 Z M 618.664062 597.195312 C 618.664062 595.472656 618.628906 593.992188 618.5625 592.753906 C 618.492188 591.511719 618.386719 590.453125 618.25 589.574219 C 618.113281 588.695312 617.96875 587.980469 617.8125 587.429688 C 617.65625 586.878906 617.511719 586.414062 617.375 586.035156 C 617.785156 586.101562 618.15625 586.164062 618.484375 586.214844 C 618.808594 586.265625 619.195312 586.300781 619.636719 586.320312 C 620.078125 586.335938 620.617188 586.351562 621.25 586.371094 C 621.878906 586.386719 622.707031 586.394531 623.730469 586.394531 C 624.523438 586.394531 625.464844 586.378906 626.554688 586.34375 C 627.640625 586.308594 628.808594 586.292969 630.050781 586.292969 C 631.226562 586.292969 632.523438 586.363281 633.941406 586.5 C 635.355469 586.636719 636.683594 587.042969 637.929688 587.714844 C 639.171875 588.386719 640.21875 589.402344 641.066406 590.761719 C 641.910156 592.125 642.335938 594.046875 642.335938 596.523438 C 642.335938 598.109375 642.042969 599.496094 641.457031 600.683594 C 640.871094 601.875 640.171875 602.882812 639.363281 603.710938 C 638.554688 604.535156 637.699219 605.191406 636.804688 605.671875 C 635.910156 606.15625 635.152344 606.464844 634.53125 606.601562 L 639.800781 614.925781 C 640.492188 616.027344 641.09375 616.972656 641.613281 617.765625 C 642.128906 618.558594 642.609375 619.265625 643.058594 619.886719 C 643.503906 620.503906 643.953125 621.058594 644.402344 621.539062 C 644.847656 622.023438 645.367188 622.519531 645.953125 623.039062 C 645.332031 622.96875 644.738281 622.90625 644.167969 622.855469 C 643.601562 622.804688 643.007812 622.777344 642.386719 622.777344 C 641.589844 622.777344 640.882812 622.804688 640.261719 622.855469 C 639.640625 622.90625 638.828125 622.96875 637.824219 623.039062 C 637.273438 621.761719 636.667969 620.515625 636.011719 619.292969 C 635.355469 618.066406 634.679688 616.851562 633.992188 615.648438 C 633.195312 614.269531 632.523438 613.148438 631.96875 612.289062 C 631.417969 611.425781 630.941406 610.703125 630.542969 610.117188 C 630.148438 609.53125 629.792969 609.050781 629.480469 608.671875 C 629.171875 608.292969 628.84375 607.894531 628.496094 607.480469 L 623.988281 607.378906 L 623.988281 612.703125 C 624.023438 614.5625 624.078125 616.027344 624.148438 617.09375 C 624.21875 618.164062 624.328125 619.128906 624.46875 619.988281 C 624.613281 620.816406 624.773438 621.433594 624.949219 621.847656 C 625.128906 622.261719 625.324219 622.65625 625.539062 623.039062 C 624.847656 622.96875 624.152344 622.917969 623.445312 622.882812 C 622.738281 622.847656 622.042969 622.832031 621.351562 622.832031 C 620.664062 622.832031 619.972656 622.847656 619.285156 622.882812 C 618.59375 622.917969 617.90625 622.96875 617.21875 623.039062 C 617.425781 622.726562 617.613281 622.390625 617.785156 622.027344 C 617.957031 621.667969 618.113281 621.039062 618.25 620.144531 C 618.421875 618.972656 618.527344 617.292969 618.5625 615.105469 C 618.59375 612.917969 618.628906 610.050781 618.664062 606.5 Z M 618.664062 597.195312 "/>
<path fill-rule="nonzero" fill="rgb(100%, 100%, 100%)" fill-opacity="1" d="M 681.609375 598.851562 C 681.40625 598.09375 681.214844 597.421875 681.042969 596.835938 C 680.871094 596.25 680.707031 595.679688 680.550781 595.128906 C 680.398438 594.578125 680.25 594 680.113281 593.398438 C 679.972656 592.796875 679.804688 592.082031 679.597656 591.253906 C 679.527344 590.875 679.449219 590.523438 679.363281 590.195312 C 679.277344 589.867188 679.199219 589.53125 679.132812 589.1875 L 673.03125 607.738281 C 673.960938 607.808594 674.902344 607.863281 675.847656 607.894531 C 676.796875 607.929688 677.75 607.945312 678.71875 607.945312 C 679.648438 607.945312 680.585938 607.929688 681.535156 607.894531 C 682.480469 607.863281 683.417969 607.808594 684.351562 607.738281 Z M 672.722656 594.40625 C 673.136719 593.164062 673.480469 592.125 673.757812 591.28125 C 674.03125 590.4375 674.246094 589.710938 674.402344 589.109375 C 674.558594 588.507812 674.6875 587.980469 674.789062 587.53125 C 674.894531 587.085938 674.976562 586.621094 675.046875 586.136719 C 675.769531 586.207031 676.496094 586.277344 677.21875 586.34375 C 677.941406 586.414062 678.664062 586.449219 679.390625 586.449219 C 680.078125 586.449219 680.773438 586.414062 681.480469 586.34375 C 682.1875 586.277344 682.886719 586.207031 683.574219 586.136719 C 683.78125 587.171875 683.980469 588.085938 684.167969 588.875 C 684.359375 589.667969 684.558594 590.460938 684.765625 591.253906 C 684.96875 592.046875 685.21875 592.890625 685.511719 593.785156 C 685.804688 594.683594 686.160156 595.75 686.570312 596.992188 L 691.222656 610.996094 C 691.601562 611.996094 692.015625 613.175781 692.464844 614.535156 C 692.910156 615.898438 693.324219 617.078125 693.703125 618.074219 C 694.015625 618.972656 694.289062 619.6875 694.53125 620.21875 C 694.773438 620.753906 694.988281 621.203125 695.175781 621.566406 C 695.367188 621.925781 695.554688 622.210938 695.746094 622.417969 C 695.933594 622.625 696.132812 622.832031 696.339844 623.039062 C 695.648438 622.933594 694.945312 622.847656 694.222656 622.777344 C 693.496094 622.710938 692.789062 622.675781 692.101562 622.675781 C 691.414062 622.675781 690.734375 622.710938 690.0625 622.777344 C 689.390625 622.847656 688.707031 622.933594 688.019531 623.039062 C 688.054688 622.863281 688.089844 622.667969 688.121094 622.445312 C 688.15625 622.21875 688.175781 621.988281 688.175781 621.746094 C 688.175781 621.261719 688.070312 620.617188 687.863281 619.808594 C 687.65625 619 687.414062 618.09375 687.140625 617.09375 L 685.589844 612.03125 C 683.351562 611.824219 681.128906 611.71875 678.925781 611.71875 C 677.71875 611.71875 676.519531 611.753906 675.332031 611.824219 C 674.144531 611.890625 672.945312 611.960938 671.738281 612.03125 L 670.449219 616.421875 C 670.136719 617.558594 669.894531 618.464844 669.726562 619.136719 C 669.550781 619.808594 669.414062 620.332031 669.3125 620.710938 C 669.207031 621.089844 669.148438 621.375 669.128906 621.566406 C 669.113281 621.753906 669.105469 621.9375 669.105469 622.109375 L 669.105469 622.519531 C 669.105469 622.625 669.121094 622.8125 669.15625 623.089844 C 668.570312 623.019531 667.976562 622.953125 667.371094 622.882812 C 666.769531 622.8125 666.160156 622.777344 665.539062 622.777344 C 664.953125 622.777344 664.351562 622.8125 663.730469 622.882812 C 663.109375 622.953125 662.507812 623.019531 661.921875 623.089844 C 662.4375 622.261719 662.867188 621.539062 663.214844 620.917969 C 663.558594 620.296875 663.902344 619.59375 664.246094 618.800781 C 664.589844 618.007812 664.96875 617.050781 665.382812 615.929688 C 665.796875 614.8125 666.3125 613.355469 666.933594 611.566406 Z M 672.722656 594.40625 "/>
<path fill-rule="nonzero" fill="rgb(100%, 100%, 100%)" fill-opacity="1" d="M 701.351562 599.316406 C 701.351562 597.765625 701.335938 596.34375 701.300781 595.050781 C 701.265625 593.761719 701.214844 592.476562 701.144531 591.203125 C 701.078125 590.480469 701.015625 589.867188 700.964844 589.367188 C 700.914062 588.867188 700.84375 588.429688 700.757812 588.050781 C 700.671875 587.671875 700.578125 587.324219 700.472656 587.015625 C 700.371094 586.707031 700.25 586.378906 700.113281 586.035156 C 700.214844 586.070312 700.421875 586.101562 700.734375 586.136719 C 701.042969 586.171875 701.390625 586.207031 701.773438 586.242188 C 702.15625 586.273438 702.554688 586.300781 702.972656 586.320312 C 703.390625 586.335938 703.773438 586.34375 704.121094 586.34375 C 704.851562 586.34375 705.554688 586.308594 706.230469 586.242188 C 706.90625 586.171875 707.570312 586.101562 708.226562 586.035156 C 708.121094 586.242188 708.019531 586.472656 707.914062 586.730469 C 707.8125 586.988281 707.699219 587.371094 707.578125 587.867188 C 707.457031 588.367188 707.339844 589.039062 707.21875 589.886719 C 707.097656 590.730469 706.992188 591.804688 706.910156 593.113281 C 706.820312 594.425781 706.753906 596.027344 706.703125 597.921875 C 706.648438 599.816406 706.625 602.089844 706.625 604.742188 C 706.625 606.570312 706.632812 608.128906 706.648438 609.421875 C 706.667969 610.710938 706.691406 611.875 706.726562 612.90625 C 706.761719 613.941406 706.804688 614.898438 706.855469 615.777344 C 706.910156 616.65625 706.96875 617.578125 707.039062 618.542969 C 707.933594 618.714844 708.855469 618.859375 709.804688 618.980469 C 710.75 619.101562 712 619.160156 713.550781 619.160156 C 715.101562 619.160156 716.367188 619.09375 717.347656 618.953125 C 718.328125 618.816406 719.148438 618.636719 719.804688 618.410156 C 720.457031 618.1875 720.992188 617.921875 721.40625 617.609375 C 721.820312 617.300781 722.214844 616.972656 722.59375 616.628906 C 722.457031 617.351562 722.34375 617.964844 722.257812 618.464844 C 722.171875 618.964844 722.09375 619.4375 722.023438 619.886719 C 721.957031 620.332031 721.894531 620.796875 721.84375 621.28125 C 721.792969 621.761719 721.730469 622.332031 721.664062 622.984375 C 720.800781 622.949219 720.042969 622.917969 719.390625 622.882812 C 718.734375 622.847656 718.035156 622.8125 717.296875 622.777344 C 716.554688 622.746094 715.695312 622.726562 714.710938 622.726562 L 707.03125 622.726562 C 705.992188 622.726562 705.082031 622.746094 704.300781 622.777344 C 703.519531 622.8125 702.78125 622.847656 702.085938 622.882812 C 701.390625 622.917969 700.613281 622.949219 699.75 622.984375 C 700.027344 622.46875 700.25 621.988281 700.421875 621.539062 C 700.59375 621.09375 700.734375 620.488281 700.835938 619.730469 C 700.9375 619.074219 701.023438 618.273438 701.09375 617.328125 C 701.164062 616.378906 701.214844 615.398438 701.25 614.382812 C 701.285156 613.363281 701.308594 612.355469 701.328125 611.359375 C 701.34375 610.359375 701.351562 609.480469 701.351562 608.722656 Z M 701.351562 599.316406 "/>
<path fill-rule="nonzero" fill="rgb(100%, 100%, 100%)" fill-opacity="1" d="M 727.917969 599.316406 C 727.917969 597.765625 727.898438 596.34375 727.863281 595.050781 C 727.832031 593.761719 727.777344 592.476562 727.710938 591.203125 C 727.640625 590.480469 727.582031 589.867188 727.527344 589.367188 C 727.476562 588.867188 727.40625 588.429688 727.324219 588.050781 C 727.234375 587.671875 727.140625 587.324219 727.039062 587.015625 C 726.933594 586.707031 726.8125 586.378906 726.675781 586.035156 C 726.78125 586.070312 726.988281 586.101562 727.296875 586.136719 C 727.605469 586.171875 727.953125 586.207031 728.335938 586.242188 C 728.71875 586.273438 729.117188 586.300781 729.535156 586.320312 C 729.953125 586.335938 730.335938 586.34375 730.683594 586.34375 C 731.414062 586.34375 732.117188 586.308594 732.792969 586.242188 C 733.46875 586.171875 734.136719 586.101562 734.789062 586.035156 C 734.6875 586.242188 734.582031 586.472656 734.480469 586.730469 C 734.375 586.988281 734.265625 587.371094 734.144531 587.867188 C 734.023438 588.367188 733.902344 589.039062 733.78125 589.886719 C 733.660156 590.730469 733.558594 591.804688 733.472656 593.113281 C 733.386719 594.425781 733.316406 596.027344 733.265625 597.921875 C 733.214844 599.816406 733.1875 602.089844 733.1875 604.742188 C 733.1875 606.570312 733.195312 608.128906 733.214844 609.421875 C 733.230469 610.710938 733.257812 611.875 733.292969 612.90625 C 733.324219 613.941406 733.367188 614.898438 733.421875 615.777344 C 733.472656 616.65625 733.53125 617.578125 733.601562 618.542969 C 734.496094 618.714844 735.417969 618.859375 736.367188 618.980469 C 737.3125 619.101562 738.5625 619.160156 740.113281 619.160156 C 741.664062 619.160156 742.929688 619.09375 743.910156 618.953125 C 744.894531 618.816406 745.710938 618.636719 746.367188 618.410156 C 747.019531 618.1875 747.554688 617.921875 747.96875 617.609375 C 748.382812 617.300781 748.777344 616.972656 749.15625 616.628906 C 749.019531 617.351562 748.90625 617.964844 748.820312 618.464844 C 748.734375 618.964844 748.65625 619.4375 748.589844 619.886719 C 748.519531 620.332031 748.460938 620.796875 748.40625 621.28125 C 748.355469 621.761719 748.296875 622.332031 748.226562 622.984375 C 747.367188 622.949219 746.605469 622.917969 745.953125 622.882812 C 745.296875 622.847656 744.601562 622.8125 743.859375 622.777344 C 743.117188 622.746094 742.257812 622.726562 741.277344 622.726562 L 733.59375 622.726562 C 732.558594 622.726562 731.648438 622.746094 730.867188 622.777344 C 730.082031 622.8125 729.34375 622.847656 728.648438 622.882812 C 727.953125 622.917969 727.175781 622.949219 726.3125 622.984375 C 726.589844 622.46875 726.8125 621.988281 726.988281 621.539062 C 727.160156 621.09375 727.296875 620.488281 727.398438 619.730469 C 727.503906 619.074219 727.589844 618.273438 727.65625 617.328125 C 727.726562 616.378906 727.777344 615.398438 727.8125 614.382812 C 727.847656 613.363281 727.871094 612.355469 727.890625 611.359375 C 727.90625 610.359375 727.917969 609.480469 727.917969 608.722656 Z M 727.917969 599.316406 "/>
<path fill-rule="nonzero" fill="rgb(100%, 100%, 100%)" fill-opacity="1" d="M 768.070312 604.84375 C 768.070312 598.644531 769.648438 593.925781 772.800781 590.683594 C 775.953125 587.445312 780.664062 585.828125 786.9375 585.828125 C 788.3125 585.828125 789.769531 585.898438 791.304688 586.035156 C 792.835938 586.171875 794.617188 586.621094 796.652344 587.378906 C 796.375 587.964844 796.144531 588.460938 795.953125 588.875 C 795.765625 589.289062 795.609375 589.6875 795.488281 590.066406 C 795.367188 590.445312 795.265625 590.839844 795.179688 591.253906 C 795.09375 591.667969 794.996094 592.167969 794.894531 592.753906 C 794.550781 592.304688 794.195312 591.875 793.835938 591.460938 C 793.472656 591.046875 792.964844 590.652344 792.3125 590.273438 C 791.65625 589.894531 790.855469 589.601562 789.90625 589.394531 C 788.957031 589.1875 787.96875 589.082031 786.9375 589.082031 C 784.902344 589.082031 783.050781 589.480469 781.378906 590.273438 C 779.707031 591.066406 778.375 592.0625 777.375 593.269531 C 776.824219 593.925781 776.347656 594.671875 775.953125 595.519531 C 775.558594 596.363281 775.230469 597.257812 774.972656 598.203125 C 774.710938 599.152344 774.515625 600.125 774.375 601.125 C 774.238281 602.125 774.167969 603.125 774.167969 604.121094 C 774.167969 606.464844 774.515625 608.6875 775.203125 610.789062 C 775.894531 612.890625 776.890625 614.632812 778.203125 616.007812 C 779.476562 617.351562 780.964844 618.335938 782.671875 618.953125 C 784.378906 619.574219 786.160156 619.886719 788.019531 619.886719 C 789.292969 619.886719 790.40625 619.78125 791.355469 619.574219 C 792.300781 619.367188 793.109375 619.117188 793.78125 618.824219 C 794.453125 618.53125 795.023438 618.222656 795.488281 617.894531 C 795.953125 617.570312 796.339844 617.285156 796.652344 617.042969 C 796.480469 617.59375 796.332031 618.070312 796.210938 618.464844 C 796.089844 618.859375 795.988281 619.257812 795.902344 619.652344 C 795.816406 620.046875 795.738281 620.453125 795.667969 620.867188 C 795.601562 621.28125 795.515625 621.796875 795.410156 622.417969 C 794.6875 622.589844 793.644531 622.777344 792.285156 622.984375 C 790.921875 623.191406 789.191406 623.296875 787.089844 623.296875 C 786.574219 623.296875 785.78125 623.269531 784.710938 623.21875 C 783.644531 623.167969 782.449219 622.984375 781.121094 622.675781 C 779.792969 622.367188 778.40625 621.867188 776.960938 621.175781 C 775.515625 620.488281 774.171875 619.523438 772.941406 618.28125 C 771.164062 616.421875 769.90625 614.3125 769.171875 611.953125 C 768.4375 609.59375 768.070312 607.222656 768.070312 604.84375 "/>
<path fill-rule="nonzero" fill="rgb(100%, 100%, 100%)" fill-opacity="1" d="M 802.078125 601.382812 C 802.042969 599.28125 802.007812 597.359375 801.972656 595.621094 C 801.9375 593.882812 801.871094 592.339844 801.765625 590.996094 C 801.695312 590.203125 801.621094 589.539062 801.535156 589.003906 C 801.449219 588.472656 801.363281 588.023438 801.277344 587.660156 C 801.1875 587.300781 801.101562 587 801.019531 586.757812 C 800.933594 586.515625 800.835938 586.292969 800.734375 586.085938 C 801.421875 586.15625 802.09375 586.222656 802.75 586.292969 C 803.402344 586.363281 804.074219 586.394531 804.765625 586.394531 C 805.453125 586.394531 806.132812 586.363281 806.804688 586.292969 C 807.476562 586.222656 808.140625 586.15625 808.796875 586.085938 C 808.589844 586.535156 808.398438 586.980469 808.226562 587.429688 C 808.054688 587.878906 807.898438 588.550781 807.761719 589.445312 C 807.660156 590.101562 807.582031 590.847656 807.527344 591.691406 C 807.476562 592.535156 807.441406 593.382812 807.425781 594.226562 C 807.40625 595.070312 807.390625 595.886719 807.375 596.679688 C 807.355469 597.472656 807.347656 598.160156 807.347656 598.75 L 807.347656 601.332031 C 808.828125 601.402344 810.292969 601.453125 811.742188 601.484375 C 813.1875 601.519531 814.652344 601.539062 816.132812 601.539062 C 817.582031 601.539062 818.976562 601.519531 820.320312 601.484375 C 821.664062 601.453125 823.144531 601.402344 824.765625 601.332031 L 824.765625 598.28125 C 824.730469 597.179688 824.714844 596.164062 824.714844 595.234375 C 824.714844 594.304688 824.679688 593.390625 824.609375 592.492188 C 824.539062 591.496094 824.472656 590.660156 824.402344 589.988281 C 824.335938 589.316406 824.246094 588.75 824.144531 588.28125 C 824.042969 587.816406 823.9375 587.421875 823.835938 587.09375 C 823.730469 586.765625 823.609375 586.429688 823.472656 586.085938 C 824.160156 586.15625 824.835938 586.222656 825.488281 586.292969 C 826.144531 586.363281 826.8125 586.394531 827.503906 586.394531 C 828.15625 586.394531 828.804688 586.363281 829.441406 586.292969 C 830.078125 586.222656 830.742188 586.15625 831.433594 586.085938 C 831.257812 586.601562 831.113281 587.101562 830.992188 587.585938 C 830.871094 588.066406 830.761719 588.722656 830.65625 589.546875 C 830.554688 590.308594 830.46875 591.160156 830.398438 592.105469 C 830.328125 593.054688 830.269531 594.054688 830.21875 595.105469 C 830.164062 596.15625 830.121094 597.214844 830.089844 598.28125 C 830.054688 599.351562 830.019531 600.382812 829.984375 601.382812 L 829.984375 605.570312 C 829.984375 608.050781 829.992188 610.359375 830.011719 612.496094 C 830.027344 614.632812 830.105469 616.542969 830.242188 618.230469 C 830.3125 618.988281 830.390625 619.617188 830.476562 620.117188 C 830.5625 620.617188 830.648438 621.046875 830.734375 621.410156 C 830.820312 621.769531 830.921875 622.074219 831.042969 622.3125 C 831.164062 622.554688 831.277344 622.796875 831.378906 623.039062 C 830.691406 622.96875 830.027344 622.898438 829.390625 622.832031 C 828.753906 622.761719 828.089844 622.726562 827.402344 622.726562 C 826.710938 622.726562 826.03125 622.761719 825.359375 622.832031 C 824.6875 622.898438 824.007812 622.96875 823.316406 623.039062 C 823.558594 622.347656 823.765625 621.617188 823.9375 620.839844 C 824.109375 620.066406 824.238281 619.179688 824.324219 618.179688 C 824.410156 617.179688 824.480469 616.050781 824.53125 614.792969 C 824.585938 613.535156 824.644531 612.097656 824.714844 610.480469 L 824.714844 605.570312 C 823.164062 605.5 821.699219 605.441406 820.320312 605.386719 C 818.941406 605.335938 817.5625 605.3125 816.1875 605.3125 C 814.703125 605.3125 813.230469 605.335938 811.769531 605.386719 C 810.304688 605.441406 808.828125 605.5 807.347656 605.570312 L 807.347656 610.429688 C 807.347656 612.875 807.390625 614.839844 807.476562 616.320312 C 807.5625 617.800781 807.667969 618.972656 807.789062 619.835938 C 807.90625 620.695312 808.046875 621.339844 808.203125 621.769531 C 808.355469 622.203125 808.535156 622.625 808.742188 623.039062 C 808.089844 622.96875 807.417969 622.898438 806.726562 622.832031 C 806.039062 622.761719 805.351562 622.726562 804.660156 622.726562 C 803.972656 622.726562 803.28125 622.761719 802.59375 622.832031 C 801.902344 622.898438 801.214844 622.96875 800.527344 623.039062 C 800.699219 622.691406 800.855469 622.363281 800.992188 622.054688 C 801.128906 621.746094 801.25 621.394531 801.355469 620.996094 C 801.457031 620.601562 801.535156 620.144531 801.585938 619.628906 C 801.636719 619.109375 801.695312 618.457031 801.765625 617.660156 C 801.9375 615.285156 802.035156 613.15625 802.050781 611.28125 C 802.070312 609.402344 802.078125 607.5 802.078125 605.570312 Z M 802.078125 601.382812 "/>
<path fill-rule="nonzero" fill="rgb(100%, 100%, 100%)" fill-opacity="1" d="M 839.59375 599.9375 C 839.527344 597.972656 839.476562 596.414062 839.441406 595.257812 C 839.40625 594.105469 839.378906 593.175781 839.363281 592.46875 C 839.34375 591.761719 839.3125 591.21875 839.257812 590.839844 C 839.207031 590.460938 839.164062 590.082031 839.128906 589.703125 C 838.992188 588.636719 838.855469 587.878906 838.71875 587.429688 C 838.578125 586.984375 838.40625 586.515625 838.199219 586.035156 C 838.890625 586.101562 839.5625 586.171875 840.214844 586.242188 C 840.871094 586.308594 841.542969 586.34375 842.230469 586.34375 C 842.917969 586.34375 843.59375 586.308594 844.246094 586.242188 C 844.902344 586.171875 845.574219 586.101562 846.261719 586.035156 C 845.953125 586.757812 845.703125 587.429688 845.515625 588.050781 C 845.324219 588.667969 845.175781 589.453125 845.074219 590.402344 C 844.96875 591.347656 844.902344 592.554688 844.867188 594.019531 C 844.832031 595.484375 844.796875 597.4375 844.765625 599.886719 L 844.765625 607.144531 C 844.765625 608.195312 844.773438 609.230469 844.789062 610.246094 C 844.808594 611.261719 844.832031 612.289062 844.867188 613.320312 C 844.902344 614.355469 844.9375 615.457031 844.96875 616.628906 C 845.003906 617.59375 845.046875 618.378906 845.101562 618.980469 C 845.152344 619.582031 845.21875 620.109375 845.308594 620.558594 C 845.394531 621.003906 845.515625 621.417969 845.667969 621.796875 C 845.824219 622.175781 846.003906 622.589844 846.210938 623.039062 C 845.523438 622.933594 844.851562 622.847656 844.195312 622.777344 C 843.539062 622.710938 842.867188 622.675781 842.179688 622.675781 C 841.492188 622.675781 840.820312 622.710938 840.164062 622.777344 C 839.507812 622.847656 838.835938 622.933594 838.148438 623.039062 C 838.285156 622.726562 838.414062 622.417969 838.535156 622.109375 C 838.65625 621.796875 838.769531 621.410156 838.871094 620.945312 C 838.976562 620.480469 839.0625 619.902344 839.128906 619.214844 C 839.199219 618.523438 839.269531 617.664062 839.335938 616.628906 C 839.441406 614.355469 839.507812 612.234375 839.542969 610.273438 C 839.578125 608.308594 839.59375 606.15625 839.59375 603.8125 Z M 839.59375 599.9375 "/>
<path fill-rule="nonzero" fill="rgb(100%, 100%, 100%)" fill-opacity="1" d="M 854.066406 599.316406 C 854.066406 597.765625 854.046875 596.34375 854.015625 595.050781 C 853.980469 593.761719 853.929688 592.476562 853.859375 591.203125 C 853.789062 590.480469 853.730469 589.867188 853.679688 589.367188 C 853.625 588.867188 853.558594 588.429688 853.472656 588.050781 C 853.386719 587.671875 853.289062 587.324219 853.1875 587.015625 C 853.082031 586.707031 852.964844 586.378906 852.824219 586.035156 C 852.929688 586.070312 853.136719 586.101562 853.445312 586.136719 C 853.757812 586.171875 854.101562 586.207031 854.484375 586.242188 C 854.867188 586.273438 855.269531 586.300781 855.683594 586.320312 C 856.101562 586.335938 856.484375 586.34375 856.832031 586.34375 C 857.5625 586.34375 858.265625 586.308594 858.945312 586.242188 C 859.621094 586.171875 860.285156 586.101562 860.9375 586.035156 C 860.835938 586.242188 860.734375 586.472656 860.628906 586.730469 C 860.527344 586.988281 860.414062 587.371094 860.292969 587.867188 C 860.171875 588.367188 860.054688 589.039062 859.933594 589.886719 C 859.8125 590.730469 859.707031 591.804688 859.621094 593.113281 C 859.535156 594.425781 859.46875 596.027344 859.414062 597.921875 C 859.363281 599.816406 859.339844 602.089844 859.339844 604.742188 C 859.339844 606.570312 859.347656 608.128906 859.363281 609.421875 C 859.378906 610.710938 859.40625 611.875 859.441406 612.90625 C 859.476562 613.941406 859.519531 614.898438 859.570312 615.777344 C 859.621094 616.65625 859.679688 617.578125 859.75 618.542969 C 860.648438 618.714844 861.566406 618.859375 862.515625 618.980469 C 863.464844 619.101562 864.710938 619.160156 866.261719 619.160156 C 867.8125 619.160156 869.078125 619.09375 870.0625 618.953125 C 871.042969 618.816406 871.859375 618.636719 872.515625 618.410156 C 873.167969 618.1875 873.703125 617.921875 874.117188 617.609375 C 874.53125 617.300781 874.925781 616.972656 875.308594 616.628906 C 875.167969 617.351562 875.058594 617.964844 874.972656 618.464844 C 874.886719 618.964844 874.808594 619.4375 874.738281 619.886719 C 874.667969 620.332031 874.609375 620.796875 874.558594 621.28125 C 874.507812 621.761719 874.445312 622.332031 874.375 622.984375 C 873.515625 622.949219 872.757812 622.917969 872.101562 622.882812 C 871.449219 622.847656 870.75 622.8125 870.011719 622.777344 C 869.269531 622.746094 868.40625 622.726562 867.425781 622.726562 L 859.746094 622.726562 C 858.707031 622.726562 857.796875 622.746094 857.015625 622.777344 C 856.230469 622.8125 855.492188 622.847656 854.796875 622.882812 C 854.105469 622.917969 853.324219 622.949219 852.464844 622.984375 C 852.738281 622.46875 852.964844 621.988281 853.136719 621.539062 C 853.308594 621.09375 853.445312 620.488281 853.550781 619.730469 C 853.652344 619.074219 853.738281 618.273438 853.808594 617.328125 C 853.875 616.378906 853.929688 615.398438 853.964844 614.382812 C 853.996094 613.363281 854.023438 612.355469 854.039062 611.359375 C 854.058594 610.359375 854.066406 609.480469 854.066406 608.722656 Z M 854.066406 599.316406 "/>
<path fill-rule="nonzero" fill="rgb(100%, 100%, 100%)" fill-opacity="1" d="M 885.902344 615.90625 C 885.902344 616.390625 885.9375 616.84375 886.003906 617.273438 C 886.074219 617.707031 886.28125 618.085938 886.625 618.410156 C 886.96875 618.738281 887.496094 619 888.199219 619.1875 C 888.90625 619.375 889.914062 619.472656 891.226562 619.472656 C 891.636719 619.472656 892.1875 619.453125 892.878906 619.417969 C 893.566406 619.386719 894.316406 619.300781 895.128906 619.160156 C 895.9375 619.023438 896.773438 618.824219 897.632812 618.566406 C 898.492188 618.308594 899.285156 617.957031 900.011719 617.507812 C 901.320312 616.714844 902.351562 615.726562 903.109375 614.535156 C 903.867188 613.347656 904.4375 612.117188 904.816406 610.839844 C 905.195312 609.566406 905.429688 608.324219 905.515625 607.121094 C 905.601562 605.914062 905.644531 604.898438 905.644531 604.070312 C 905.644531 603.105469 905.59375 602.097656 905.488281 601.046875 C 905.386719 599.996094 905.179688 598.945312 904.867188 597.894531 C 904.558594 596.84375 904.109375 595.828125 903.523438 594.84375 C 902.9375 593.863281 902.148438 592.976562 901.148438 592.183594 C 900.355469 591.566406 899.535156 591.082031 898.691406 590.738281 C 897.847656 590.394531 897.039062 590.132812 896.265625 589.960938 C 895.488281 589.789062 894.773438 589.6875 894.117188 589.652344 C 893.464844 589.617188 892.929688 589.601562 892.515625 589.601562 C 891.3125 589.601562 890.121094 589.667969 888.949219 589.808594 C 887.777344 589.945312 886.847656 590.046875 886.160156 590.117188 C 886.125 590.703125 886.089844 591.445312 886.058594 592.339844 C 886.023438 593.234375 885.996094 594.191406 885.980469 595.207031 C 885.960938 596.222656 885.945312 597.265625 885.929688 598.335938 C 885.910156 599.402344 885.902344 600.417969 885.902344 601.382812 Z M 880.628906 602.3125 C 880.628906 600.316406 880.613281 598.59375 880.578125 597.144531 C 880.542969 595.699219 880.507812 594.457031 880.476562 593.425781 C 880.441406 592.390625 880.390625 591.53125 880.320312 590.839844 C 880.25 590.152344 880.164062 589.539062 880.0625 589.003906 C 879.960938 588.472656 879.847656 587.980469 879.726562 587.53125 C 879.605469 587.085938 879.460938 586.601562 879.285156 586.085938 C 879.460938 586.121094 879.761719 586.164062 880.191406 586.214844 C 880.621094 586.265625 881.101562 586.320312 881.636719 586.371094 C 882.171875 586.421875 882.722656 586.464844 883.292969 586.5 C 883.859375 586.535156 884.386719 586.550781 884.867188 586.550781 C 885.695312 586.550781 886.480469 586.523438 887.21875 586.472656 C 887.960938 586.421875 888.699219 586.371094 889.441406 586.320312 C 890.183594 586.265625 890.957031 586.214844 891.765625 586.164062 C 892.578125 586.113281 893.464844 586.085938 894.429688 586.085938 C 895.703125 586.085938 897.097656 586.164062 898.613281 586.320312 C 900.132812 586.472656 901.613281 586.835938 903.058594 587.402344 C 904.507812 587.972656 905.859375 588.808594 907.117188 589.910156 C 908.375 591.011719 909.398438 592.527344 910.191406 594.457031 C 910.503906 595.25 910.761719 596.078125 910.96875 596.9375 C 911.175781 597.800781 911.328125 598.652344 911.433594 599.496094 C 911.535156 600.339844 911.613281 601.144531 911.664062 601.902344 C 911.714844 602.660156 911.742188 603.347656 911.742188 603.96875 C 911.742188 606.585938 911.355469 609.144531 910.578125 611.640625 C 909.804688 614.140625 908.488281 616.320312 906.625 618.179688 C 905.523438 619.28125 904.308594 620.152344 902.984375 620.789062 C 901.65625 621.425781 900.304688 621.910156 898.925781 622.238281 C 897.546875 622.566406 896.195312 622.773438 894.867188 622.855469 C 893.542969 622.941406 892.328125 622.984375 891.226562 622.984375 C 889.640625 622.984375 888.226562 622.953125 886.988281 622.882812 C 885.746094 622.8125 884.628906 622.777344 883.628906 622.777344 C 882.523438 622.777344 881.65625 622.804688 881.019531 622.855469 C 880.378906 622.90625 879.734375 622.953125 879.078125 622.984375 C 879.183594 622.847656 879.3125 622.660156 879.46875 622.417969 C 879.621094 622.175781 879.761719 621.769531 879.882812 621.203125 C 880 620.632812 880.113281 619.867188 880.21875 618.902344 C 880.320312 617.9375 880.40625 616.664062 880.476562 615.078125 C 880.542969 613.527344 880.578125 612.269531 880.578125 611.304688 C 880.578125 610.339844 880.59375 609.429688 880.628906 608.566406 Z M 880.628906 602.3125 "/>
<path fill-rule="nonzero" fill="rgb(100%, 100%, 100%)" fill-opacity="1" d="M 924.25 603.8125 C 924.800781 603.882812 925.269531 603.925781 925.648438 603.941406 C 926.03125 603.960938 926.496094 603.96875 927.050781 603.96875 C 927.566406 603.96875 928.132812 603.960938 928.738281 603.941406 C 929.34375 603.925781 929.972656 603.855469 930.632812 603.734375 C 931.289062 603.613281 931.929688 603.417969 932.550781 603.140625 C 933.175781 602.863281 933.777344 602.484375 934.367188 602.003906 C 934.921875 601.519531 935.351562 601.011719 935.664062 600.480469 C 935.976562 599.945312 936.210938 599.429688 936.367188 598.929688 C 936.519531 598.429688 936.617188 597.972656 936.648438 597.558594 C 936.683594 597.144531 936.703125 596.800781 936.703125 596.523438 C 936.703125 595.25 936.496094 594.183594 936.078125 593.320312 C 935.664062 592.460938 935.085938 591.761719 934.339844 591.226562 C 933.597656 590.695312 932.730469 590.316406 931.746094 590.089844 C 930.757812 589.867188 929.695312 589.753906 928.554688 589.753906 L 924.558594 589.960938 C 924.488281 590.859375 924.429688 591.625 924.378906 592.261719 C 924.324219 592.898438 924.289062 593.5 924.273438 594.070312 C 924.257812 594.640625 924.25 595.207031 924.25 595.777344 Z M 918.976562 597.195312 C 918.976562 595.472656 918.941406 593.992188 918.875 592.753906 C 918.804688 591.511719 918.699219 590.453125 918.5625 589.574219 C 918.425781 588.695312 918.277344 587.980469 918.125 587.429688 C 917.96875 586.878906 917.820312 586.414062 917.683594 586.035156 C 918.097656 586.101562 918.46875 586.164062 918.792969 586.214844 C 919.121094 586.265625 919.503906 586.300781 919.949219 586.320312 C 920.390625 586.335938 920.929688 586.351562 921.558594 586.371094 C 922.191406 586.386719 923.019531 586.394531 924.042969 586.394531 C 924.835938 586.394531 925.777344 586.378906 926.863281 586.34375 C 927.953125 586.308594 929.121094 586.292969 930.363281 586.292969 C 931.539062 586.292969 932.835938 586.363281 934.25 586.5 C 935.667969 586.636719 936.996094 587.042969 938.242188 587.714844 C 939.484375 588.386719 940.527344 589.402344 941.375 590.761719 C 942.222656 592.125 942.644531 594.046875 942.644531 596.523438 C 942.644531 598.109375 942.351562 599.496094 941.769531 600.683594 C 941.179688 601.875 940.484375 602.882812 939.675781 603.710938 C 938.863281 604.535156 938.011719 605.191406 937.117188 605.671875 C 936.21875 606.15625 935.460938 606.464844 934.84375 606.601562 L 940.113281 614.925781 C 940.804688 616.027344 941.40625 616.972656 941.921875 617.765625 C 942.4375 618.558594 942.921875 619.265625 943.371094 619.886719 C 943.816406 620.503906 944.265625 621.058594 944.714844 621.539062 C 945.160156 622.023438 945.679688 622.519531 946.265625 623.039062 C 945.644531 622.96875 945.050781 622.90625 944.480469 622.855469 C 943.914062 622.804688 943.316406 622.777344 942.699219 622.777344 C 941.902344 622.777344 941.195312 622.804688 940.574219 622.855469 C 939.949219 622.90625 939.136719 622.96875 938.136719 623.039062 C 937.585938 621.761719 936.980469 620.515625 936.320312 619.292969 C 935.667969 618.066406 934.992188 616.851562 934.300781 615.648438 C 933.507812 614.269531 932.835938 613.148438 932.28125 612.289062 C 931.726562 611.425781 931.253906 610.703125 930.855469 610.117188 C 930.457031 609.53125 930.105469 609.050781 929.792969 608.671875 C 929.480469 608.292969 929.152344 607.894531 928.808594 607.480469 L 924.300781 607.378906 L 924.300781 612.703125 C 924.335938 614.5625 924.386719 616.027344 924.460938 617.09375 C 924.53125 618.164062 924.636719 619.128906 924.78125 619.988281 C 924.921875 620.816406 925.085938 621.433594 925.261719 621.847656 C 925.441406 622.261719 925.636719 622.65625 925.851562 623.039062 C 925.160156 622.96875 924.464844 622.917969 923.757812 622.882812 C 923.050781 622.847656 922.351562 622.832031 921.664062 622.832031 C 920.976562 622.832031 920.285156 622.847656 919.597656 622.882812 C 918.90625 622.917969 918.21875 622.96875 917.53125 623.039062 C 917.734375 622.726562 917.925781 622.390625 918.097656 622.027344 C 918.269531 621.667969 918.425781 621.039062 918.5625 620.144531 C 918.734375 618.972656 918.839844 617.292969 918.875 615.105469 C 918.90625 612.917969 918.941406 610.050781 918.976562 606.5 Z M 918.976562 597.195312 "/>
<path fill-rule="nonzero" fill="rgb(100%, 100%, 100%)" fill-opacity="1" d="M 951.171875 597.457031 C 951.136719 595.800781 951.113281 594.433594 951.09375 593.347656 C 951.078125 592.261719 951.023438 591.324219 950.941406 590.53125 C 950.851562 589.738281 950.742188 588.996094 950.605469 588.308594 C 950.464844 587.617188 950.257812 586.859375 949.984375 586.035156 C 950.257812 586.070312 950.601562 586.101562 951.015625 586.136719 C 951.425781 586.171875 951.957031 586.207031 952.605469 586.242188 C 953.253906 586.277344 954.046875 586.300781 954.984375 586.320312 C 955.925781 586.335938 957.082031 586.34375 958.460938 586.34375 C 960.421875 586.34375 962.464844 586.308594 964.582031 586.242188 C 966.703125 586.171875 968.691406 586.101562 970.554688 586.035156 C 970.519531 586.6875 970.484375 587.292969 970.449219 587.84375 C 970.414062 588.394531 970.398438 588.960938 970.398438 589.546875 C 970.398438 590.34375 970.449219 591.203125 970.554688 592.132812 C 970.140625 591.652344 969.734375 591.253906 969.339844 590.945312 C 968.941406 590.632812 968.441406 590.394531 967.839844 590.222656 C 967.234375 590.046875 966.46875 589.929688 965.539062 589.859375 C 964.609375 589.789062 963.386719 589.753906 961.871094 589.753906 C 960.871094 589.753906 960 589.765625 959.261719 589.78125 C 958.519531 589.796875 957.632812 589.84375 956.597656 589.910156 C 956.53125 590.945312 956.484375 591.96875 956.46875 592.984375 C 956.453125 594 956.445312 594.941406 956.445312 595.800781 L 956.445312 601.433594 C 956.960938 601.46875 957.453125 601.503906 957.917969 601.539062 C 958.382812 601.574219 958.863281 601.597656 959.363281 601.617188 C 959.863281 601.632812 960.398438 601.652344 960.964844 601.667969 C 961.535156 601.6875 962.164062 601.695312 962.851562 601.695312 L 963.730469 601.695312 C 964.109375 601.695312 964.523438 601.675781 964.972656 601.640625 C 965.417969 601.609375 965.867188 601.574219 966.3125 601.539062 C 966.761719 601.503906 967.160156 601.433594 967.503906 601.332031 C 968.054688 601.195312 968.476562 601.023438 968.769531 600.816406 C 969.0625 600.609375 969.382812 600.367188 969.726562 600.089844 C 969.625 600.710938 969.546875 601.273438 969.492188 601.769531 C 969.441406 602.269531 969.417969 602.917969 969.417969 603.707031 C 969.417969 604.398438 969.441406 604.96875 969.492188 605.414062 C 969.546875 605.863281 969.625 606.363281 969.726562 606.914062 C 969.382812 606.707031 969.082031 606.535156 968.820312 606.394531 C 968.5625 606.257812 968.304688 606.136719 968.046875 606.035156 C 967.789062 605.929688 967.503906 605.855469 967.191406 605.800781 C 966.882812 605.75 966.503906 605.691406 966.058594 605.621094 C 965.367188 605.554688 964.6875 605.5 964.015625 605.464844 C 963.34375 605.433594 962.628906 605.414062 961.871094 605.414062 L 959.414062 605.414062 C 958.539062 605.414062 957.546875 605.433594 956.445312 605.464844 L 956.445312 614.769531 C 956.445312 615.835938 956.503906 616.671875 956.625 617.273438 C 956.746094 617.878906 957.019531 618.335938 957.453125 618.644531 C 957.882812 618.953125 958.519531 619.152344 959.363281 619.238281 C 960.207031 619.324219 961.355469 619.367188 962.800781 619.367188 C 963.109375 619.367188 963.566406 619.359375 964.171875 619.34375 C 964.773438 619.324219 965.46875 619.265625 966.261719 619.160156 C 967.226562 619.058594 968.046875 618.921875 968.71875 618.746094 C 969.390625 618.574219 969.957031 618.386719 970.421875 618.179688 C 970.886719 617.972656 971.300781 617.75 971.664062 617.507812 C 972.023438 617.265625 972.378906 617.007812 972.722656 616.730469 C 972.449219 617.457031 972.230469 618.074219 972.078125 618.59375 C 971.921875 619.109375 971.792969 619.582031 971.691406 620.015625 C 971.585938 620.445312 971.5 620.902344 971.429688 621.382812 C 971.363281 621.867188 971.277344 622.433594 971.171875 623.089844 C 970.277344 623.054688 968.960938 622.992188 967.21875 622.90625 C 965.480469 622.824219 963.078125 622.777344 960.011719 622.777344 L 956.605469 622.777344 C 955.644531 622.777344 954.78125 622.789062 954.011719 622.804688 C 953.246094 622.824219 952.519531 622.855469 951.835938 622.90625 C 951.152344 622.960938 950.449219 623.019531 949.726562 623.089844 C 949.933594 622.570312 950.105469 622.097656 950.242188 621.667969 C 950.378906 621.238281 950.5 620.730469 950.605469 620.144531 C 950.878906 618.695312 951.042969 617.136719 951.09375 615.46875 C 951.144531 613.796875 951.171875 612.132812 951.171875 610.480469 Z M 951.171875 597.457031 "/>
<path fill-rule="nonzero" fill="rgb(100%, 100%, 100%)" fill-opacity="1" d="M 978.40625 592.753906 C 978.304688 591.582031 978.203125 590.632812 978.097656 589.910156 C 977.996094 589.1875 977.855469 588.59375 977.683594 588.125 C 977.511719 587.660156 977.320312 587.285156 977.117188 586.988281 C 976.910156 586.699219 976.648438 586.378906 976.339844 586.035156 C 977.203125 586.136719 977.984375 586.214844 978.691406 586.265625 C 979.398438 586.320312 980.128906 586.34375 980.886719 586.34375 C 981.472656 586.34375 982.230469 586.328125 983.164062 586.292969 C 984.09375 586.257812 985.058594 586.171875 986.054688 586.035156 C 986.261719 586.515625 986.445312 586.949219 986.597656 587.324219 C 986.753906 587.707031 986.96875 588.152344 987.246094 588.667969 C 987.519531 589.1875 987.875 589.851562 988.304688 590.660156 C 988.734375 591.46875 989.3125 592.546875 990.035156 593.890625 L 998.355469 607.480469 C 999.253906 608.964844 1000.003906 610.167969 1000.605469 611.097656 C 1001.207031 612.027344 1001.699219 612.804688 1002.078125 613.425781 C 1002.457031 614.042969 1002.75 614.5625 1002.957031 614.976562 C 1003.164062 615.390625 1003.335938 615.820312 1003.472656 616.269531 C 1003.402344 615.542969 1003.359375 614.699219 1003.34375 613.734375 C 1003.328125 612.769531 1003.308594 611.761719 1003.292969 610.710938 C 1003.273438 609.660156 1003.265625 608.617188 1003.265625 607.585938 L 1003.265625 598.179688 C 1003.265625 595.90625 1003.214844 594.054688 1003.109375 592.621094 C 1003.007812 591.195312 1002.886719 590.046875 1002.75 589.1875 C 1002.609375 588.324219 1002.457031 587.671875 1002.285156 587.222656 C 1002.109375 586.777344 1001.957031 586.414062 1001.820312 586.136719 C 1002.300781 586.207031 1002.871094 586.257812 1003.523438 586.292969 C 1004.179688 586.328125 1004.902344 586.34375 1005.695312 586.34375 C 1006.210938 586.34375 1006.761719 586.328125 1007.347656 586.292969 C 1007.933594 586.257812 1008.519531 586.207031 1009.105469 586.136719 C 1008.96875 586.515625 1008.839844 586.90625 1008.71875 587.300781 C 1008.597656 587.695312 1008.484375 588.179688 1008.382812 588.746094 C 1008.277344 589.316406 1008.183594 589.996094 1008.097656 590.789062 C 1008.011719 591.582031 1007.953125 592.546875 1007.917969 593.683594 C 1007.78125 596.921875 1007.683594 600.136719 1007.632812 603.320312 C 1007.582031 606.507812 1007.554688 609.722656 1007.554688 612.960938 C 1007.554688 614.648438 1007.582031 616.328125 1007.632812 618 C 1007.683594 619.667969 1007.847656 621.351562 1008.125 623.039062 C 1007.574219 622.96875 1007.039062 622.898438 1006.523438 622.832031 C 1006.003906 622.761719 1005.46875 622.726562 1004.921875 622.726562 C 1003.988281 622.726562 1003.007812 622.832031 1001.972656 623.039062 C 1001.492188 622.210938 1001.09375 621.511719 1000.785156 620.945312 C 1000.476562 620.375 1000.148438 619.808594 999.804688 619.238281 C 999.460938 618.671875 999.0625 618.035156 998.613281 617.328125 C 998.167969 616.621094 997.582031 615.699219 996.859375 614.5625 L 988.070312 600.402344 C 987.175781 598.953125 986.410156 597.730469 985.773438 596.730469 C 985.132812 595.734375 984.601562 594.878906 984.171875 594.175781 C 983.738281 593.46875 983.386719 592.875 983.109375 592.390625 C 982.835938 591.910156 982.628906 591.480469 982.488281 591.097656 C 982.59375 591.996094 982.695312 592.90625 982.800781 593.839844 C 982.902344 594.769531 982.980469 595.8125 983.03125 596.964844 C 983.085938 598.121094 983.128906 599.429688 983.164062 600.890625 C 983.195312 602.355469 983.214844 604.089844 983.214844 606.085938 L 983.214844 612.753906 C 983.214844 614.476562 983.265625 616.234375 983.371094 618.023438 C 983.472656 619.816406 983.816406 621.503906 984.402344 623.089844 C 983.816406 622.984375 983.230469 622.890625 982.644531 622.804688 C 982.058594 622.71875 981.472656 622.675781 980.886719 622.675781 C 980.269531 622.675781 979.65625 622.71875 979.054688 622.804688 C 978.449219 622.890625 977.839844 622.984375 977.21875 623.089844 C 977.390625 622.605469 977.5625 622.046875 977.734375 621.410156 C 977.90625 620.773438 978.082031 619.800781 978.253906 618.488281 C 978.355469 617.527344 978.441406 616.363281 978.511719 615 C 978.578125 613.640625 978.640625 612.175781 978.691406 610.609375 C 978.746094 609.039062 978.769531 607.421875 978.769531 605.75 C 978.769531 604.078125 978.753906 602.449219 978.71875 600.867188 C 978.683594 599.28125 978.640625 597.792969 978.589844 596.394531 C 978.539062 595 978.476562 593.785156 978.40625 592.753906 "/>
<path fill-rule="nonzero" fill="rgb(100%, 100%, 100%)" fill-opacity="1" d="M 556.183594 518.078125 C 556.128906 515.40625 556.085938 513.195312 556.058594 511.4375 C 556.03125 509.6875 555.949219 508.171875 555.808594 506.890625 C 555.667969 505.609375 555.488281 504.414062 555.265625 503.300781 C 555.042969 502.1875 554.710938 500.960938 554.265625 499.625 C 554.710938 499.683594 555.265625 499.738281 555.929688 499.792969 C 556.597656 499.851562 557.453125 499.90625 558.5 499.960938 C 559.546875 500.015625 560.828125 500.058594 562.347656 500.085938 C 563.863281 500.117188 565.730469 500.128906 567.957031 500.128906 C 571.128906 500.128906 574.425781 500.074219 577.847656 499.960938 C 581.273438 499.851562 584.484375 499.738281 587.492188 499.625 C 587.4375 500.683594 587.378906 501.660156 587.324219 502.550781 C 587.269531 503.441406 587.242188 504.359375 587.242188 505.304688 C 587.242188 506.585938 587.324219 507.976562 587.492188 509.476562 C 586.824219 508.699219 586.167969 508.058594 585.53125 507.558594 C 584.890625 507.058594 584.082031 506.667969 583.109375 506.390625 C 582.132812 506.113281 580.898438 505.917969 579.394531 505.804688 C 577.890625 505.695312 575.914062 505.636719 573.464844 505.636719 C 571.851562 505.636719 570.445312 505.652344 569.25 505.679688 C 568.054688 505.707031 566.621094 505.777344 564.949219 505.886719 C 564.839844 507.558594 564.769531 509.214844 564.742188 510.855469 C 564.714844 512.5 564.699219 514.015625 564.699219 515.40625 L 564.699219 524.503906 C 565.535156 524.5625 566.328125 524.617188 567.078125 524.671875 C 567.832031 524.726562 568.609375 524.769531 569.417969 524.796875 C 570.222656 524.828125 571.085938 524.851562 572.003906 524.882812 C 572.921875 524.910156 573.9375 524.921875 575.050781 524.921875 L 576.472656 524.921875 C 577.082031 524.921875 577.75 524.894531 578.476562 524.839844 C 579.199219 524.785156 579.921875 524.726562 580.644531 524.671875 C 581.367188 524.617188 582.007812 524.503906 582.566406 524.339844 C 583.457031 524.117188 584.136719 523.835938 584.609375 523.503906 C 585.082031 523.171875 585.597656 522.78125 586.15625 522.335938 C 585.988281 523.335938 585.863281 524.242188 585.78125 525.046875 C 585.695312 525.855469 585.65625 526.898438 585.65625 528.179688 C 585.65625 529.292969 585.695312 530.210938 585.78125 530.933594 C 585.863281 531.65625 585.988281 532.464844 586.15625 533.355469 C 585.597656 533.019531 585.113281 532.742188 584.695312 532.519531 C 584.277344 532.296875 583.859375 532.101562 583.441406 531.933594 C 583.023438 531.769531 582.566406 531.644531 582.066406 531.558594 C 581.5625 531.476562 580.949219 531.378906 580.230469 531.265625 C 579.113281 531.15625 578.015625 531.074219 576.929688 531.015625 C 575.84375 530.960938 574.691406 530.933594 573.464844 530.933594 L 569.5 530.933594 C 568.082031 530.933594 566.480469 530.960938 564.699219 531.015625 L 564.699219 546.042969 C 564.699219 547.769531 564.796875 549.121094 564.992188 550.09375 C 565.1875 551.066406 565.632812 551.804688 566.328125 552.304688 C 567.023438 552.804688 568.054688 553.128906 569.417969 553.265625 C 570.78125 553.40625 572.632812 553.472656 574.96875 553.472656 C 575.46875 553.472656 576.207031 553.460938 577.179688 553.433594 C 578.152344 553.40625 579.28125 553.308594 580.5625 553.140625 C 582.121094 552.972656 583.441406 552.753906 584.527344 552.472656 C 585.613281 552.195312 586.53125 551.886719 587.28125 551.554688 C 588.035156 551.21875 588.703125 550.859375 589.285156 550.46875 C 589.871094 550.082031 590.441406 549.664062 590.996094 549.214844 C 590.550781 550.386719 590.203125 551.386719 589.953125 552.222656 C 589.703125 553.058594 589.496094 553.824219 589.328125 554.519531 C 589.160156 555.214844 589.023438 555.953125 588.910156 556.730469 C 588.796875 557.511719 588.660156 558.429688 588.492188 559.484375 C 587.046875 559.429688 584.917969 559.332031 582.105469 559.195312 C 579.296875 559.054688 575.414062 558.984375 570.460938 558.984375 L 564.960938 558.984375 C 563.410156 558.984375 562.011719 559 560.773438 559.027344 C 559.53125 559.054688 558.359375 559.109375 557.253906 559.195312 C 556.152344 559.277344 555.015625 559.375 553.847656 559.484375 C 554.179688 558.652344 554.457031 557.886719 554.683594 557.1875 C 554.902344 556.496094 555.101562 555.675781 555.265625 554.726562 C 555.710938 552.390625 555.976562 549.871094 556.058594 547.171875 C 556.144531 544.472656 556.183594 541.789062 556.183594 539.117188 Z M 556.183594 518.078125 "/>
<path fill-rule="nonzero" fill="rgb(100%, 100%, 100%)" fill-opacity="1" d="M 608.277344 547.882812 C 608.277344 548.660156 608.332031 549.398438 608.445312 550.09375 C 608.554688 550.789062 608.890625 551.402344 609.445312 551.929688 C 610.003906 552.460938 610.851562 552.878906 611.992188 553.183594 C 613.132812 553.488281 614.761719 553.640625 616.875 553.640625 C 617.542969 553.640625 618.433594 553.613281 619.546875 553.558594 C 620.660156 553.503906 621.871094 553.363281 623.179688 553.140625 C 624.488281 552.917969 625.835938 552.597656 627.230469 552.179688 C 628.621094 551.761719 629.902344 551.191406 631.070312 550.46875 C 633.183594 549.1875 634.851562 547.589844 636.078125 545.667969 C 637.300781 543.75 638.21875 541.757812 638.832031 539.699219 C 639.445312 537.640625 639.820312 535.636719 639.960938 533.6875 C 640.097656 531.742188 640.167969 530.097656 640.167969 528.761719 C 640.167969 527.207031 640.085938 525.578125 639.917969 523.878906 C 639.75 522.183594 639.417969 520.484375 638.917969 518.785156 C 638.414062 517.089844 637.691406 515.445312 636.746094 513.859375 C 635.796875 512.273438 634.519531 510.84375 632.90625 509.5625 C 631.625 508.558594 630.304688 507.78125 628.941406 507.222656 C 627.574219 506.667969 626.269531 506.25 625.015625 505.972656 C 623.765625 505.695312 622.609375 505.527344 621.550781 505.472656 C 620.492188 505.417969 619.632812 505.386719 618.964844 505.386719 C 617.015625 505.386719 615.09375 505.5 613.203125 505.722656 C 611.3125 505.945312 609.808594 506.109375 608.695312 506.222656 C 608.640625 507.171875 608.582031 508.363281 608.527344 509.8125 C 608.472656 511.261719 608.429688 512.804688 608.402344 514.445312 C 608.375 516.085938 608.347656 517.773438 608.320312 519.496094 C 608.289062 521.222656 608.277344 522.863281 608.277344 524.421875 Z M 599.761719 525.925781 C 599.761719 522.695312 599.734375 519.914062 599.679688 517.574219 C 599.621094 515.238281 599.566406 513.234375 599.511719 511.566406 C 599.457031 509.894531 599.371094 508.503906 599.261719 507.390625 C 599.148438 506.277344 599.011719 505.292969 598.84375 504.425781 C 598.675781 503.566406 598.496094 502.773438 598.300781 502.046875 C 598.105469 501.324219 597.871094 500.546875 597.59375 499.710938 C 597.871094 499.765625 598.355469 499.835938 599.054688 499.917969 C 599.746094 500.003906 600.527344 500.085938 601.390625 500.167969 C 602.253906 500.253906 603.144531 500.324219 604.0625 500.378906 C 604.980469 500.433594 605.828125 500.460938 606.609375 500.460938 C 607.945312 500.460938 609.210938 500.421875 610.40625 500.335938 C 611.601562 500.253906 612.796875 500.167969 613.996094 500.085938 C 615.191406 500.003906 616.445312 499.917969 617.753906 499.835938 C 619.0625 499.753906 620.492188 499.710938 622.054688 499.710938 C 624.109375 499.710938 626.363281 499.835938 628.816406 500.085938 C 631.265625 500.335938 633.65625 500.921875 635.996094 501.839844 C 638.332031 502.757812 640.515625 504.109375 642.546875 505.886719 C 644.578125 507.671875 646.234375 510.117188 647.515625 513.234375 C 648.015625 514.515625 648.433594 515.851562 648.769531 517.242188 C 649.101562 518.632812 649.351562 520.011719 649.519531 521.375 C 649.6875 522.738281 649.8125 524.03125 649.894531 525.257812 C 649.976562 526.480469 650.019531 527.59375 650.019531 528.597656 C 650.019531 532.824219 649.394531 536.957031 648.140625 540.992188 C 646.890625 545.027344 644.761719 548.550781 641.753906 551.554688 C 639.972656 553.335938 638.011719 554.742188 635.867188 555.769531 C 633.726562 556.800781 631.542969 557.578125 629.316406 558.109375 C 627.089844 558.636719 624.902344 558.972656 622.761719 559.109375 C 620.617188 559.25 618.65625 559.320312 616.875 559.320312 C 614.316406 559.320312 612.035156 559.261719 610.03125 559.152344 C 608.027344 559.039062 606.21875 558.984375 604.605469 558.984375 C 602.824219 558.984375 601.417969 559.027344 600.390625 559.109375 C 599.359375 559.191406 598.316406 559.261719 597.257812 559.320312 C 597.425781 559.09375 597.632812 558.789062 597.882812 558.398438 C 598.136719 558.011719 598.355469 557.355469 598.550781 556.4375 C 598.746094 555.519531 598.929688 554.28125 599.09375 552.722656 C 599.261719 551.167969 599.398438 549.105469 599.511719 546.546875 C 599.621094 544.042969 599.679688 542.011719 599.679688 540.449219 C 599.679688 538.894531 599.707031 537.417969 599.761719 536.027344 Z M 599.761719 525.925781 "/>
<path fill-rule="nonzero" fill="rgb(100%, 100%, 100%)" fill-opacity="1" d="M 697.519531 515.90625 L 697.519531 512.234375 C 697.519531 511.011719 697.507812 509.882812 697.480469 508.851562 C 697.453125 507.824219 697.421875 506.90625 697.394531 506.097656 C 697.367188 505.289062 697.328125 504.71875 697.269531 504.386719 C 697.15625 503.273438 697.019531 502.410156 696.851562 501.796875 C 696.6875 501.1875 696.4375 500.488281 696.101562 499.710938 C 697.992188 500.042969 699.804688 500.210938 701.527344 500.210938 C 702.472656 500.210938 703.390625 500.15625 704.28125 500.042969 C 705.171875 499.933594 706.089844 499.824219 707.039062 499.710938 C 706.703125 500.65625 706.425781 501.5625 706.203125 502.425781 C 705.980469 503.285156 705.800781 504.300781 705.660156 505.472656 C 705.519531 506.640625 705.410156 508.058594 705.328125 509.730469 C 705.242188 511.398438 705.171875 513.484375 705.117188 515.988281 L 705.117188 537.945312 C 705.007812 539.5625 704.882812 541.1875 704.742188 542.832031 C 704.601562 544.472656 704.28125 546.074219 703.78125 547.632812 C 703.28125 549.191406 702.558594 550.691406 701.613281 552.140625 C 700.664062 553.585938 699.328125 554.921875 697.605469 556.144531 C 695.378906 557.761719 692.832031 558.789062 689.964844 559.234375 C 687.097656 559.679688 684.332031 559.902344 681.660156 559.902344 C 680.546875 559.902344 679.335938 559.847656 678.027344 559.734375 C 676.71875 559.621094 675.425781 559.441406 674.144531 559.191406 C 672.863281 558.941406 671.628906 558.621094 670.429688 558.234375 C 669.234375 557.84375 668.164062 557.371094 667.214844 556.8125 C 665.378906 555.757812 663.933594 554.464844 662.875 552.933594 C 661.816406 551.402344 661.039062 549.746094 660.539062 547.964844 C 660.039062 546.183594 659.714844 544.332031 659.578125 542.414062 C 659.4375 540.492188 659.339844 538.613281 659.285156 536.777344 L 659.285156 515.90625 C 659.230469 512.734375 659.160156 510.203125 659.078125 508.308594 C 658.992188 506.417969 658.867188 504.929688 658.703125 503.84375 C 658.535156 502.757812 658.324219 501.9375 658.074219 501.378906 C 657.824219 500.824219 657.53125 500.238281 657.199219 499.625 C 658.3125 499.738281 659.394531 499.851562 660.453125 499.960938 C 661.511719 500.074219 662.597656 500.128906 663.710938 500.128906 C 664.878906 500.128906 666.03125 500.074219 667.175781 499.960938 C 668.316406 499.851562 669.441406 499.738281 670.554688 499.625 C 670.222656 500.074219 669.929688 500.558594 669.679688 501.089844 C 669.429688 501.617188 669.164062 502.523438 668.886719 503.800781 C 668.496094 505.695312 668.273438 507.738281 668.21875 509.9375 C 668.164062 512.136719 668.132812 514.125 668.132812 515.90625 L 668.132812 533.605469 C 668.132812 535.832031 668.164062 537.75 668.21875 539.367188 C 668.273438 540.980469 668.496094 542.425781 668.886719 543.707031 C 669.722656 546.769531 671.347656 549.035156 673.769531 550.511719 C 676.191406 551.984375 679.488281 552.722656 683.664062 552.722656 C 687.113281 552.722656 689.769531 552.152344 691.636719 551.011719 C 693.5 549.871094 694.878906 548.394531 695.769531 546.585938 C 696.65625 544.777344 697.171875 542.734375 697.3125 540.449219 C 697.453125 538.167969 697.519531 535.886719 697.519531 533.605469 Z M 697.519531 515.90625 "/>
<path fill-rule="nonzero" fill="rgb(100%, 100%, 100%)" fill-opacity="1" d="M 714.550781 530.015625 C 714.550781 519.996094 717.097656 512.371094 722.191406 507.140625 C 727.28125 501.910156 734.894531 499.292969 745.023438 499.292969 C 747.246094 499.292969 749.601562 499.40625 752.078125 499.625 C 754.554688 499.851562 757.433594 500.574219 760.71875 501.796875 C 760.273438 502.746094 759.894531 503.550781 759.589844 504.21875 C 759.285156 504.886719 759.035156 505.527344 758.839844 506.140625 C 758.644531 506.75 758.476562 507.390625 758.339844 508.058594 C 758.199219 508.726562 758.046875 509.535156 757.878906 510.480469 C 757.320312 509.757812 756.753906 509.0625 756.167969 508.394531 C 755.582031 507.726562 754.761719 507.085938 753.703125 506.472656 C 752.648438 505.863281 751.351562 505.386719 749.824219 505.054688 C 748.292969 504.71875 746.691406 504.550781 745.023438 504.550781 C 741.738281 504.550781 738.746094 505.195312 736.046875 506.472656 C 733.347656 507.753906 731.191406 509.367188 729.578125 511.316406 C 728.6875 512.371094 727.921875 513.582031 727.28125 514.945312 C 726.640625 516.3125 726.113281 517.757812 725.695312 519.289062 C 725.277344 520.820312 724.957031 522.390625 724.734375 524.003906 C 724.511719 525.621094 724.402344 527.234375 724.402344 528.847656 C 724.402344 532.632812 724.957031 536.222656 726.070312 539.617188 C 727.183594 543.011719 728.796875 545.824219 730.914062 548.046875 C 732.972656 550.21875 735.378906 551.804688 738.136719 552.808594 C 740.890625 553.808594 743.769531 554.308594 746.777344 554.308594 C 748.835938 554.308594 750.628906 554.144531 752.160156 553.808594 C 753.691406 553.476562 755 553.070312 756.085938 552.597656 C 757.171875 552.125 758.089844 551.625 758.839844 551.09375 C 759.589844 550.566406 760.21875 550.109375 760.71875 549.71875 C 760.4375 550.609375 760.203125 551.375 760.007812 552.015625 C 759.8125 552.652344 759.644531 553.292969 759.507812 553.933594 C 759.367188 554.574219 759.242188 555.226562 759.132812 555.894531 C 759.019531 556.5625 758.882812 557.398438 758.714844 558.398438 C 757.546875 558.679688 755.859375 558.984375 753.664062 559.320312 C 751.464844 559.652344 748.667969 559.820312 745.273438 559.820312 C 744.4375 559.820312 743.15625 559.777344 741.433594 559.695312 C 739.707031 559.609375 737.773438 559.320312 735.632812 558.816406 C 733.488281 558.316406 731.246094 557.507812 728.910156 556.398438 C 726.574219 555.285156 724.40625 553.726562 722.414062 551.722656 C 719.546875 548.714844 717.515625 545.308594 716.328125 541.496094 C 715.144531 537.683594 714.550781 533.855469 714.550781 530.015625 "/>
<path fill-rule="nonzero" fill="rgb(100%, 100%, 100%)" fill-opacity="1" d="M 793.527344 520.332031 C 793.191406 519.105469 792.886719 518.023438 792.609375 517.074219 C 792.328125 516.128906 792.066406 515.210938 791.816406 514.320312 C 791.5625 513.429688 791.328125 512.5 791.105469 511.523438 C 790.882812 510.550781 790.605469 509.394531 790.269531 508.058594 C 790.15625 507.449219 790.03125 506.878906 789.894531 506.347656 C 789.753906 505.820312 789.628906 505.277344 789.519531 504.71875 L 779.667969 534.691406 C 781.167969 534.804688 782.6875 534.886719 784.21875 534.941406 C 785.746094 534.996094 787.292969 535.023438 788.851562 535.023438 C 790.355469 535.023438 791.867188 534.996094 793.402344 534.941406 C 794.929688 534.886719 796.445312 534.804688 797.949219 534.691406 Z M 779.167969 513.152344 C 779.835938 511.148438 780.390625 509.464844 780.835938 508.101562 C 781.28125 506.738281 781.628906 505.570312 781.878906 504.59375 C 782.128906 503.621094 782.339844 502.773438 782.503906 502.046875 C 782.671875 501.324219 782.8125 500.574219 782.921875 499.792969 C 784.09375 499.90625 785.261719 500.015625 786.429688 500.128906 C 787.597656 500.242188 788.765625 500.292969 789.9375 500.292969 C 791.046875 500.292969 792.175781 500.242188 793.316406 500.128906 C 794.457031 500.015625 795.585938 499.90625 796.699219 499.792969 C 797.03125 501.464844 797.351562 502.9375 797.660156 504.21875 C 797.960938 505.5 798.285156 506.78125 798.617188 508.058594 C 798.953125 509.339844 799.355469 510.703125 799.828125 512.148438 C 800.300781 513.597656 800.871094 515.324219 801.539062 517.324219 L 809.054688 539.949219 C 809.664062 541.566406 810.332031 543.46875 811.058594 545.667969 C 811.78125 547.867188 812.449219 549.773438 813.0625 551.386719 C 813.5625 552.835938 814.007812 553.988281 814.398438 554.851562 C 814.785156 555.714844 815.132812 556.4375 815.441406 557.023438 C 815.746094 557.605469 816.054688 558.066406 816.359375 558.398438 C 816.664062 558.734375 816.984375 559.070312 817.320312 559.402344 C 816.207031 559.234375 815.066406 559.09375 813.894531 558.984375 C 812.726562 558.875 811.585938 558.816406 810.472656 558.816406 C 809.359375 558.816406 808.261719 558.875 807.175781 558.984375 C 806.089844 559.09375 804.988281 559.234375 803.878906 559.402344 C 803.933594 559.121094 803.988281 558.804688 804.042969 558.441406 C 804.097656 558.082031 804.128906 557.707031 804.128906 557.3125 C 804.128906 556.535156 803.960938 555.492188 803.628906 554.183594 C 803.292969 552.878906 802.902344 551.417969 802.457031 549.800781 L 799.953125 541.621094 C 796.335938 541.285156 792.746094 541.117188 789.183594 541.117188 C 787.234375 541.117188 785.304688 541.175781 783.382812 541.285156 C 781.460938 541.398438 779.527344 541.507812 777.582031 541.621094 L 775.492188 548.714844 C 774.992188 550.550781 774.601562 552.011719 774.324219 553.097656 C 774.042969 554.183594 773.824219 555.035156 773.65625 555.644531 C 773.488281 556.257812 773.390625 556.71875 773.363281 557.023438 C 773.335938 557.328125 773.324219 557.621094 773.324219 557.898438 L 773.324219 558.566406 C 773.324219 558.734375 773.351562 559.039062 773.40625 559.484375 C 772.457031 559.375 771.5 559.261719 770.527344 559.152344 C 769.550781 559.039062 768.5625 558.984375 767.5625 558.984375 C 766.617188 558.984375 765.640625 559.039062 764.640625 559.152344 C 763.640625 559.261719 762.664062 559.375 761.71875 559.484375 C 762.554688 558.148438 763.25 556.980469 763.804688 555.976562 C 764.363281 554.976562 764.917969 553.835938 765.476562 552.554688 C 766.03125 551.277344 766.644531 549.730469 767.3125 547.921875 C 767.980469 546.117188 768.816406 543.761719 769.816406 540.867188 Z M 779.167969 513.152344 "/>
<path fill-rule="nonzero" fill="rgb(100%, 100%, 100%)" fill-opacity="1" d="M 828.757812 507.058594 C 826.976562 507.058594 825.5 507.113281 824.332031 507.222656 C 823.164062 507.335938 822.175781 507.503906 821.367188 507.726562 C 820.5625 507.949219 819.863281 508.226562 819.28125 508.558594 C 818.695312 508.894531 818.070312 509.3125 817.402344 509.8125 C 817.570312 509.03125 817.707031 508.269531 817.820312 507.515625 C 817.929688 506.765625 817.988281 506 817.988281 505.21875 C 817.988281 504.273438 817.917969 503.382812 817.777344 502.550781 C 817.640625 501.714844 817.515625 500.769531 817.402344 499.710938 C 818.070312 499.824219 819.101562 499.917969 820.492188 500.003906 C 821.882812 500.085938 823.59375 500.15625 825.625 500.210938 C 827.65625 500.269531 829.96875 500.296875 832.554688 500.296875 L 848.75 500.296875 C 851.117188 500.296875 853.300781 500.269531 855.304688 500.210938 C 857.308594 500.15625 859.171875 500.085938 860.898438 500.003906 C 862.625 499.917969 864.292969 499.824219 865.90625 499.710938 C 865.796875 500.601562 865.699219 501.476562 865.613281 502.339844 C 865.53125 503.203125 865.488281 504.082031 865.488281 504.96875 C 865.488281 505.75 865.53125 506.554688 865.613281 507.390625 C 865.699219 508.226562 865.796875 509.03125 865.90625 509.8125 C 865.015625 509.257812 864.238281 508.796875 863.570312 508.433594 C 862.902344 508.074219 862.152344 507.808594 861.316406 507.640625 C 860.480469 507.472656 859.4375 507.351562 858.183594 507.265625 C 856.933594 507.183594 855.304688 507.113281 853.300781 507.058594 L 846.289062 507.058594 C 846.175781 508.726562 846.09375 510.410156 846.039062 512.109375 C 845.980469 513.804688 845.941406 515.644531 845.914062 517.617188 C 845.882812 519.59375 845.855469 521.777344 845.828125 524.171875 C 845.800781 526.566406 845.789062 529.265625 845.789062 532.269531 C 845.789062 534.273438 845.800781 536.316406 845.828125 538.40625 C 845.855469 540.492188 845.898438 542.523438 845.953125 544.5 C 846.011719 546.476562 846.09375 548.3125 846.207031 550.011719 C 846.316406 551.707031 846.457031 553.167969 846.621094 554.394531 C 846.84375 555.894531 847.066406 556.96875 847.289062 557.605469 C 847.511719 558.25 847.792969 558.875 848.125 559.484375 C 846.011719 559.152344 843.894531 558.984375 841.78125 558.984375 C 840.613281 558.984375 839.457031 559.039062 838.316406 559.152344 C 837.175781 559.261719 836.019531 559.375 834.851562 559.484375 C 835.019531 559.261719 835.238281 558.886719 835.519531 558.359375 C 835.796875 557.832031 836.0625 556.703125 836.3125 554.976562 C 836.5625 553.253906 836.785156 550.691406 836.980469 547.296875 C 837.175781 543.902344 837.273438 539.226562 837.273438 533.269531 C 837.273438 529.042969 837.257812 525.480469 837.230469 522.585938 C 837.203125 519.691406 837.148438 517.269531 837.0625 515.320312 C 836.980469 513.375 836.894531 511.761719 836.8125 510.480469 C 836.730469 509.199219 836.660156 508.058594 836.605469 507.058594 Z M 828.757812 507.058594 "/>
<path fill-rule="nonzero" fill="rgb(100%, 100%, 100%)" fill-opacity="1" d="M 873.167969 522.085938 C 873.058594 518.910156 872.976562 516.394531 872.917969 514.527344 C 872.863281 512.664062 872.820312 511.160156 872.792969 510.019531 C 872.765625 508.882812 872.710938 508.003906 872.625 507.390625 C 872.542969 506.78125 872.472656 506.167969 872.417969 505.554688 C 872.195312 503.832031 871.972656 502.605469 871.75 501.878906 C 871.527344 501.160156 871.25 500.40625 870.914062 499.625 C 872.027344 499.738281 873.113281 499.851562 874.171875 499.960938 C 875.230469 500.074219 876.3125 500.128906 877.429688 500.128906 C 878.539062 500.128906 879.625 500.074219 880.683594 499.960938 C 881.742188 499.851562 882.824219 499.738281 883.941406 499.625 C 883.4375 500.796875 883.035156 501.878906 882.730469 502.882812 C 882.421875 503.882812 882.1875 505.152344 882.019531 506.683594 C 881.851562 508.210938 881.742188 510.160156 881.683594 512.527344 C 881.628906 514.890625 881.574219 518.050781 881.519531 522 L 881.519531 533.730469 C 881.519531 535.429688 881.53125 537.097656 881.5625 538.738281 C 881.589844 540.382812 881.628906 542.035156 881.683594 543.707031 C 881.742188 545.375 881.796875 547.160156 881.851562 549.050781 C 881.90625 550.609375 881.976562 551.875 882.0625 552.847656 C 882.144531 553.824219 882.257812 554.671875 882.394531 555.394531 C 882.53125 556.117188 882.730469 556.785156 882.980469 557.398438 C 883.230469 558.011719 883.523438 558.679688 883.855469 559.402344 C 882.742188 559.234375 881.65625 559.09375 880.601562 558.984375 C 879.542969 558.875 878.457031 558.816406 877.34375 558.816406 C 876.230469 558.816406 875.144531 558.875 874.089844 558.984375 C 873.03125 559.09375 871.945312 559.234375 870.832031 559.402344 C 871.054688 558.902344 871.261719 558.398438 871.457031 557.898438 C 871.652344 557.398438 871.835938 556.773438 872 556.019531 C 872.167969 555.269531 872.304688 554.335938 872.417969 553.222656 C 872.53125 552.113281 872.640625 550.71875 872.753906 549.050781 C 872.917969 545.375 873.03125 541.953125 873.085938 538.78125 C 873.140625 535.609375 873.167969 532.128906 873.167969 528.34375 Z M 873.167969 522.085938 "/>
<path fill-rule="nonzero" fill="rgb(100%, 100%, 100%)" fill-opacity="1" d="M 919.835938 504.96875 C 918.214844 504.96875 916.730469 505.152344 915.390625 505.511719 C 914.050781 505.875 912.847656 506.335938 911.785156 506.890625 C 909.660156 508.058594 907.941406 509.546875 906.628906 511.355469 C 905.3125 513.167969 904.304688 515.128906 903.605469 517.242188 C 902.910156 519.359375 902.445312 521.515625 902.222656 523.710938 C 902 525.910156 901.886719 527.957031 901.886719 529.847656 C 901.886719 534.300781 902.292969 537.890625 903.105469 540.617188 C 903.914062 543.34375 904.851562 545.488281 905.914062 547.046875 C 907.253906 548.996094 909.085938 550.707031 911.40625 552.179688 C 913.726562 553.65625 916.566406 554.390625 919.921875 554.390625 C 923.386719 554.390625 926.515625 553.472656 929.3125 551.636719 C 931.382812 550.136719 933.117188 548.1875 934.515625 545.792969 C 935.855469 543.457031 936.765625 540.867188 937.238281 538.03125 C 937.714844 535.191406 937.953125 532.382812 937.953125 529.597656 C 937.953125 528.542969 937.910156 527.359375 937.828125 526.050781 C 937.742188 524.742188 937.589844 523.378906 937.367188 521.960938 C 937.140625 520.539062 936.804688 519.105469 936.359375 517.660156 C 935.914062 516.214844 935.351562 514.851562 934.679688 513.570312 C 933.675781 511.730469 932.53125 510.257812 931.242188 509.144531 C 929.957031 508.03125 928.640625 507.171875 927.300781 506.554688 C 925.960938 505.945312 924.644531 505.527344 923.359375 505.304688 C 922.074219 505.082031 920.898438 504.96875 919.835938 504.96875 M 919.921875 499.292969 C 923.929688 499.292969 927.796875 499.949219 931.523438 501.253906 C 935.253906 502.5625 938.453125 504.71875 941.125 507.726562 C 943.683594 510.675781 945.4375 514.015625 946.386719 517.742188 C 947.332031 521.472656 947.804688 525.285156 947.804688 529.179688 C 947.804688 530.296875 947.75 531.726562 947.636719 533.480469 C 947.523438 535.234375 947.234375 537.140625 946.761719 539.199219 C 946.289062 541.257812 945.5625 543.375 944.589844 545.542969 C 943.617188 547.714844 942.265625 549.746094 940.542969 551.636719 C 939.039062 553.363281 937.410156 554.769531 935.65625 555.855469 C 933.90625 556.9375 932.109375 557.789062 930.273438 558.398438 C 928.4375 559.011719 926.613281 559.429688 924.804688 559.652344 C 922.996094 559.875 921.285156 559.984375 919.671875 559.984375 C 918.054688 559.984375 916.441406 559.875 914.828125 559.652344 C 913.214844 559.429688 911.597656 559.066406 909.984375 558.566406 C 906.089844 557.34375 902.75 555.3125 899.96875 552.472656 C 898.019531 550.46875 896.503906 548.328125 895.417969 546.042969 C 894.332031 543.761719 893.539062 541.550781 893.039062 539.40625 C 892.539062 537.265625 892.246094 535.332031 892.164062 533.605469 C 892.078125 531.882812 892.039062 530.570312 892.039062 529.679688 C 892.039062 528.734375 892.089844 527.398438 892.203125 525.675781 C 892.3125 523.949219 892.605469 522.042969 893.082031 519.957031 C 893.554688 517.867188 894.292969 515.726562 895.292969 513.527344 C 896.296875 511.328125 897.714844 509.257812 899.550781 507.308594 C 901.941406 504.75 904.851562 502.773438 908.273438 501.378906 C 911.699219 499.988281 915.578125 499.292969 919.921875 499.292969 "/>
<path fill-rule="nonzero" fill="rgb(100%, 100%, 100%)" fill-opacity="1" d="M 957.820312 510.480469 C 957.65625 508.589844 957.488281 507.058594 957.320312 505.886719 C 957.15625 504.71875 956.929688 503.761719 956.652344 503.007812 C 956.375 502.257812 956.070312 501.644531 955.734375 501.171875 C 955.402344 500.699219 954.984375 500.183594 954.484375 499.628906 C 955.871094 499.792969 957.140625 499.917969 958.28125 500.003906 C 959.421875 500.085938 960.605469 500.128906 961.828125 500.128906 C 962.773438 500.128906 964 500.101562 965.503906 500.046875 C 967.003906 499.988281 968.5625 499.851562 970.175781 499.628906 C 970.511719 500.40625 970.804688 501.101562 971.054688 501.714844 C 971.304688 502.328125 971.652344 503.050781 972.097656 503.886719 C 972.542969 504.71875 973.113281 505.792969 973.808594 507.097656 C 974.503906 508.40625 975.4375 510.144531 976.605469 512.316406 L 990.046875 534.273438 C 991.492188 536.667969 992.703125 538.613281 993.679688 540.117188 C 994.652344 541.621094 995.445312 542.871094 996.058594 543.875 C 996.667969 544.875 997.144531 545.710938 997.476562 546.378906 C 997.8125 547.046875 998.089844 547.742188 998.3125 548.464844 C 998.199219 547.296875 998.128906 545.933594 998.101562 544.375 C 998.074219 542.816406 998.046875 541.1875 998.019531 539.492188 C 997.992188 537.792969 997.976562 536.109375 997.976562 534.441406 L 997.976562 519.246094 C 997.976562 515.574219 997.894531 512.582031 997.726562 510.273438 C 997.558594 507.960938 997.363281 506.109375 997.144531 504.71875 C 996.917969 503.328125 996.667969 502.269531 996.390625 501.546875 C 996.113281 500.824219 995.863281 500.238281 995.640625 499.792969 C 996.417969 499.90625 997.335938 499.988281 998.394531 500.046875 C 999.453125 500.101562 1000.621094 500.128906 1001.902344 500.128906 C 1002.738281 500.128906 1003.625 500.101562 1004.574219 500.046875 C 1005.519531 499.988281 1006.464844 499.90625 1007.410156 499.792969 C 1007.1875 500.40625 1006.980469 501.03125 1006.785156 501.671875 C 1006.589844 502.3125 1006.410156 503.09375 1006.242188 504.011719 C 1006.074219 504.929688 1005.921875 506.027344 1005.785156 507.308594 C 1005.644531 508.589844 1005.546875 510.144531 1005.492188 511.980469 C 1005.269531 517.214844 1005.117188 522.40625 1005.03125 527.554688 C 1004.949219 532.699219 1004.90625 537.890625 1004.90625 543.121094 C 1004.90625 545.851562 1004.949219 548.5625 1005.03125 551.261719 C 1005.117188 553.964844 1005.378906 556.675781 1005.824219 559.402344 C 1004.933594 559.289062 1004.070312 559.179688 1003.238281 559.066406 C 1002.402344 558.957031 1001.539062 558.902344 1000.648438 558.902344 C 999.148438 558.902344 997.558594 559.066406 995.890625 559.402344 C 995.109375 558.066406 994.472656 556.9375 993.96875 556.019531 C 993.46875 555.101562 992.941406 554.183594 992.382812 553.265625 C 991.828125 552.347656 991.1875 551.316406 990.464844 550.175781 C 989.742188 549.035156 988.792969 547.546875 987.625 545.710938 L 973.433594 522.835938 C 971.984375 520.496094 970.746094 518.523438 969.71875 516.910156 C 968.6875 515.296875 967.824219 513.917969 967.128906 512.777344 C 966.433594 511.636719 965.863281 510.675781 965.417969 509.894531 C 964.972656 509.117188 964.636719 508.421875 964.417969 507.808594 C 964.582031 509.257812 964.75 510.730469 964.917969 512.234375 C 965.085938 513.734375 965.210938 515.421875 965.292969 517.285156 C 965.378906 519.148438 965.445312 521.265625 965.503906 523.628906 C 965.558594 525.996094 965.585938 528.792969 965.585938 532.019531 L 965.585938 542.789062 C 965.585938 545.570312 965.667969 548.410156 965.835938 551.304688 C 966.003906 554.199219 966.558594 556.925781 967.503906 559.484375 C 966.558594 559.320312 965.613281 559.164062 964.667969 559.027344 C 963.71875 558.886719 962.773438 558.816406 961.828125 558.816406 C 960.828125 558.816406 959.839844 558.886719 958.867188 559.027344 C 957.890625 559.164062 956.902344 559.320312 955.902344 559.484375 C 956.179688 558.707031 956.457031 557.804688 956.738281 556.773438 C 957.015625 555.742188 957.292969 554.171875 957.570312 552.054688 C 957.738281 550.496094 957.875 548.617188 957.988281 546.421875 C 958.097656 544.222656 958.199219 541.855469 958.28125 539.324219 C 958.363281 536.792969 958.40625 534.175781 958.40625 531.476562 C 958.40625 528.777344 958.378906 526.148438 958.324219 523.585938 C 958.265625 521.027344 958.199219 518.621094 958.113281 516.367188 C 958.03125 514.113281 957.933594 512.148438 957.820312 510.480469 "/>
</svg>
